<mxfile host="app.diagrams.net" modified="2024-05-13T17:04:04.099Z" agent="Mozilla/5.0 (Windows NT 10.0; Win64; x64) AppleWebKit/537.36 (KHTML, like Gecko) Chrome/124.0.0.0 Safari/537.36" etag="DAoiDBJO2t_klbrtKDXP" version="24.3.1" type="github">
  <diagram name="Page-1" id="rKiemk-7PLHCrdPJFnQl">
    <mxGraphModel dx="2492" dy="986" grid="1" gridSize="10" guides="1" tooltips="1" connect="1" arrows="1" fold="1" page="1" pageScale="1" pageWidth="850" pageHeight="1100" background="#ffffff" math="0" shadow="0">
      <root>
        <mxCell id="0" />
        <mxCell id="1" parent="0" />
        <mxCell id="fsgrslMRhDfrx13vYoYJ-1" value="" style="shape=image;verticalLabelPosition=bottom;labelBackgroundColor=default;verticalAlign=top;aspect=fixed;imageAspect=0;image=data:image/png,iVBORw0KGgoAAAANSUhEUgAAA64AAAJeCAYAAAC041jfAAAAAXNSR0IArs4c6QAAAARnQU1BAACxjwv8YQUAAAAJcEhZcwAADsMAAA7DAcdvqGQAAP+lSURBVHhe7J0FYFzF+vafuHuTNHVL3d1oC22htBQtUNwp7vcCF7jA5Y9cvou7e3F3WijQ0lJ3l9TbaOMu3zyz5ySbzW6y8d3N+0un58wc2d2j88z7zjteFQoIgiAIgiAIgiAIgovibUwFQRAEQRAEQRAEwSUR4SoIgiAIgiAIgiC4NCJcBUEQBEEQBEEQBJdGhKsgCIIgCIIgCILg0ohwFQRBEARBEARBEFwaEa6CIAiCIAiCIAiCSyPCVRAEQRAEQRAEQXBpRLgKgiAIgiAIgiAILo0IV0EQBEEQBEEQBMGlEeEqCIIgCIIgCIIguDQiXAVBEARBEARBEASXRoSrIAiCIAiCIAiC4NKIcBUEQRAEQRAEQRBcGhGugiAIgiAIgiAIgksjwlUQBEEQBEEQBEFwaUS4CoIgCIIgCIIgCC6NCFdBEARBEARBEATBpRHhKgiCIAiCIAiCILg0IlwFQRAEQRAEQRAEl0aEqyAIgiAIgiAIguDSiHAVBEEQBEEQBEEQXBoRroIgCIIgCIIgCIJLI8JVEARBEARBEARBcGlEuAqCIAiCIAiCIAgujQhXQRAEQRAEQRAEwaUR4SoIgiAIgiAIgiC4NCJcBUEQBEEQBEEQBJdGhKsgCIIgCIIgCILg0ohwFQRBEARBEARBEFwaEa6CIAiCIAiCIAiCSyPCVRAEQRAEQRAEQXBpRLgKgiAIgiAIgiAILo0IV0EQBEEQBEEQBMGlEeEqCIIgCIIgCIIguDQiXAVBEARBEARBEASXRoSrIAiCIAiCIAiC4NKIcBUEQRAEQRAEQRBcGhGugiAIgiAIgiAIgksjwlUQBEEQBEEQBEFwabwqFMa8IHgIFajI3QVkrlbTHUDeblTk7wPKi/RSn36D1f8/6nl4hQK+iSr1VWkg4D9BrdCdCyzLBUEQBEEQBEFodUS4Ch5COSqOrUJF8k+oyFgGlGQa5TWpJlzt4Z0ABEwHAs8C/IaqAhGxgiAIgiAIgtCaiHAV3JvyQlQc/ATlhz8DilKNwtqpU7ha49MDCL4GCJqjMr6WMkEQBEEQBEEQWhQRroJ7UlGCisNfoXz/O0BxulHoHPUSriZ0Hw65DQicrTLSNVwQBEEQBEEQWhIRroJ7UVGOiuTvUb73DaAo2SisHw0Sria+/ZSAvQMImKYy4kIsCIIgCIIgCC2BCFfBfSg8gvIt96AiZ6tR0DAaJVxNKFzDngS8I40CQRAEQRAEQRCaC/F5FNyCirQ/Ubb64kaL1iajaCFw7GSgZI1RIAiCIAiCIAhCcyHCVXBtKkpRvvtZlG++EyjNNQpdhLJDSrzOAfJfVxlxXBAEQRAEQRCE5kKEq+C6lGSifN21qDj4oVHgipQCuf8Bsq5W2rXQKBMEQRAEQRAEoSkR4Sq4JqW5KN9wMyqyNxkFLk7Rz0q8XqPEa4lRIAiCIAiCIAhCUyHCVXA9ygtRvul2VOTuMArchOLfgJxb1EyZJS8IgiAIgiAIQpMgwlVwLSpKUL75LlRkbTAK3IzCb5V4vUfNSJ9XQRAEQRAEQWgqRLgKLkQ5yrc+gIqM5UbeTSmYD+Q+amQEQRAEQRAEQWgsIlwFl6Fi39uoSP3NyLk5+S8Dhd8YGUEQBEEQBEEQGoMIV8ElYBCm8n1vGjkPIeduy5A5giAIgiAIgiA0ChGuQutTXoLybQ8q9ephQY0qcpR4/QdnLHlBEARBEARBEBqECFeh1dHjtBYcNHIeRvESy1A5giAIgiAIgiA0GK8KhTEvCC1PcRrKVpwDlBUYBc2PT7/B6v8fLZmWwKcTEL1I3W0BRoEgCK1BSkoKrr32WuzatQunnXYazjzzTHh5ecHb29thasxycxmnTIIgCIIgNBwRrkKrUr77aVQc/NjItQwtLlxJ2KNA0AVGRhCElmb37t3o3bs3ysvLjZKWxZ7ArU30MtW2vDHbMnnivpla67ObYt+CIAhC7YhwFVqP0lyU/X1qi1pbSasIV59uQMwizljygiC0KBStO3fuNHJVDB06FP7+/nrefB3aTomjZc5OibPrOpoSZ9d1NCXOrutoSpxd19GUOLuuoympbZm74UjcNoUotlfO1Jz7Zmqtz/bEfXOZILR1RLgKrUbFgQ9Qvud5I9dytIpwJRGvAgEzjIwgCC1JcHAwCgpqNpL16dMHCQkJRk7wFBwJWtspcXZdR1Pi7Lq2U+Lsuo6mxNl1HU2Js+s6mhJn13U0Jc6u62hKnFnHHWkt0czUkvumZ8zXX3+NI0eO6PwFF1yAN998U88LbRsRrkKrUb7qQlTk7TZyLUerCdeAmUq8vmxkBEFoSbp164Z9+/YZuSqGDBlSaXFl5akhU+LMOoIguAaOBK11lbiudeqaEmfXdTQlzq7raEqcXdd2Spxd19GUOLuuOWUjY3FxsZ43ueiii/Duu+8aOaGtIsJVaBUq8vYo4do6fT5bTbgyOFO7tWoaahQIgtBS/N///R/+/e9/V1aMKChb8vVXm6B1tMzZKXF2XdspcXZd2ylxdl3bKXF2XdspcXZdR1Pi7Lq2U+LsurZTUtsyQWjr8Lm8ePHiGvEIfH19UVJSYuSEtooIV6FVqNj3Fsr3vmrkWpZWE64k4iUgYJaREQShpXjiiSdw7733IjExUbfkFxYW6unvv/+uK0h8FXLqKNW2vDHbMsm+a6bGLHdXHAlaa2Fb1zqOpsTZdR1NibPr2k6Js+vaTomz69pOibPr2k6Js+s6mhJn17WdEntlng7vYQpX3uPW0E24rMzDxvsX6o0IV6FVKN9wCyqOLTdyLUurCtfgy4HQB4yMIAgtxeOPP44HHngAY8aM0fkDBw7oSlBSUpLOC54DqzW1CdvaljE117ZMsu+aqTU+211xJHLtCVxn17WdEmfXtZ0SZ9e1nRJzPj09XTcuWhMbG6uHNBPaNiJchVagHGV/naSjCrcGrSpc/YYAUd8aGUEQWopHH30UDz30UKVw3b9/v64kcUxXQRDaFqagrU341raMqTHL3XXfTC3x2evWrUNOTo7OE1pbzzvvPLz//vs6L7RdRLgKLU/BIZStmGNkWp5WFa7wBeI4JIcMiyMILQn7uFK8jh49WucZqMnPzw/bt2/XeUEQBME1OPXUU7FixQr06NEDPj4+2LZtG2bMmIH33nvPWENoq0hcaaHFqSg6Ysy1RUqB8lRjXhCEloJuwdYuaWyzZYVIEARBcC0Y6Z3P6ICAAB2Uic9u2yjDQttEhKvQ8hS18T4KZYeMGUEQWorS0tJqwpWIcBUEQXA9TOFqQldhEa4CEeEqtDzFx4yZNkp5mjEjCEJLYc/iypZ8QRAEwbWgcGVfVxOxuAomIlyFlqeirYczd9+IhoLgrtgOoyCuwoIgCK4J4w/YWlxlDFeBiHAVWoG2Hg9M4qEJQksjfVwFQRDcA7G4Co4Q4Sq0PN5+xkxbJcCYCoLQUohwFQRBcA+kj6vgCBGuQsvjH2vMtFF84o0ZQRBaClvhSkS4CoIguB5icRUcIcJVaHkC2rhw9Y4zZgRBaCkYVdgasbgKgiC4JrZ9XClcpY+rQES4Ci2OV3B3/m/JtDW8o1Rq48JdEFoBiSosCILgHoirsOAIEa5Cy+MXAQR3NjJtDL9R6r82KtoFoRWRPq6CIAjugbgKC44Q4Sq0Cl4Rw425NobfWGNGEISWRISrIAiCeyAWV8ERIlyFVsErbpox15ZQlebAWca8IAgtiQRnEgRBcA/Yx9XW4ip9XAUiwlVoFbwihwMBbSy6rv9YdcclGBlBEFoSCldrxOIqCILgmojFVXCECFehlfCCd9dLjfk2QvDNxowgCC0NowqLq7AgCILrI31cBUd4qZd3VZOGILQkFWUoW3k+ULDfKGgZfPoNVv//aMm0FP5TgMh3jYwgCC3NnDlzsHjxYvTv31/nN2/ejOOPPx4ff/yxzjcH2fv24ecrrkDOwYPoPnMmep95pmWBlYCu5r5sPa9wtMypctKE2zflNo3d3uF+FfX+TCe3b9JtGrl9tXLixDaN3b7R29huL7QZ8pOTkbl7NzqMpdeZc/ayDz74ABdffDEmTZqk88lqH7t27RLxKohwFVqXitTfUL7lHiPXMrS8cFUv7Gj1eb6WCrMgCC3PGWecgWXLlqFfv346v2nTJkyfPh3z58/X+aYmdcMGvDd0aDV3N0EQ7FBfEUzqu43N9g6XNXJ7V/rMauXEiW0au73tNmy8KzPFphKtM997D/3OP9+Sr4VPPvkEc+fOxeTJk3U+NTVVNzbSClvjewltChGuQqtTvuYKVORsMXLNT4sL18AzgfCnjYwgCK3BqaeeipUrV6Jv3746T+E6Y8YMvKcqUs3Bq507a0urLSMiI+Ffi9XB4QvZyVd1bWvZLrOu/jlbEbBez7b6WG0fVt/X2X3b0tDtTGrb3nqZqggZcxYcbVfb/pw9lrUtq41q2zWg2ubsd6r1nFpR2/6sj6ezn+ssDdnGlmr7qOXcN8U5bfLrogHH1vacWtOQfTi7TU5JCdJsLaRKdN6cnw/fwECjwD5fffWVbmykcKVQTUtL089sWlwZuElou4hwFVqf/L0oW32ZUrCFRkHz0qLC1TseiP5ZTaONAkEQWoNZs2ZhzZo1lcJ148aNOOWUU/D222/rfFPzdEBAlaXBigFhYYhVywRBEDyZTdnZNYWr4rTPP0cvs9uEA3744Qf9zKarMAMzZWRkYMOGDcjNzUVISIixltAWkeBMQusT3A3evW41Mp6EFxD+jIhWQXABWnoc16DYWGOuOvzE7JISnbJKSytTdi0pp5EptwEpzzqpY2emfKtkXW67zFEqsEq1LbNOhc6m8nK7qagBqdhBKrFJtS2rTOpaM1OpTaptmZnKGpnKnU3q2jQTLRqOkjWOygXBz4FnSVjXrsacYxiciZgBmsxnt/RxFcTiKrgM5VvuRUXqr0au+Wgxi2vITSrdYWQEQWhNpk2bhq1bt6J37946v379eh2w6dVXX9X5pmbZgw9i2QMPVFboWe2Sl60gVMeRC6p1uS3VljnR37HuNWrH2e9S6/d38D2d3t6K2pY5wuE2Thw/4mgt63Lb5xvlBRuOrPFSYva2supDk9njjz/+wJQpUzBhwgTtGpyVlYW1a9fqIE1xcXHGWkJbRISr4DqU5qJs9aVA4SGjoHloEeHqNwKI+lTN+FrygiC0KowgvHPnTiQmJur8unXrcN555+HFF1/U+aZm9dNPY+ntt6NPaKi2urEClxoejovWrDHWsFTsKrF5FTta5nCbRm5frZw4sU21eUVLfKbD70IauX1TbtPY7Z0qJ024fVNu09jtHe5XUe/PdHJ7p8qJE9tUm1e0xGc6/C6kkds3ZJsjy5Yh6fvvtbjlEt23Pzoa16ek6OW1wUB648ePx7hx4xAQEIDs7Gzd1ePAgQPo1KmTsZbQFhHhKrgUFbnbUb72KqC8xChpeppduNI1mFGEvROMAkEQWhv2lUpKSkKvXr10nsL1wgsvxHPPPafzTY0pXMeriho5WFCAo5GRmGcnYJMgCIKnsfb557Hk5psrn4GHCgtxKCQE1x49qvO1sXr1aowcORJjx45FYGCg7tu6atUq7N69Gz169DDWEtoi0sdVcCm8QvvAu9dtRs4d8QLCVUVYRKsguBTs42oN22ybs4+rIAh1wz6MFCWuAPtPlpQ0X6O54DzSx1VwhAhXweXwSjgdXvEzjJybEaJEt/9xRkYQBFehpYMzCYJQN4wYu2/fPu0C2poUFhbqPvD8PkLrYw55YzqFms9uaVgQ5A4VXBLvxH8Cwd2NnJvgP1kJ1xuNjCAIroQIV0FwTThEFa2udOWnK+iuXbtaNO3Zswepqano0KGDPBNcBNPiagpXs0FBLK6CCFfBNfEJgs+AR/XULfDuYBn6Rm4pQXBJSktLRbgKggvC+5D9GDlW5+HDh3Ho0KEWTenp6fp5EOtgCCuh5RFXYcERUssWXJfgrvDufbeRcWV8gYgX1d0k47UKgqtia3Elvr4S9VsQXAGzDzrvUYrIlkz8THERdi3E4io4QqIKCy5P+c7/h4rDXxi5xtPkUYXDHgSCLjMygiC4IgMGDEB+fj66deum8ytXrsQdd9yBBx54QOebGokqLLQkx44dw+bNm7F///5KK5U7Ea3uk/j4eCPXslAUhYWF4e+//zZK3IfQ0FAdKb1fv34u50HSmKjCvJ55TQwZMgRRUVHaY2bJkiVYsGCBHpNbaLuIcBVcn/ISlK2cCxQeNgoaR5MKV//xQOSHaqa6JUcQBNeC/ejYWt+1a1edX7FiBe666y7cd999Ot/UiHAVWoqFCxfi1Vdf1QGG3JWTTz4Zo0ePNnJVUITzvk1OTtZ9UM2gPfUlLy9P74suyfS0sPa+YJ775fPAXaFwvV09b+Li4oyS1qcxwpXni6J88ODBWsDy3P3555/4/vvvMXPmTGMtoS0ivhGC6+PtB+8e1xkZV0K9+EJZ6RXRKgiujgRnEjwRjm357LPPurVoNbFnR+HvYsThRx55BEedEDyO2LFjB9auXYu0tLQa7qae4CbMiMj/+c9/tGXSE5A+roIjRLgKboFX7FR4hQ80ci5C4JmA7wAjIwiCKyPCVfA0eA2/8sorRs79Mfu5WmM9/AndoBuK9ba24s5T+rfyN/70009Gzr0x4w+YjRl8djOJcBVEuApug1fPm405F8ArAAj5h5ERBMHVsY0qTES4Cu4M+wHShdYRXbp0wUUXXYR77rkH999/P+bNm6f7DNreB66Cbd/cgoIC3S/d5P3339cW0/qybds2/PDDD0YOyM7OriaIXfV40FV21qxZ+Mc//qGtqbfddhumT5+OgABV/3DAli1bjDn3hueE7tvW1wTLZBxXQYSr4DbQ4uoVe7yRa2WCLle13g5GRhAEV8fWmsOWfIkqLLgzHMrFHqzwX3zxxdqF+Oyzz8aYMWMwYsQILYIeeugh3ZczIiLCWNsxkZGReh/20siRI421mg7be7SoqMiYs0ARQ5fY+mJPzFnvu6kbsHr06GH3mDFxmTOwv+8LL7ygGxuOO+44DB06FFOmTMGNN96o99O/f39jzeoc9KA+9HQXtnYfp3AVi6sgwlVwK7w6nmPMtSbqtgm6xJgXBMEdEFdhwdOwtVASur0++OCDmDNnjkMX2HHjxmnxU5d45f1C65691Bz3jq1wtfcZDNRTXxiV1hbrfTe1qzD3Z++YMTnzWbNnz8a9995r93uThIQEPProo/o82mLvmnBXbIUrj50IV0GEq+BWeEUMBYItw1m0GgHHi7VVENwMEa5CW4CiZ+DAuuNBUBRdc801Rs4+vGeOHDlSwz2T7slNFQwqKCioRiAek5CQkGpRhGmFdGRprI3x48ejT58+Rk69wpWA5OeamGKSzwcOi2P9nGgI5nGjq7MJuyrYO5a2dOzYEZdcUnfDOL/jdddd55Tl3F3hdWHrKizCVRDhKrgd3vEnG3OtROAcY0YQBHdBhKvg6QQHB+s+rc4yYcIEDBo0yMhZ4PZXXnmlTlzGcY4XL16M//73v9rllq66nE9PT9frXH755fUWelyf4ypff/31+Oc//6ldlzm+sr2gSfxNJieeeGK9P4tQqB5/fFU3Iwpia7hPiiR+F/Yj5fSUU07RQ+c4C9c999xz9THp3bu3Pm6//vqrPl5PPfWUPoYs41i15vFlMkW7yWWXXVajzBEUrXPnzjVyngcbLWwtrtLHVRDhKrgfMROMmdbAF/CfZMwLguAu2LohEhGugicxbNgwp0WPCfu/WkOLn5mmTZumgzpxDOTly5cjPDxci6U77rgDV1xxReV69Q2YxD6bdGVu166dtkpSjNAC2lpurhRE7O9OgcvATZyyT/DVV1/t9PHkdvw9PB5jx47Vx2348OH6eHEYHpazjOPVmseNybT2Ego1blMfbM+fJ8FjLxZXwRYRroLb4RXSEwiIN3ItjP9o9QXCjIwgCO6CbVRhsbgKnkZcXJwx5zzObkNXW3vWTpb16tXLyNVNTEwMJk+erO+/zz77TPe13bBhg7bg2mtcagkoHvnZq1evxqeffoqnn35aB76iO/UJJ5xgrFU7jODsSOTy+DjzrOHn1TdgHMWypz7HeDxtLa4iXAURroJb4hUxxJhrYfyUcBUEwe2w5yosUYUFT6IhbpTObsNoto6Eq21fWYphRsM1k7WbLkUcBcjKlSuxefNmfR9yH4zy21rClcKPx4Hfg4nW0y+//FIvs+4bWxtnnnmmtkjbgy7B1n1qHdGQ88dj5kkBmawRi6tgDxGuglviFeJcSPkmx7evMSMIgjthT7iKxVXwJA4cOGDMOY8z22zfvh2ffPIJ3nvvPfz99991CkwKuN27d+v77dVXX9V9Pk1ocSX23ItbS4Dxe1pb9khGRob+PnT1tXbnrQ979+7F559/jnfffRe///57naIrKysLOTk5Rs45OPyN7Xf3FGz7uPI8NUTcC56FCFfBPQnubsy0ML7Otb4KguBa2ApXIsJV8CQ2bdqE1NRUI1c3vCcYNMgReXl5eOaZZ/Dkk0/qQENLlizBG2+8gYcfflgLU0fs378f/fr10wGLGPmWfTxNGJGYdO3aVU+tsQ3O1BLwmcBkK047d+6syyiw6yuoKVBfeeUVPP744/j555/x119/4YMPPtBj6NIt2hH8HArc+rBo0SJjzvMQV2HBHiJcBbekVSyuXv6qplvzZSsIgmvDyo+tVYJ5Ea6CJ0Ehyj6jzvLhhx/qvpyOoPhiJGFrKB64zeuvv478/HyjtDoUF88995wWvS+88AJWrFhhLLFYb+kWzKjCU6dORWhoqC53FJyJn8d1hgxpXPcgWu9o7bWNFGwKVrPbAMUS3ZnPOussnV+3bp2emjAYEqMxM40cOdIorc5bb72l+8taN5bxc1JSUvDOO+/UGsyKAtfZxoddu3bh66+/NnKeh7gKC/YQ4Sq4J0Ed1NUbYGRaCJ9E9Z/0iRMEd8N0bTQrkaaIFeEqeBrr16/HRx99ZOQcs2rVKu3G6ghaSSkyHUFX2qVLlxq56lAEXnjhhdraesstt6BHj6qG5tzcXHz77bdakEycOBE33HCDjuDLwETmfWoNI/yyz+zFF1+so/A2FPZVpcsyXX8piEzMZwKfBfwe/N4XXHCBdndOSkrSrtHWTJkyBZ06dUJsbGy1vrsmhw8f1sfO3K8t/P3Lli0zcjVhYwAt3FyvNih+OcyOvWPmKYjFVbCHCFfBTVGXbqASry2JTzdjRhAEd8J0QbQVrhKcSfBE5s+fj3vuuUdb+GwpLCzUVlC6rdYmehg4qS4cBSMKCwvTrsALFizQfWhtraXcN/u+csp+nYwofOzYMbvfh/csRSWtrqZ1tCHQ4srEfViLSrPxioJo37592j2a0x9++EH36bW1AmdmZmorJ5cziJMtbBCw9e6wxdFxM+FxoaBnACt7/PbbbzpYVkP6NLsTPF+2Flfp4yqIcBXcFi/f6oOINzvekcaMIAjuhFhchbbGxo0bdUTfu+++Gy+++CJee+01/Oc//9GWS/a7rEtcOWPJc7QORSiHlOnWrZv+HmaEXmvY15XD4XC9559/HkePHm0VUWKKYTZuvf322/jf//6npxSN9o4RAy1R/FPoct4W/oa6jq09l2hbaNFm4wIjNvMYsW/xE088gcsvv1znKbA9HbG4CvYQ4Sq4L76WvjEthlftraSCILgmIlyFtgive1rvfvrpJ+2eS2sgRZcz0L23LvFam+WQ9xi3d0akmdT1ec1Bfa24p59+um4QuPXWW7UbtC119cXl55n9ep2Brse0sNLK+8cff9TaP9bTkD6ugj1EuArui08LC1exuAqCW+KoQizCVRDsw+BDtJg6YtSoUejb1/7wcOyvSlHHIE5Dhw7VYs8ZeJ/WZa1saqzdhp2BfV7Z/5TD0NAKakvPnj0dHhcyc+ZMJCQkGDmhNmwtriJcBSLCVXBfWtpVWCyuguCWmMJVLK6C4By0DNItlYGIrMUD5yloTznlFIf3D8cipbA74YQT0KVLFz1Mj7O0tNW1vhbXuXPnamEeHR2NSZMmGaVV8Blz5ZVXonv37jWszcOHD9fHjsdUqBvbPq48V9LHVRDhKrgvPsHGTAvh1cJCWRCEJkGEqyDUnw4dOuggT2eeeaaOuDto0CBMmzZNBw5q3769sVZN2F+U/T9feuklHSGXw7Y4S0uP5Vpf4froo4/qPrkcKoh9dO1BF+o777wT5513HkaPHo2BAwdi8uTJeogdHkPBOcTiKthDhKvgvni18OXrJRFIBcEdkajCgtAwKOxmzJiBq6++WgvWc845R0cNdgbeZ7QuXnbZZUZJ3bi6xdVZ+KyhxfmKK67QEYDPP/98tGvXzlgqOIMEZxLsIcJVcGNa+vKV20UQ3BGxuApC49i9e3c1EWHCMo53ag2FLQMYMc2aNQshIc57K9laXBldl5/9yCOPGCUN46233sJff/1VY4igphKu7M/ryFq8d+/eFhfknoAEZxLsITVxwX0xKqEtR0t/niAITYGjSqMIV0FwjqeeesqhcOW4sNawjytdaZk43umWLVuMJbXDSMZBQUFGzgL3T/HCvo379+/HsmXL6p0YiZeCh88B29/A78rhe3bu3GmUNIxPP/1Uj/Fqj5dffhkFBQVGTnAW9nG1Pl9sZJA+roKXuihqPokEwYV5+OGHdUh/r3L1Iiir/8ugd58YhIdmGLl64DdUPTnjEBcXh7FjxxqFgiC4Ouxjl5iYiJEjR+qhKFiJXL58OdasWYNhw4YZazUtq59+Gktvvx3jo6N1/qD6zKORkZh38KDOC0JjWb9+Pe677z4j1zTcddddCAgI0PNbt27VVsrZs2frMUWfffZZLR7mz5+vAxSdfPLJWlQygnBMTIzepqGY/WcpTLhPJlZPORwMo/hStDIgEsd7NRui2PBkilG6/Zvb2c4z0i/FKy3BkeoeZMAowt/CxP3wGUGR3VAojDlEDt2B+V1/+eUXTJ8+HV27dtXHlO7CP/74o47GbD1kzn//+1+nhyhyBv429sF1Bdaq77Hk5psrn4GH1O88FBKCa9U5dIb7779fj13LY0Zouab1vj7BvgTPQ4Sr4HZce+21jXK74YO9Pq5LtvBFxGAVgiC4B9u3b9dDVLACxHs/Pz8fK1as0BX/wYMHG2s1LSJcheamOYRrr169Kt1nKejOOOOMSoFIEUh3TbrEckxRut2yCkl33vT0dL1NcxIYGKgFc1ZWlv5cilBaOfl9KBhpPWWjFBuXeY9T8Jrz3KY54XeheOex4jxFOOd5LPn9OOUx/Pnnn/X3NKFgpsBuKjxJuNJIQRdxBrgibBDgMd2xY4fOC20TcRUWBEEQPBqzoUv6uApC7VBIURgw0brJhloGWOK0Y8eOOtIwxREto1yHLrbOitbY2FgtfpnYfzEmxiJonIUCkAKU1k0mzvN78P42yykCOU8Baz3f3FBAsy8ujwmFvHnczONlHkN+H/P4MjWlaPU0pI+rYA8RroIgCIJHYwZNsRWurEALgtAyXHbZpfj66691WrJkCebMmWMscQ7ex7Seckqxas5T3HCeoob3tr15wf2w7ePK57f0cRVEuAqCIAgejWlxtUUsroLgGIq+Dz/80G5if0PBPqmpqXaPGROXCc4hw+EI9hDhKgiCIHg04iosCPWnqKgIv//+u92UnJxsrOU8DE50yimzdJo4cYLazx/GEs+C7sD2jhkTlwnOIa7Cgj1EuAqCIAgejQhXQWh9Nm7cpO493n+Mwluig6YJgiPE4irYQ4SrIAiC4NGIcBWE1ufcc8/B3r1JOqWnp2HWrFnGEkGoCfu42lpcpY+rIMJVEARB8Gikj6sgtD6Mqrt58xaddu/eg06dOhpL6ob3KsdgJkFBQVrUMHGecJgrrsMxaDlsDgkPD9dix1xfcC/sWVz5LHf0PBfaBiJcBUEQBI9GogoLQuvDcV+7deumU4cOCfUa+zU6Ohq33367nj/33HMxZMgQDB8+XM+TK664Qo9BO3HiRMycOVOXPfDAA1r8XHjhhRgwYIAuE9wHnjtiWl3N57dYXds2IlwFQRAEj0ZchQWh9Xn77Xe0gGTq1KkzPvvsc2OJINTEFK7m89p8fks/17aNCFfB7WjtyqZYaQTBvRDhKgjNC91yTVfepmDnzp06eJOZli5diosvvljP33fffXpomffff1/Ps+zmm2/Gd999h1deeQWPP/64Ljv99NOxceNG3HXXXfj0008r92UmwbUx3btNiytdhYlYXNs2IlwFtyMyMtKYax3atWtnzAmC4A6IcBWE5uWkGSdj4nGTjFzjoUgJCwurTOzDyr6qnOeUeXtlwcHBOrGMfV0pps1l5r6YTBEkuC5icRXsIXeu4HZMnTrVmGt5WNEdNGiQkRMEwR1wFMxDhKsgNA1bt27B4UOHjFztMLrwvHlXY9KkphO6gudhK1zNxgYRrm0bEa6C23H88cejf//+Rq5lmT59um6tFQTBfRCLqyA0DRQN+fn5NdKAgYOQ0KGD3WW2QuPxx/8frrjiSixYsMAoEYSaOArOJMK1bSPCVXBL2J9l9OjRRq75ocvRKaecgn79+hklgiC4C46iCotwFYT6kZ2Tg9zc3Brpo/nz8d2339hddjQ52djaQmbmMaSmpmpRa8vJJ5+sIwXHxsYaJc0D3Yn5OUzsn2sLnxVspGZMCyb2t6S7cW2wQb0l6yWejtnH1dbiKn1c2zYiXAW3hC+VK6+8Erfeeqt+mZgV0qaGD0yG3WdQiMTERKNUEAR3ghZX62cE72vmpZ+bINQP3kVFRUU10sGDB3D06NEa5Ww0MoWHCe87JnvvbQ6Zc+jQIb1tc8JnAj+HyZ4Qoli99NJL8PXXX+u0Zs0azJ1rGXrHEUOHDhX35yZELK6CPeStLbg1tIDyBcPWW74c+aBrzEDj3AdfYmwJPnbsmH4Rjx8/vs6WVkEQXBd7wlWsrYLQOvz3v//F999/hzPPPMMoqYIW2uzsbIf90psKiiF+DpMpjATXQvq4CvYQ4Sp4BHyQHTlyBHv37sW+fftw+PBh3XJL8ZmZmVktsTw5OblG4jbcB0Uw1ysoKKjRUiwIgvthrxIswlXwFMr9ylEUVVRnqvB2jffZ++9/gOeffwG//bbIKKli2LBhGDdunF333aYkICBAfw4Tow7bQjH755+LcfLJM3QaMWI4li5dZiytDusZtMhyaB56gnF+y5YtxtLGUxZQZvd8VkuR6vx6eVZ9RSyugj1EuAoeC12UKD6tg0QwsZwVWdskCIJnwvtbLK6Cp1LatRTxZ8Wjw+kd0Ov8Xhh69VCMun4Uhlw1BN3P7a7LY2bFaIHj6nz00Ud6LFY2IjcntOzyc5jYUG0Lnxnr16+Ht7ePTsXFJdi6dauxtDp8njCxfpGXl9fkDd6ho0PRfk57dDqzE/pc1AfD5g3DyOtGYvCVg/X5Zbn/RH8Uh3uWoLPt42o+w6WPa9tGhKsgCILg0YhwFTwZf19/dG/fHYNjBsO3wBdb92/Fsl3LsOvgLkSpvyHthiAhPsHSQVXBgEQcD719+/Y477zzLIX1gPdSfZOz3HHHHdqVuHv37kZJ88Dfz89hau5AUPWBzyVaga+77joMGDBAl0WFRaFHXA8MjBqI0qxSbDuwDav3r8bhtMPoEtwFg6IHISw8rPL8uhopRUXYX1CA0nq6ZIursGAPL3VBeJZvgdDm+Mc//uGwJdQeXbp0qVef1YceekhHFRYEwT2hVeXGG2/EhAkTdJ7dAtglICMjQ+ebg9VPP42lt9+O8dHROn9QVdyOqsryvIMHdV5wfSpURbtMVZLLS0pqTO2VNeeyMi5X89bTwtxcHEtLg5d3Bfx8vZAbXoaDQ0rhVVYBn6IKZHQNRfq4/kq4ToBvrC/WvbkOgWmBmDdvHlatWoVodW327t0bL7zwgvGL64YeS75+vujWvQeS9uzWXk32oFjt138Ako8eRXZWltOxJ0y3Xbra0p23ueD3HjhwoJ5nIKi6+rmyDsB4GmwEs/3NfI4kJSUZOQv8HfUdtq9jx464//778fnnn2PhwoWVnmAdZnZAwtAEbN22FSnHNqDz0j0ITi9CsarGBOSqOs1ywM/+aXA5/EJDcVNOjpGrncLCQn0cOXZ+TEyM4b79J7755hvMnj3bWEtoa4hwFdye//3vf9qlx1nYylyfsVjvuuuuypY/QRDcjxdffFFHIGegNcJIouyXRvHaXIhwtVChKt+ORJizAq1yyuXGerUts502dBmFa2OgAcybFkfOqyntRdoCabOscmost16Py4jtsmpTJh8vbB2rjrXSh6HZXmDF7oiq+O/vH4K0yeMwot8IrHp1lRauU6dORVxcXKUI+/bbb9XaztNBCayzz5mLTz6a79Cll9axG2++FYv//ANrVq8ySi1MmTIZoaFh2L9/PzZs2GCUWpgyZYpaFor33nvPoShuCiiCrrnmGj3/+++/a9fh2jhnzuno3q0LjhxNxrvvf2yUWmgq4UoSEhL0WPW0CP/xxx/YvHmzFq5enb2w7ega9Pl4NTrm+iBSiWie92Pt1TZ7vNB5B68E1yJN3UdH7USHvjErC/5O9GHm9cnGAjYwtGvXTpfxXH322Wc466yzdF5oe4hwFdyeDz74QD/gnaVTp071Eq601PDhKQiCe/Lcc89pF0Rr4cpooowa3lw0Rrjmp6Rg19dfI7p3b3SaNAnlVuKvNqHVHMtsBWRty6pNuVzNo5FVDFuhpkWatWCzFXE2y+yuY6/MXFcle2LT3M5abBJ7+zDXaUkKgyqwZkIJwo95w8cybDEy1PHf7pWPzZeNx7Cuo7H5vc1auBJ+Vw71FhERUa/3J0no2AF+6p1YUlxSq3Dt1LkTgoNDsM3GI8rX10cLxbi4eH0fWsN7lMKVfV1pcWsuKFwvv/xyPf/XX3/pvqkmF59/jjouYfjgo8+RcczS//WKsycjAAUo8w7CKx9XP15NJVx5zFglN6vldBumeOt6Wlekhqbi2IG1GPDxDgwLj9Dnj+SGVyBAHabBKxs+mkJzsUmdW4pXW075+GP0OeccI1c7PAZ9+/bVDS2E1+r8+fMxd+5cnRfaHiJcBbeHL7jffvvNyNVNfYXrzTffXNm3QhAE9+NpJSLpOcG+Y+SgEo8MpEIB21w0VLguffBBLHvgASPXeFi9NQWVOW8rtvRUJVvBpmZqLKuc6sVV+yCOlplT62Wcd7TMukxwjjJfYNWEYvgXeSGwwAulqmp3QF1z+9oBu88chxE9RmLD2xu0cJ01a5YWA6tXr9aCi5H46wMtruecex4+/vCDWoXrTbfcpi2uq1etNEotrF+/Tt2Dh7RIjYqKMkotdO7cWbsVL168WF8DzQXdg2l5JgcOHKgW8OfauZPgVVaI75buxf5DKbqsJYTrxIkTtaDetWuXFu8jRozAp59+io6zOiI7MhvJ6ZvR//316OUbjGjDC+xYTDnaJXuj92bXa1zfmZuLQ3YaH67YuRORvXoZudrhcWR/5/j4eJ3ndfHmm2/qsfWFtokIV8HtYV+QTz75xMjVTX2EKx+apjuRIAjuyRNPPIF7770XY8eO1XlWVBngg66KzUVDhGthZiZesKnIk4TAQMSqiqop6tSMRdypZCs2K6fGMqFx0FmY1SRzygqTObVdZr2O7fr2ltmbknJjvRrrWC3jlFgvT+1RgSMDgOA09nEFiiP9sHNWIiKC+6PXoF5Y/dpqLVx79OihXXLZBYb9vdlnsL5QmNbVL9TWgmhSm3C95JJLdN/bxx57DOnp6UZp00NLHj+DvPPOO9X6u9sTrpecPQ0RQb7IL67A6x/9rMtM2AjGbgcUWMHBwdq9l+K7Q4cOxhrOcdxxx+mATByej31qeXw//vhj7Soc0CUAWw9sRVRKEuJ+3KWt6uzjWhwMdF2uznnzHaomhV4kl23fbuTqhh4BdJ9mIkuWLMFLL72khx0S2iYiXAW3h33VaE1x9lKuj3Bl4Aq2TguC4L48/vjjeOCBBzBmzBidp2BlpdDWStKUNES4bp0/Hz9ccIGRq4KidUAzj2vZnFQKMSY1X02MmVOVbAWbmqmxrHKqF1ftw9zO0TLb7aqtb7PMep3G4KXEkY86d95KxPio5K3mzakuc7Cs2pTLbdY3lyWnpWHBb7+hvL0XOo3sitJ8YKf3QRyLL0SZv5cSrhEIK2uPkV1GIjM4Exvf2VjpKkwoXCmQbN11m5vp06fpRuEjR45i5crq1liT3bt363WaC7oGJyYmGrnqXHDe2YhSx27+R59VugqPHj0K8fHtVX0jQ4mnv3SZLeeff74Wq4y70RAY3Zju0Tk5OVpYM1gTn1VmcKYjW49gT/EelJWlwi8vH35FPohLi0C/yEQkZSchZ3UOEoITcMUVVxh7bH2y1DN2nRKaxeo39TnrLEx78UW2aBhL64bHhA0ZZiMA3brpQcOoy0LbRISr4BHQorLdyVY8Z4UrLRfsR8FgToIguC+PPPIIHn74YVX5HK3zdI1kxXDnzp063xw0RLimbtiAd4cMMXJVdFQV+J7BwRaxpVINEWdMq83XsqzGVCW1gcNl1mLOXFfnVTLXs13HXNZYvH197Ys3O2X1Wae2ZY6EZG3L9JTLjfWYvJq5iwmDEt53332o6FeB3nN7I7w4XLvApmSmoKCkAGEBYYiNjoWvjy/SStKw/c3tla7CDHJD4Ur31PoGZ2osdIOlNZbuubYBmK6//nodiOff//63tjw2F4xbYUZTZvC2pgjU1ljhSqui6b5MeH43btyI+NnxCB8ZjrDiMGRlZiEtOw0l6i8yMBLt49qDPhdb9m1B5neZSAxPxPPPP2/swf3h8eQoEKy3kWXLlukhjNiFS2ibiHAVPAK66vAFzpZKQmHKlmQGNmCZdf8Ve8LV+jYw+9XwhT5q1Cg9LwiC+8IhregWaC1cWWnftm2bzjcHDe3j+qQS1I2NZmuLteCqj/iqFGG1LLMWak29jJ9Jt2jBPqZwRQwQNSwK3uVVQpmuqtbvvaLSImStyIJPoQ+uuuoqLF26VA8x0q9fPz1clKvAaLpsVFqzZk2NIXT4PueypoCWTfP9npmZqffdWBhAiM8V9qFvCBTz3bp1w+TJk3U95Oeff9b98IN6BMGvq7pXjPPLZTw21uOZZmar37C5TI/n60nClceDjQzs+0z+/vtv/Oc//9HDIAptExGugseQlZWlWzp5SVv3m+ELac+ePZX9cWyFq20/Hb482Oo5ePBgo0QQBHeGbsJ8NpgV1b1791b2RWsuGipcX1Biwj87GwXqueSjKqglajpw3jz0mDXLKZFpTivnGRFdxJ9HUilc68mZZ56prZp891H8vPvuu8aShjNs+AhtPd22dYtR0jAYQI33JuNW0HpsQndmuvfSWutsV5/aYL3g0ksv1fMUQ9ZRhVuLYcOG6ejnFO2MusxARBzPtj5wnHpPEq7srsVzxd9FVqxYgX/961+45557dF5oezSvH4sgtCDsxE/LitkyZ8IW2vq00oaHh4toFQQPghUf05OCsHGrqSw3zUH7wEBMUIJ3bFSUfknHDR2KHqecgm4nnojOxx+PjhMmoP3o0YhTFd2YAQMQpSp34d26IbRjRwTFxiJACWS/kBAtXkW0ej5l/mUojCqsM1X4WOwUX3zxBV599VW8/vrrTSJaSXBwECKaoB82hSnf5bZD0Jk2lqaytbCBmp/DxHlXYO3atbjgggt01ydawU3RWhZY9/ktiipChZfn2aFowbY2LvA5bm1pFtoeIlwFj8McqNqaE1WF77TTTtNp9uzZOEVVAplmzpxprFGFK1doBUGoP24lXJuoYi60HfI65iGjfwayemchfGo4+l3cDyOvHYnE8xLhO84XmYmZyOyTiaJIiwWT9wKvf+t7orGEhoYhICjAyNUOP5vC1J5gXLBggRbWaWlpRokFCky+25vC2krYvYifw2R2MXJVsrtlV57f6JOi0f+S/hh13Sj0nNsTGAXL+VWpOMLzBB1doq0bK3jNWLvAC20PEa5Cm+D444/XASmY6I7DaIJMPXuqB78gCB4Nhas1rm5xtUZX2cRqKtSGurz9iv1w2sjTkNghEfvS9uHvPX8jNScVE/pNwPiu4y1RtozL6MYbb8Tll1+OW2+9td7eRckpKdqV1TYxuv+hg4ftLjt69KixtQVGFZ49+5R6x5CgiGlKse1qcCicW265RQ/Bd9FFF1U+o7zKvBBUHIQ54+agQ1QH7Du2D2sOrkFhWSFOn3g6hsUN0+t5ImJxFWyRPq6Cx/H555/rPmzWMBgFXYBtKS0txTPPPGPkLDBghdn3RRAE9+f222/XbpHDhw/XeQ61wWiV7NvWXDS4j6tav0tJCToEWoYtWZKejuNffhmDr75a54XWh9UmVp6Z2A/Tdt5eWX2WW8/XtpyWwhQlJMu8yuDl44XyqHKUDi5FRYmq1qm6fWjXUPSf0B8ndj4R6/avQ9GyIh1V+IYbbtBiku9Kithnn33W+GV1w/FO+fnOQgtZQWEhuhp9FElt47iatOZwOHXB70VBxT699TkWdXHSSSfpc0prMEUrrcuM/kxr6uDJg5GRlYHlh5fjwLIDKMkuUSdYHd98bwRuDERpYSl8ynwQ4Beg+4MGBAToxCCV5nxz5purUYFj27I+16tXL51ft26dFvX1uWYFz0KEq+BxiHAVBMEaWjHefvtt7W1Bdu3apSt3HBOwuRDh2nDMoEGmQLOeOppv7HLr+bqWN9RVkRV7Cjkmc77JypRwLRxVqKc+eRZL3eHDhxHQOwBjjxuLxE6J2P6hZTicoUOH6jFCv//+e/Tp08fpoeRIuroeKaychQKsRL1n6ytcGTiNv8sa/l5WWTm1xiyzXuaozITv/kGDBhm5+tGzZw8lXAOQm5uDAwfs38/83baeHnVBd+hTTz0Vy5cv19GEOTwOn1V0ER520jAs27sMqz9ajQifCB19mRTHFMM/yR8+e3z0fWMm/lbrfG3ljsqsj5cz1CZsG5pn/cwcd9u8Hi688EK8rJ6JQttEhKvgcYhwFQTBGlqV3n//fV1hJxy/tUePHvjzzz91vjloDeHKyt2BAwfQtWtXo8Q+rFA7EmXW841dbj1fn+V8LjcECpQagq4Jyupa7mxZc8IAPllDs+Cb6QuvcotQo3U0KS0JEy6ZgDHdx2DjOxu1cJ0+fboOgkR4vClgnaUphCuPBy2LFGa2/UtnzJiBE044Aa+99hp27NhhlFpiV1x77bU6AOPFF1+shS333bdvXx1gilbkX375RY8aQAH45Zdf6kjijD5LobNq1Sodhdkafg9H3HfXpQgPLjAEXBmWrz6EL761eGhQsP7xx586Roa5j3/cMhdx0abYK8eeg+V4+bUv9DJniY+Px8CBA40c9O/n/VwxsgKRAyOxfNdy7Pp0F4YMGaJ/OykNLdVDHIVvaXxgLFv4W6zFLFNjyhyV11bGZxWn1rABki7oQttEhKvgcYhwFQTBmuuuuw4fffSRrvARVgg5zMKiRYt0vjloaeF65ZVX4o033jByQGxsrHY1NMWgtTCsryXIxBRg5tR63hXK2jIVvhU4NuQYfIp94F3krd9tFD25IbmYMHsCBnYZiG3zt2nhGq2uMfYvZf9WRq5taeF60kkn6mszKSkJq1dXFyAvvPCCHhngq6++wptvvmmUWq5n3scPPvigfj9v2rRJ75vj0NKb4qabbtLjnprClUGXnnzySdx9991a6K5cuVK7mTrLI488go4dYtSBLUd+7hF88vlvWPT7Er2MFncK4eOOm6iOs+Veuvfee5HYq7Nevyg/FSvW7MHrb7ytlzlLSEiIblCbNGmSrq/wmcVjlNsvF93GdcPqw6ux4b0N6JLQRQt5XvslkSUISA1ASFKIsRfPgufNdqgi3usNfYYJ7o8IV8HjEOEqCII18+bNw6efflopXOka2b9/fyxcuFDnm4OGCtfno6LQTT2XEuohXD/77DOcffbZRs4CK3esxJt9z0xxZ0/wOVsmVGFahKytQ7WV1Xf9hpSVd1fz/StQkaZSUQX8o/3Ra2YvDA4ZDK8QL6T9kqaFK4dboejbsGEDMjMztchzlqYQrrVB992xY8fi66+/1v13TbgfWok5XjsFHsUjr01GJ6awoRBmn1PmWc55CliO/8pxYdlgUx8XbwpX03OhoqIUL774CpYuXarzFPy9evXE2rXrtLAkFK4U0YQW2sWL/9JD2tSHESNGaAG+evVq7eZN0bZv377KPq7bj27H7iO7kfSz+sxSVYEP84JXkBd8VvrAO6v6fWud7JU5Km/o9pxvDjiWrT2RymteaJuIcBU8DhGugiBYQ2skXQfNCKoUrqwg00LTXDSVcP1LCYUpqgI8WD3DHEHXOXvWJFak6X7ojtQl0upbVt/16yprCBRVDOrDxP57tvP2ympbTlfg3377DSUxSpC1U6Kv5yDsKduDwthCeAV6aeHWoawDhnQYgh/W/4CI3RFauHJ7E/6W+rhmU+iWV9Tv91Mwxse513VI4dqtWzdUlBepmrK/tgSbwtUeFK5sDDPXZzeE+gpX9u80XbgJRTcFN4VrYEIg+nfsjy3ZW5BWnob83HygAIhMjkS7inbYuH8jAo8EIsovClOnTtUeFmYqLCysd56fWx9MEdtQ4euo7KB6XtpaXBkcqz6NJ4JnIcJV8DhEuAqCYA3v5++++64yGMu2bdt0hOH6uEjWl5YUruPGjbMbIZn95eyNa01shZjttCXKalvWEGhdthZ21lNH841dbj1f23J+N1oNmxL22bzvvvuQ1T0LuV1zEVoSisGDBqPctxyFpYUI8glCYW4htm7dikL/QsRsi9HClX2+9+zZo/fBIeHqG6E1TonQk2fNwg/qnkpNrbKKWkMBcvGll2HVyhXYvGmTUeo+PKyEa6cOcfAPCNHXY13C9R4lXHv36la5fkOE65gxY7Qbd25urrYSU7guW7YMGf0yUBBfgMjySCT2TkSJ+iutKEV4QDiys7J1Q1yZfxmit0QjMTwRzz//vLHHhsP7kOLVkbBtqTwt55ya8LriWL8U50LbRISr4HGIcBUEwRoOn/DTTz9VBj5hRX706NH45ptvdL45aEnhyuA0l1xyiZGzQGsFBZMpBK1FYUNf+45Eme18Xcut55tqOYUhf3NbwhSuxZHFKIguqAzKxMq9f4A/igqrKvwVPhUIPRSqA/lwGw6zwuuAgZD+85//GGs5R4eOHTFixEgtSo8cOWKUVofnYtYps7Wr64b11b0BGMmYljQKM0JPCEbPtRYozQnF4YA+3RAa4IWSsgps2nm4xlizdz58BwZ06g0fX0vf0bqE603/vhUjuveBr3+YzrMbwltvvaXnnWXChAn6ucRtKczoMkxX2cIYJeQiimo/v14VCDsUhm7tuzWJcHUlUlNTdf99eixw/GGeP6HtIsJV8DhEuAqCYM3555+vK4Mc4J8wIA2H4qD7cHPRksKV1p3Jkyfrih37g1E0cPqvf/1LP88ciT1H8/bKmmucRqHhmMK1vtDVkpGFCe+L+rpdUrj25jA6W7fWKlwnTZmCtNQ0bNq4wSi1cO655+Cpp57G2rVrdf7dd9/BTz/9rPuvtgSDBw/CtPEDUZi+G76B4ViTVIglSyyBl0xuvOtaDOvRC17evjr/wkvvYJVNIClrrrjxUowf0A/evpb79sefF+OTTz/T887C+4tBs0zX/xUrVtS7kYnDfHmacBUEayTagiAIguDR2Ab3YGWwqd02m4wGtCXTikroakgBa7pE33rrrbjtttv0UCFXX321tsqed955OPPMM3HKKafgxBNP1OvT1ZiBYWiRZrRlBqXhUCUUvexzR+EqotV1CSwtRce8vDqTn3Gd0P2S3gZMDekrmJOdg8KCQu3S6ojy8gq9TnpamlHiOiQnp2Dzjv1IzvHB3uQ8HDiw31hSRUnKbiTtXIQ92xfolJ+faSxxQNY+7N29uHL9I0dq7rMu+FyiWKWLMcdyNUVraEmJ3fNpnTqo5N2AZ4cguBsiXAVBEASPhsLVVni5rHC1gVXRukSjKcxt12trrrNtlZ7Z2Rh35AhGpKRgpjrnF8fG4vIOHXCRmk5Tona4Kh+tlicocUNocTWxnneWnJxs/L1saY0xWKtTodc5cuSwka/i22+/Q/fu3XHaaafp9P33P9Sxr6YlOTkZP//2Fz7/aRm++WUZ9u2rKTJffvMXPPT/vqtMW7Za+gQ74o13F1Vbf/GSFcYS57G9f838kNTUyvN7mr8/LmvfHvO6dMGF7dphSkGBPr8jVYpT84Lg6YirsOBxiKuw+0GLkRksRBCchYGHIiMjjZxjzjjjDB3kxByugmNA0lVy/vz5Ot8cNNhVWK3TTQlR6+FwTnj1VQy68kqdtweDldB6OnHiRO0ufOzYMe1Gyqkzx0dwT0xX4X4ZGVq8dj/+eO1uS2FmQus5GzZS1PW/QQnZfWFheOihh3QfU9K3b19tmW8r+Pv7qWPSTfepJRTu8fFxSEqqXmdoDY477jjt+cC+v/RyYL9bjmc7Wk3bqXPYV51fDpPD+5rwu/P8cbzenLVrsSI+Hv7qGSeuwoInI8JV8DhEuLofdFeju6Ig1Iebb75ZB+uoi9mzZ2PVqlW6kkc2btyImTNn6qBGzUVLClcO6zNjxgxd8aUlmcOkcIxOVoA5vqXgmVgL1+PVdZOuzjXHFaUrMOHwKgxk07lzZ5Tu2IFFXl5auDJYGZ+5DIbUsWPHeke/rQ90J85QQqvCcFOuD/QYoMs6G2OaCtYDzjzzDJx99jk6P2BAf9xzzz344IPma8RyFrrpz5o1S9/PvJfXrFmjx3KlcB3fsyd2q3PGe5uNE7TGUtyy8W7kyJFIWrgQvwUHi3AVPB7xIxIEwaWJiorC0KFDdV88Jkag5PiErgYbPGjJeOqpp3RAG1eH/SFZwXGlRhoOAcEASqy0TZkyRVsf4uLijKUNx9ZVmO217uIq7AxmH1dbxFW47UCByjFW+Rw6/fTTdaIbLqFFrkOHDnqevPfee7ovJYOUNadoJRTIbEDh/VffFBConqO1e8l7FDt27MDbb7+NTp064euvv9ailfBY8F7m8DQhISG6IY7n9uyzz9bLaT1mA4QgtAXkrSYIgktCYcGxNhlEhmKVAoaJIvbUU0/VZa5SMef3eP3117Ul76677mryYR3YEk/Lim3icWgIPIb8ni+99FKzWh2dhRUz/kZWxihWWQmjJYED+tOSSBdYWhcaijsFZ+J3q29d3RSuPI7EdKQS4do24Hk2zzmn6enpOnE8TBM/K6slLXQUs+yewSi2zU1uTo6+NuubaDFuamgBZh9bs39t3779mnU85/rAxgU+q3755RdtWe3Ro4cuZ4A0M4gWn1tsoOBy07IunhVCW0LeaoLHUuZdvbJaGxXqr9y7/q5MQvPASgv7INL6xmE4GA313nvv1enCCy/U61B80SrHdVsbfgdWLtgniZbMSZMmVVpdaUXkEAVM7G/Iddlqbg0rnmYZp+b6sbGxuowt8bTm2iZzHFK605nbMFlbpNu3b19ZbgoZCkOOZUrrDEUhj6U1rASZ21hXiGy/t/m7Gwsrz2PHjtXfj1aEu+++Wwtzuvjz+LGfHl3oeC00BFuLK3Eri2sd17hYXNs2PP91Xc/lhrAlFGzz5s3TybTatRV4rCjq2U2IieI+M7NlhuGpCzbesesD33H0hGHDLaFArU3E8xlp3UghCJ6MvNUEj6JI/SVFJmFz4mZs7rMZW3ptwdF2R1Gm/uyRo/72ddiHzb03Y1OfTdjefTtSwlK0kBVaDw7LQesqg+mwHyOtbybx8fG44447dOs0Xap69eplLGldKIxoHWRixePll1/WQq9bt25ahNElj6KWlsNHH31Uf3eTIUOG4IILLtB9ubgd+1xx+JLHHntMu83WBvsGv/baa3p7M/FzTDj0Ccso/mllNcUMP9/8vv/3f/+Hyy67TJcTCllzX/yuFMaEVmWKchMK3zvvvNPINQzum31PKer/+c9/arFsQgF+7bXX6jFXWTmjpagheLqrsGlRNn+jWFzbHhQ3bERioxT7cTKZ1wGfmWZAH8I+kkx8JvGec2VOO/1MXHPdDTqNnzgBwaEhuGretTrfGC8MV4T3Mc8bPXc++OCDyoZJCuwA47fymUu3cD4vzYY8PstTUlL0vCB4OvJWEzyKTepvTcwahPqEIr40HkH+Qdjeczt2eVsiCNryu9fvONTpEKLUH9dHGLC281qkqj+hdWCkRAo5vsRpZXMEx6NkKzPFTEMtcU3Jtm3b8K9//UsnWjIYDGjatGm6Hxn7lDHPoBt0I6YgfeKJJ3QLuzW0OqalpeGaa67R1uUrr7xSu4vV1meWx4H7p8A0E13NTF588UVdRgst3ctobSEff/xx5fc999xzdbAi83MWL15cua+HH35YT8ktt9yiGxLmzJmj842FQou/mcektiBLpqtwYmJitUYMZ/F04WrrKmwiwrXtsHPHDvTp00e7ja5du1YnPnPYAEivi/379hlrQj97PvroIyPn2vC+p7WRiQGeSotLKvO217u7s2TJEv28ZWC1vLw83afVZMfOndoDic9wntfVq1fr5zQb+ngcRLgKbQV5qwkeQ7n621m6E/FH4tEvth9OGHcCEsMS0Tm3M/Z61Qx1n6/+9ubuRWJ6Iob2GKrX717RHcH5wTik/oTWgZUsVridiTI8aNAgLVqbIoBPU0JhtHv3biNXEwoN/kYKTgbhoJAlLGNfJtNSwuk777xTa5/ZF154ATfccAM++eQTba2l5ZSijJbMN954o1risDC27r6ElSRzCA1ae623YSWX1k7Cda644godHOSmm25qdP84WojoikxX4LoqoXQdJ9ZBZpyFFgtb4dqUkUpbG1tXYfP6EeHaNvBW5ztYPTc2//gjuqt7/7hu3TChc2c9jVHlW37+GUElJcba0A1ifM7SFd+ZqNxCy8DnKa2nPXv21N4mJ510ki73U/d3UHo69imhOiQ6GmM7dsQY9RycoESrv3om7/j1V/gZXheC4OnIW03wGOgmfCz3GAKKArSLKfsHchpcHIzskuwa7sIF6i8nMwdBvkG6JZPr060zpCgE2epPaB3MPpPDhg3T09qgSzGxJ8ZcFX5XuvZ+9tln2jJLoUjRSZYvX66tJnTppYssXXXrEh/bt2/X0ZYpKB9//HFMmDABt99+u7ZIMBAJy8z04YcfGls5hhZeRkY2t6EFwAwCQhgYhN+bLsNc1hjM82ZrebYH72V+j4aca9OV1oTCzmUtruq71bejAoWrrfBnvq7GAMEzOKruiW1K0CQFBOCnvXvx6YYN+Fo9Fz5Zvx6/HTqE/UFB2BkVhQz1TCC0YlIc7dy50+UjoO/asQPr1q7RifdtXHw8Nqxfp/O293VLwON2yy0310gzZlhEZmNgAyGf2+y+wQZZM77AXiVit6rzu1M9s77ftQtfbd2qp59t3IjFKSk4qM7/brVOpoufS0FoCkS4Ch5DAP8qAlDiU1LpOsqKG/Mh6s9H/VkTpP5YVuZT9fLjdmVeZQhVf0LrQOsYYaCjujDdo8xt3AEK80OqMklX3XXr1mHTpk06T2hZvfHGG7UbGIc44PXIPmi1CZATTzxRB/JgkBXO0yLJKJn79+/XllRartkPmP1IOW/tRmyP+fPn63EeuQ0TxbOt4KULNIcpuvXWW42ShmFaCun+VhfmoPwNqazaugoTd3EVpoitS4Das7iKtbXtkK7EzprYWGxo106n9TExWK2EjJln4vIc471IV1M21NKd+Ndff9VlrsradWvw+6LfdPp72d84eOAA/vh9kc7X9tynFwf7xjuT2D3FWfjc4Pq2yc+v8f1t2d2EAQdTU1Nx1lln6XFcySElTNfWcX7XqeWFHuRFIgiOkDeb4DF4q78upV1Q5FeEbK9sbYHN8srS0YX7+Pcx1qoiWP0llCcgKyALeeqP62f6ZSKgPAAd1Z/QOjDiI2Glqi42b96sp84In+aEwoEBjqxh/6NFixYZueqYrpz2OHLkCBYsWKATx/SjFwADcjgiKSlJ94liYoX04osv1seFYo1BoSiGGZyF+2CeYp/f7ffffzf2YIHfn32qWJH98ssv9TZMFME//fSTsRa0mzCtu+bnNAYGjOGxo0ivi7///ltXGhtyrm2Fq0tbXBuAPYurCNe2Q5AScB1zc+tMvkYDBz07vvrqKx2giRHLG8OAgYMwfsJEDBs2HJ27dMHE4ybpvJkGDR5irNmysD88uxc4kyg8nSU2wg9Zu36rkWL8Gh+ZmI21DJjFRk1OOVwRCSspsXs+q6W8PPjU8l4RBE9B3myCR9G7rDe6pnWFr/rLVX+0wHZL7Yae6s8ew0uGo0N6B+1GTPEaVR6FHqk9oKrsxhpCS8PWZgoausDm5OQYpTWhAGOfS77sWQFrTSiEbC3EtHbSSmjCPpUUF+zDSmulPTFKd9inn3660n2PbrG00Fq76tpCdz8KVjMxuJMJBRutpW+++aZOpoWa34vfzxp+f1NQUySa2/z111+6jHDc2NNPP11beE0rcWMoURUy9gXmMTErafagoF62bJleb59VkBlnaQvC1Rr+PhGubYce6n4er+7fEerZOUtd15cnJOCarl1xcVwcpilRy/LR6lmZoO6fpqZf//4YPWYsYtq1Q6p6vjDeAPNmMrtzCHVjviMIp6bn2GB1/szze5p6N1zeoQOu79EDF8XGYkphoS4foY59bC3vCUHwFOTNJngU/uovIj8C48vGY7L6G1UyCmGFYVrI2iPUOxQxWTF6Xf4NKR6CwKJAeKk/oXVgpZvRFSnennnmGbsuw3v37tWBiFg5X7p0aaXgclUorFmhmzt3rhbj999/vx5a5osvvtCJkXrp9kZXMUZKpsWT5QzM9J///KeGyGwtaMVg31uzoYDftbEWG4ptCnMKbI4tawv71LKvLYeJoHil2K0vFK7WeJpwtRXmRIRr24HNFgVK9HSfNg0VStCsUvfMEvXc3KiEaviwYYgdOxZlvB6M5ySHzDGxnvcUpvYsw5iAjSjb9pVT6ZohWYgOav13CKOns2sIYwiwywgbCkmJOnd5QUHoM3Mm8tq3xxr1/F185AiSVHmP6dMRxnG4eW5d/D0oCE2BvNkEj4TCk31e6xKgrNzRWkE3Y4peMy+0LrS4UryyBfqtt97SkW3pPkVx87///U/Pc9mff/6pAxC5OuvXr9futWZfUVqTGeGXY6wynXzyydq6SUHFwEwcmoblHHamscKwKeF5sB6igcf+vffeM3INg0KUbssU7t99950+v9wng1c9+eSTeO6553QjBgVuQ6283LetxdXTowp7kjAX6qZL1666mwWfLZzyGUrPCj4/2Dfc2sPjuuuuq0yNHYfZFRke442e2cfQ4/BWp1KvUh9E2sQ1Mi2eTC3VCERvEj4PV65cqaf0pjHp26ePznMdNubSM4lxDFasWKEDRoWFhxtrCoJnI8JV8EjMSmpdljjzhWSuZ+ZFvLY+tKpyAHa6A/P8HDx4EIcPH9bLOM9hZJrCXVVofVjR/vbbb3XFjPceXZpZQeN5pzhmP1uOh9tQ7FkkXVXY8TfX3txWEx4zW2HeUpVtwTWIjo7WYoaeCSeccIJO5nAqdMPn8DcmbBTkNcL74o8//jBKBWtiYqJx2y036NSrZw+jtHlhvAJ6ErGhjkHyGLeA8N72Vs8reqawP+7UqVN1gDw2fhI+Nzs2YJgwQXBH5M0mtAlsK60mZrkpVG2FrNC60EWWAY44WD6FDROtlrS00k1V8BxoYWDQGJ5rNljQ+krLOgND0XrUGNy+j6uD55eJvYY2Ea5tB29eH8Y7i94FtLQyWfeNt/Yw+PHHH/UYze+++y4+//xzo9Q16d6tB/oPGKjT0GHDEZ/QvjLv7W3/Hk4vK4VfdG69UpHNLRQW5I+cvX/pFBNm6WtKCtSK/hEda6TC8sZHFWYkZIpWdolgUD1GgieMc2DtWcTuJtZxCth1QyyuQlvBS73ApYYueAyMyEpxw+E82DJJlxpWgs28LQcOHNAv8csuu0y7BNGS98MPP1TmhZaBQXc4VEtthCZOR0i3iUauaclY8Rr8IjohrM/JRonQ1FSUFiNlUePGfbWFfYMvv/xyI+eYLl266AohB/cnrBhyDFqOd9tcrH76aSxV+x8fHa3zB5WIOBoZiXnqGVMbz4aF6VBy7Y0xNxenp2OaEhkD1TPJEYxAyj5xHMOX0DOBQbrMCN2CZ8IuCIwU3i8jA2f16IGVqam6QYaRyAmtsHQ7JSOjovCuej8eUNfXTTfdpBty+K7kuNF8BzaUOeecq+6rzti0cQOWLP4TM2edgi5dLZ9PNm5Yj4f/76EG9aWNiIzAJZdergSdZX/L//4Lq1etxrxrr9e/86UXntMCz5bThhTivJH1C0R1/UeRSM+rauzp3jkBJ4/trOfX7s7BsjWW/vccc/qss87U89Zs2rRZH8/GwKFwxo4dqxvqWF9h/YQNC+PVvTyyc2dsV2KVDVI8vzx/HNKIgfQ4/mtfVV95S51//3798Pzzzxt7FATPQ5pkBY/EkYXVFlvXYNu84Dr4BrdDQLs+zZK8/YLgExRtd5mkpkq9jTPZcFhpvP76642c83h6cCaxuAoFhYVa7MTFxekpkxlEjf1brb0WaInlcFsJCQm6UUeoSZm6p3wDw3UqKauy77BR6NNPP6uR2Ne0sVCE817mkGSMLm9aw2lFZz9lwsYIWmApVk3RzvNIN3FBaAvIm03waEyHAkdCVoSrILgPvI8bElTJXnAmTxKu9lyhRbi2LTgWMl1LGYV706ZNOjEwU2RkpBY2h6ws/SynN9LQoUMbFKW7LZCZU4DDBRE6HUqpGm6NLrs81raJsRgaCz1BGEGd+7OFw4Yxqjs9Kdj3dePGjXqsc461zWdiShN8viC4A/JmEzyK+nq+i3B1Xyq8y1DmV1iZSrxzkLL/D2xf/DTW/3APNi54ELtXvYGsrG3V1mMS3BNaitgdoL7YC87kslGF+Qxz0NDmCD6vbH+fCNe2g7e6ZkLy8rD155+RGBCAsR06YJQSNGOUYG1fVITtCxYgoLTUWBs6IFNGRgZeeOEFHc3clfn+u2/wxmuv6MSIybQ8vv3m6zpfVFQV4bypYR/Szz77XKeGPHMaAl2F7777bt2FgQ0Os2fP1uX+6v4OSk/H4b//xpCoKAyPidFpTPv2CFXncfeiRfCTOovQRpA3m9CmMSt7tpbZ+gpgoeXJit+K9M4rVVqB7UXPYtGKGdiScjMSxvyM4y7ejXHnbkFYn4+xdNMcLN16IQ6GfaPXz+i0BkXBGcZeBHeCwz988sknRs553D04k60otcW2oc3dfp/QOI6EhGBLdDR2BwbiR3WPfKEE3vd79+rpr8nJ2KuW71BCKN3oN+1OMP4BgxExZaRnaIunmVdXumUlD4Ljd7OBjsKV/fLJ7ogIbFZCdYefH37Ytw/fqXP708GD+GLHDvypBO2+0FDsVOtnuuH5FYT6IsJV8GjqEqBicXVfKrxLVbWlFHt/+ggpv83HTaf1wwcPn4WLpg1FrHcI4n1DMa5nZzx67TSMiS3Clg8eRc72nSgNyEWFj7jHuQKsmJ133nn1StbDejiL20cVrgOxuLZtMpRgWRcbi01K3DBtVCJ2bXh4ZZ6Jy/Ml4KBLQ3dgunAzujqDFdJ1mLBhYn27drWe3w1qeaE0VgltAHmzCW0aEa7ujBcOLPsSgWlr8NJDp2DqmB7w9/JBSX4ZfMq8K1NUSCBuvWwc7rpyDHb+8Czyjx4wthdaGwaQYWTg8+YqUepEuvbaaysjptaHthacib9PhGvbIbi0FJ1zc2tNnVQSd1LXhlGEGVBr9erVetg3c5zysOJiu+fUOnVUyaeOhnpB8ATkzSZ4FKaF1db64MjVToSr+5J9aCsydvyOf90yGe1igo1S9oMsRbl3BSqMUx4UYOnLOHFMF5x/ej8kLX0PFTZCRmg91qxeg6lTpjiVPv24/m7CxLS4Vviq54O6LsTiKngSPTMzMfbIEQxLTcVMX19c2qEDruraFRe3b49p6toYmpKC0UePooMx7qfgmnAIPvO+5f1sRhIenJamz+9wNT0tMBBXdO6Ma3v2xAWxsZhcVKTP7wh17mOtxu0VBE9F3mxCm0aEq+vBoDl0ITWTo0aHA6u/wBkz+qJLQhTKS31RXuKHvBJv7A0sxNH2pTjSPg+Z4YUICK4KwnPeGYMQ5puL5G2LjBKhLVAaXorCIYU4NvQYMgdnAp3Vve7roq8/JartX/GOsWdRFuHadihXz8h8JXJ6nngiSpVgXXXsGP5SQnVdTg5CBg9G/PjxKLG6Hjor4WNiPd8QGM12//59KCoqRERkJAoLC3TeTHR9FZyD4zDfeeeduO6663DLLbdUBmfiucsLDkafmTORHReHFenp+OPgQexR5737tGmIGD5cPzd0EgQPR95sQpvGVqiaIqktC1dWelkR5jAJhYWFOjgGA2LQhYljATIcf0pKiq6Q0JWJ7k179+7Fnj17dBh/Rn7cunWrHo6BYfvXrVunXZ84ED4HS1+6dCmWLFmiI1suWrQICxcu1POnnHKK7sN444034qqrrsLVV1+tE1/iF198Mc4YFYmTov7GyVHLMDNqCR6bdgNOCLgRBxZPwMEl45D09wgs2xOrVMogdC6bjI4VU1EcFYe0sOoD0Y8f2Rkp25cYOcEVKQ8rR9CJwQidHlot7Wq3C1n9shAwOUCnndE78W3qt7Wmj9I+QtnwMpSHlsOn0MdicR1SgcwwJWDdBQeNNyZicRW6d++un8t8DnNIHEbFzcvLw86dO3VjYLtY9Ww0uOaaazBv3jyd7rjjDqO0Yfz5x+/44rNPsfjPP5Gs3gk/fP+9zptp0W+/GmsKdZGUlKTHZl21apV+/3LYIpO+ffrod+tBJVj5HmZwKr6DOX4sz31YeLixpiB4Nl6qkurWTTQMU27b2uyIqKgohISEGDnBE6GQ+l69OC+55BJtrTPzl156aaXbjTUUZe+//z5OPfVUHfTFNt+UsHJpJl6z1tOWKHNmHTM1FFaWzURXTOupM/ONKTvkfwg7AnYgoTxBl7ESt37zevj224ThPiEIKrcEJlm0dw+ev+MATjj/Z50nyQvug39MIqKGX2yUCE1NRWkRDnx6iZGzwMiZjzz8CC658EKjxEJph1KMuWM8IssjjZKGkxaehi+e/gI9w3rqz+Mrb822Nfj3w//GvcfdCz/11xysfvppLL39doyPjtb5gwUFOKo+f57VeJr2eFa9o3qp6zdePb/I4vR0TH/rLQxQzzRHPPTQQ3jssccwevRond+3b59+/rEBSfBc1q9fj/vuuw8D1DVyZmIiViQna5E6YMAAvTxciZnFixfr+ZGq/vO+qi/tCwvDiSeeiN69e2txxPFHv/rqK71Oc2CK6Y4dOxolzhMRGYF+/fojLMwiysLCQrFn9x7ExsXp/A4l5MrLa9b/ThtSiPNGVm+wrIvrP4pEel7rN/YEBgZi4MCBWqRaIicDY9UxnKjO78a0NP2u47ljQ1W7du30+WXdtktxMd5Vgta/Xz88//zzejtB8ETcXrgyUAdf0s7AB+dbqgIwffp0o0TwNNga+cMPP1QK1bqEK8POv/fee/oFT9FKwcMWz169eiE4OLiaqKtL8NVV1lD4grIn1Ooqc1TenGWtyXr1d0T9xao/E577vI4bMSxMiaQyy1ABiw/ux+Pz1mLGFct1nohwbX7qK1wn3jIZscVV57KhHIw9iM/++xl6tOuhK3ilpaVYv1FV+J+7D/8Y8w+Eqb/moCWF64MPPoj/9//+H0aNGqXz9IDg82vz5s06L3gmpnAdnJmJ2d27Y5USOHxf9OjRQy+PVtcePV3I2NhYvH3ggBauhAKXz+1iJXiak8YK10suvRxdu1oCsi3/+y+sXrUa8669Xr9vXnrhOf2+tmX24EKcM7x+wvWWT1tfuLI+S0s5x9ilgO3Zs6e+h6fm5SFR1VGSCgv1OeN6PM+x6pzSi4nHYpwS8y+ourAIV8HTaVPC1YSuiGyd5otd8CwaKlyt4QuBFVy+2K1FGafW89ZljsqboozfR3CM2Tiwu3w3Nqm/+LJ4nT98+DA2bNlQw+L6+74kPHf7frG4tjCtZXFNj0jHwo8XonRnqa48040yszgTb3/4NubEzvEIi+v999+PJ554oppwDQ0NxcaNG3Ve8EysLa5n9OqFlbUI11ExMXhPvQ9N4cr+kx06dNDdQD744ANd1hy0hnAlI0eOxODBg41c7Xz22WdaMLY2U6ZMwdixY7UrMIUru+FwXNdxqakY1aULtqvvyDqBrXBlXbavnx/eUuuJcBU8nTYpXEnfvn21S+iIESOMEsETsBWutnlbtmzZovtb2sLroi1fG/Ysxq5YxmRS4luCpLgkFPsUI7A4EOVe5ciP2YkhncrRpSiyMuDNC7+swIovEzB6+ktGiQjXlqA+wpV9XIPHhsK7vLoFZOasmdirnvcc75BMmzYNEydO1POOyPPKw5KjS/Dh/z5E2s40BEUE4fo7r8cNk25AV/XXXDRUuD6jKqGJvr71Eq4UL0+rz2NlnbCvXEREhBY2gudiLVxP7tQJu0tLEaaEKV1ICa2p7OPKfERaGr4vLNTClZa8c889F99++63uJ5mqBE9z0VrClc8GBjtyhueee05bOVubMWPGYNKkSfjyyy91vAgTRoSe1KePdhVmo3onda4JjwFjSCQmJqJw82Z8p8pEuAqeTpsVroQWNbZU33XXXXpecH/qK1wZBGHNmjVGrgr2EXL2pecsvNUaIs5ao6yh2FqLzWldZeTHH3/U43qypZnfgffksGHD9Dlkq7Jf3GD4tx+M8govnbYmPYd+vUtw4sge8FIiVakc7ElNx+biI8gPKFQHvARD4qMxKCIePsbYOHzaXfnk14j2uQndulygy4gI1+anPsLVEXf9619YuXqVvh4Ix4C9/PLL9XxtHFN/W8u2YvvR7egQ3QH9g/qjo/pTV6GxRtPTlML1xLffRv+LHV+b99xzD5599tlqwpUV3LVr1+q84JlYC9dEJUr7nnSS7hvJbi8mptDZoZ6v65WApXClJZLRhOl9sH//fm3Zay4aK1xpVQzwt9wLHC6G/XJNsrPZB9R+FdYdhasj9FBG6l3ZefRoLWit39G0mrOxYu/ChVgRHy/CVfB42rRwNRk3bpwe7Llr1+ZrfRdaBr6AKYBshetll12mX3q2MFLuxx9/bOSqYIs0Xe1sBV1tYq+usobeanQJclYAtnZZQ2FFi/ehCa3dtAi88cYbuiJGIoech/D+p+l5sg8fYfeyR/HsbSejY4IleMf6LSlISc3T47h6KbE6ekgHREZYKj3ko6824eNNRzBh5AcIyu9glIpwbQlaU7ialKg/X/XnVe8BZ+pPSwpXNr6++OKLlV4iFAq0sjGat+C5VPZxTUvDQHWd5Kt3Fq1vDELJdw6fyXQ7pYdCSFER/k5IqHQVbikoXPkdyhvw/gtR90KC+s723t11wfe/swYJdhlylapwvBKf119/vbaEM+o+A6xNPHwYXXJyUBgejl7q/Pqp38Xvy99Ha/l+Ve8JVIL+L3WsRLgKno4IVwNWoBi46fTTTzdKBHfEFK6mUK1LuBL2AbK2TPBlQDe7+oo2Z8ucWcd6vi30cTWFKytc7IPOys67776rA+mY2ArXYx3XY/eaN+C9cwWeevAkhIcF4O81h5GTU+U6NmlcFwT4W4JGLVt1AI8+vwy9Lr4RHctOQWBOvC4nIlybH0fC9aeffkJKcopRUjuRUZH45z//2WDh2pK0pHDlMXnllVcwnOM5KihcWQHmUBmC52IK15jCQnTMzdXjuWrUlO+xUivrpLeq6u1R77XcBojAxkABbW0lrS8UoG0lzgNHMjjppJO0NZzDyX3zzTf6+CXk5SFWPT+qnV9VP7B+P6rKPHZGRSGue3cRroJHI8LVhhtuuEFHZ6S7ouB+NES4Er4AGMwnLi5Ozn0rYApX9lek1YhWahM+ol577TUE9zvLRriuQ7F/Jvb9/AmKD/6NS+cO02K/tNTiRuXt440TJnRBTm4xPv56E75blITeU29E8KBOiDo8RIRrC+NIuHIM3/rAsSdFuFaHY3HyHjGFKy1sdCE0j5PgmZjCVfAMWEehazSDLdEbrCF9j7t06SLCVfBoWjf2twvCG378+PE6oIHgfti2w5j5ulps2TrNB76I1taFgbKeeeYZfR+a6YUXXrA7ZINXua86r97oNmMuoo+fixd/2Iovlm5CUl4GkstycKjgGO577TdcdP8X+P2wN/pfeBfC+vaCb3EIvMpa1uogOKYgP18LLWdS5rFjxlYeTAPakmmVsX3G0VtDaBsEl5aic25uramTSn7qOhFcF1qm2YDOfqzWojVMvf/snVPrRIu7j3vboQTBKeTNZge6jbLlev78+UaJIAiuRkRyP8QcGKVTH/8bcfzonxDr9yi2/DIJf33QEys+G4SipAsxYeBnGN/nPXTKPlWvG31wOALyLVYwofVZs2YtTpo6zan02aefGVs1jGL1V+EgmEtzkVxUhH1KnJc2UDTob1tHwxuFqzVssBPh2nbonpWFsUeOYJgSO7P8/HB5p064rlcvXNy+PaaVlWFYSgpGHT2K9uo6JLNmzcJVV11VmQTXgG7R9BoibIgyG9LZh5nnd7ianh4cjCs7d8b1iYm4KC4OU5So5fkdoRLdiQXB02lWV2FGafv999+NXPNw2223NamrsC1XXHGFjtYoY766B4yQyD5zdB+kFdV0HTbzgmtiG5zJHrZ9XJsScRVuflozOFOG+ttWuhmHD2+DT0E5OmXHITY3HBUFRShVwrLMTIWFVXmbeU7rXGY1X5yTo/PW+IeF4cY6xot8JigIiUp8mK7Cf6an46R33kH/iy7SeXvcdNNNejzqoUOH6jwtNt27d8eff/6p84JnYroK91N1rZ7quup94okoVNccu8hwmBjWWzimK91OU5Ytw9p27XBAXYNs1ODzdvr06UhOTsZLL1UNDSa0HhzHlUPiMNozRSvHoecYs4wqHFtejsEnnYQ0JV5pjWV3Gsbi6N27t/YQzFq9WqIKC22CZhWufHgyKmhzwoBKzSlcCYdGYdThQYMGGSWCq2IrXG3zgmsiwtXzqY9wLQ8vR8jYUPhUVLcazjh5Jvbu36eDD5GpJ0zF+Anj9bwjOI7r5qOLkfHfD+G95xjK/IGiMCBhAxBl9erw8fLSLki0dHgb85zS1mmdt16Hy7iduQ5tJXqZmh4rKUGajYs717tBiQj/cEsUbHs0RLgyCik9hEzhyopsr169mr3hWGhdrIXr1Oho5MTE6PoQo+QSWvAoXilu8tS6C9S1SeE6Z84cHQCP/aAZ14GN80Lrw+5KPDfLly/XsR5+/fVXbN68WQvX49Q53FtUpCM0831JaJ0NV88Svjs53NFCJXZFuAqejghXJwlQlYj//e9/uoJg25dIcB0cCVdazk0XHMH1aIhw3fHri8hN2W3k6s/AU++Bf4jFZViEa/NTH+Fa2qEUY+4Yj8jySKOk4aRHpCP0wwXotCUfnVix8/ZGcVAFSgK8MGKZHwJKm+d5viE7Gxl2+mbP/vRT9FaVU0c0RLhee+21elivIUOG6DyFK8XKb7/9pvOCZ2ItXM9JTMTfSuDQmsrGdsIh3ZYtW6brLMMjIvCeWk7hKrgurGv2U+Jzx44dlQJ1bEqKFq4bUlP1uaQVnec5JiZGe59w6KuOBQV4V4laEa6Cp8OGYcEJ6HbDYTpmz56tWyoF16QZ22EEFyN993Ic3vBjg1NpsfQHcmX8Sv0QXBjc6ORT7oXgvdmI9fdHqK+vFq4hxT4oDwTKmjEWW6D6HHvEDxtmzDUd9vq4SkNd24HWfjMSO889BQ+TOVwKy6w9js4880w99N9xxx2Hq6++2igVWhs2NnEMeo5dy3t64MCBupzDxOXl5el5CleeT+t7nlbYsFq8OATBkxDhWk++//57DB48GD///LNRIghCaxDbeyI6DT+9wcnXX/qtuzIlviXID1QV8EamMm9Vke8RgZSiIuSpyn2+Sul+JSjOL0NedglSi4v1sqOFhTjC/oEFBdivEgMq7VFpt6ow7lRpR24utuXkYItKm7KztUV1fVYW1qq0OjMTK1XlcYVKf2dk4C+VuE9bovv1Q0TPnkbOPg1pfLONKsx9SHCmtkO5Ot91XTfWQ4xx7HLWY6ZOnYqlS5capUJrQ9dtuvfTZZjW8r59++pyNkLU1hBFl3DTOisIno64CjcCBoZ65JFHtGuH4BrwWmCjgukabOavvPJKqci5MHzpSh9Xz6ZefVzDyhE8NhTe5dXv2ZmzZmHv3r1VfVxVxZtWo9rQfVxT/kLq/5sP7x2pKPUHikOBhPVA1H5jJSX6fAMD4aOe5UzW87b5+qyXe+QINr/9NkqU6O07dy6Of+opqAeR8aH2eVpt11tVRK1dhWe8+y761RLAis+7r776SosRsn37du02zMB0gudi7So8MyEBO0tKtPsoE6FY3bJli77Poo8dw3dF6h4MC8Po0aP1thxmbOzYsdqdWGh9Ro0apT36Jk+erM/ZmjVr9BBx7OM6MTERm9V55rnt1KmTXp+ClY0QDMRWvHUrflDPFnEVFjwdEa6NhMEw3nnnncoKg9A60OLAS5mVWgY0GDZsmI6kyKh7HN6oPsL1l19+wauvvoo+ffrg3nvvRVBQkLFEaC5EuHo+rRlV+Jj621m+HYeTdyKgwg89vHuhs29X+AUGaZHpTTdKK4tla9IQ4XrZZZfh22+/rQwguG3bNj2kGz2EBM/FWrgm5uWh9/TputHCetxrWu46d+6MpAULsMaIKnz88cfr8sWLFyM2NlbGrXdBTA8K1msoXDv4+CBuyJAa9V0K2ejoaOz/7TeJKiy0CZpVuKarFy5FRHPyz3/+s1WFK6Fl74YbbsA//vEP5OTk6ChvYerlwH4JjbHysbKVov5y1V+Y+otTf5Hqzxko5EwxZz21LW/pZQ3ZxplldeGscGW/n6+//trIWaBwNc+pdbItqyvPROu8tUufYKEhwrXcpwRlflXuUSWFOUjZ9gcy9q1GUU46vHz8EBTZHu16jUNsz7Hw8jb7eHnBtyhUPfyqrgcRrs1PawpXkxL156v+LHGAXZOGCNdLLrlEi1Rr4Tpy5EgtZgXPxRSuA9Q1MiQtDXmqztGrZ089lEqZejey7yvrJElJSQguKcGy9u21cOXwSbTUMeIwo0+/8sorxh6F1oR1SbM/Kxsb2AD/5ZdfYuLhw+iizmOhOne0rpp1GV8/P2QeO6aH/QsoLcVfCQkiXAWPp1mFa0vQrVu3VheujqBAYaumtYixFjO2ZdbL8hPysS1xG1J2paDsWBnKvMoQqirbvdN7I6AkoNFCrr7wQWkm/i57802xrCHbWM9z3LONGzca37qKU089Fe3VS7s2+HJntD5b+HLv2LGjdrtisAtOzWSdt553dA781IvGPMe259xe3l6ZmecLjr/bE2iIcM1M2ISi0BR1rMtxdPOvOLLpZyS088fIwR0QHhYIbx/g4KFsrNl0BHmloeg6ag4iOjLYhRcikvshMCfesiOFCNfmx5FwpSs/xyZ0BnpQ3HHHHQ0Wru5AQ4TrhWoZj6MZzGXr1q16PEjbRjjBszCFa1RhITrn5qp6QtX7gCKI7yITb/VO2q3un3z1DuI9w+uFU4rce+65x1hLaE1Yz5g0aZKuq9DNn/czx3FNUO/HdiqVG+fXrO9Yn18u2aWep3FK2IpwFTwZEa4uSug5objqtqsQlR6l+zMwIuCxgGNIKElA76LeNYSbbb4plzG5C3R9YqXNFrp0s19Pbbzwwgvacm4LxeaECROMnHOYApbJWbHraJ6NEfbgeWHDSH3ErqM8U2uOc9sQ4ZrVfjMKA1Kx+/PXEVWRhAvnDMWYYR3g5V3zev1h4U68+v5qJIw4B7FTJiA8uS+CshOMpSJcWwJHwvWPP/4wcs4xb948zxauSrD2Vqk+wvX888/HwoULK4dB4TNw/Pjx+OKLL3Re8ExM4Vpf+O5g1Y99JDktKSkxlgiuAIMzsb6yadMm7T1RH7itCFfBkxHh6or4AzFXxeCK6Vdg2nHTdP8Fkq/+itXfFPXno4e6FwgvYdPSzAf9ihUrjCVVzJw5szKggSPo1j5t2jQjVwUtmwya0Frwt5ki1lbUOjNvm3cEXaKthawzYtfROvV1iW6ocN22+mkklh7AxNFd1W8sR2xMMIb0j7MrXvcdzMLtD/yM+Nnno3vIRSJcWxhHwvXHH37U8RCcgf3x7rr7rrYnXN97D/0uuEDn7TF37lw9ZqspXBmQh0GraK0RPBdTuAar53tMQR3De6nn8dHgYJR4N7z7kjPwfdnTJnJ2RkZGpfurNUePHtXltuuzm9nhw4crXd9NOCwh+/D279+/WkMr35F89ycmJtaIScFyDi9jBqwyYYA3elPZemLR7ZbY+66ZmZmVkX5NcnNzK4PFNRelQaUoDbEMbeQQVZMPOBaArp26inAVPBoRrq6I0qShl4bimlOvweiBoyvdV9nXtUL9TVZ/tfXRshZynJrJOu9omW15bcus8029zNltOM9UGxRS5513npFzDCMr0kphC12urBNfmPWZt87Tit2a8Fg5ErS1iV1H846OPX+vtZA1kyPxS6H70EMP6eNjHifreWIrXPeXfoLkbf/DJVOHqe9UZZVu1y4IfQfEwMfLG/4V1Rt4/li2F098vxYTxs1HaFGiUSrCtSVwhT6uRerPT/2pq8socT0aIlzPOeccbblmhZ5QuDIy6SeffKLzgmdi3cd1gBKHReq5yyFV4hmkR10/BUrMHjp4EGlqua96Xq9kH9fQUGPr5oEWPwYLs4bfk+LujDPOMEosLFq0CPv379d9tK1ZvXo1fvjhhxrW5NTUVLz44os6tom1QKWgfeyxx7Q3hq0QffTRR3X0cVuPq3fffVe75nKZNXSvZ93C3nelCOZ4/tbs2rULH3zwgZFrHHTbpvWb71Y2/PI3slE3o28GCtoVwL/MX4tznl8uo5Dm5+uuFqpKGLU9ConhiSJcHcL6CuuMbMBn/ZH1BtZjOGXeutw272i9usptpzXXq5ovR17eGnXO1+r5wMA+6n56TtWBmnHAcTdEhKurcjxw/XPXI3JXJMJDw9WlXaZdhTtmdkRsdmw1AWdOnRVyDYHigQ9SU1BYzzu7rCHbNGQZjwNfMGwJpeh31lr64Ycf4gJVOWSEaEYkZmRGtvoywjBfjAxyYabs7Oxa8/wO9uD3q6/YrW2+tTEFrJmcEbvW89Z5R8eM8Nz6BoTCP1QJ0oAQ+KmUlb8N7TsCHdvx/qiAf6ASudFeKO5ehuAOfkjsFY0hXeLRqSS8moC97ZWfUJp+Fvr0vdkoEeHaErSmcE1Xf9srtuBY6R51LfiiOzqjY0UHJV95XZjdIUwxa3mO6JqgLjOXVyUvL0t5VZ7TqjLH+2OqnYYI1zlz5uhuEqZw3bx5M0444QR89NFHOt880ALUet0LhCrhyqjCPdU7qO+MGfq9Rw8GCiA2CNKaSfFzZMkSrDWiClMg8f3B6/LBBx/E7bffbuyx8YhwbThTpkzRjecUpDxHPDb0mshMzFSqFJg9YTZ2Z+7G3qIkePkXIt4vFqMThuPQrv3YcHQdIvaGoXtYV9x7L/ssWwsli0ByJJxqlttO67u9Je/8NvXdt+PPrGu91qFC3Wvm1FI/11NVV7cur6jwQmmZv15u4uMTg969vzFyAhHh6qrEAU9uexI5JTkozCyEj7cPYopjMLJ4JELVn61YszffFMvMaVuAL7j//Oc/elw7wpc/KwFHjhzReWfhLcWKgrWQtRW29soc5a2HNrCG58YUsGZyRuxaz1vnub/WhMetvmK32nxAGUpGlqBMvaDKj6kXlLps+58Yi3mXjkRiSTTlhP6c+X9vxLcvl2HiqVXWKBGuzU99hGt5eDlCx4fD2yryMznxpBOxT1XmkvYm6byu6I2r6SVhDcdxTfJdgdj8ZQgrLUCJqiDkeZejd1EwOpZYxGHLwuvQsbj9YdAi9AkMqSZch/6/Ieh0Krs6WNap2t6yj+uvX6bEQRn69eun8hbhOnZsMJ5+emLlOpbbm59nbl/12bb7I9XFedX3KylJVkJhr5ov1+vExt6AmJhzVV5oaayF69ToaOTExGhXWrPPKsUP4yDQSpe/YQMWqHNI4Tpr1iy0UyKWMHLtLbfcouebAhGuDYfuyfSeYMRnDmfFAFrsr07hOuyEYTiUcghl8dsxLbEcYf5eKFDPsYBybwwpDEOgzZjXjcMipCzPDENsqX8W0WWRDOZ8tXUUleXOrmeW6/WdWM8st7t+Lduof1XltaynsKzvoLzG+kZer29/PWc5mNwXOXmWroHWJCZ+peppsUZOEOHqwmzbvg3xveNRqP6C1F+4+jMr30LTw5ceXesYyInwhcR+sa09ODuFq62YdTZvW8b+RI5gA0VjhK/1fGs0dhS2L0Rejzz4p1kCjvB379m7B6f/sw/mDhmEMKMlc3XqYTx45WqcdEnVebUVrjFhvhjcNQSLNmXp/KT+4QgJ8MGm/fk4kF6ky6YMiMDvmy3LrRnXOwxRIb7YfqQAu48WYmLfcAT4eSGnoAwrduUiPtIPI3qEoqikHL9uzMKQbiFYv9dyXoaq+XVqvl24H9qr9fh5ZHyfMEQEq30eLsCe5EJdZo9TR0bjp3XHUFxaobcfrj6nsLgcvxm/o1ucRQztTbH8Bmt6tg9EeJAP1iblqe/rjWmDIvSLd8GGLP1dzxnXDum5Jdh5pFD/logQH72fQLVu19gA/d2sjwmP4djEMJSUVWDB+kyU10O4lnYoxZg7xiOy3Lnhv2ojPTIdY7rvRt/AXLSLOqieoOVgb8BC9dsmlalrtqL6M5Wt3hYYwMacrVqnajmxWsd4Nte9vGqe6PUrs154MyFFfdcwxFkJ1+NeCEfPOayo29/fhZdkYO26iErhygr2lEn5eOmFGKPaZP15/N/MO/n9DMorfJCdy76CVWWkW7fXlJCwWHuFlsNauJ6jxOnfR4/qYILmO4yilYKLjQ4j1L327pEjWriasPy0007DV199ZZQ0HhGujYMBsziGPPdLV2+S3Scbg6cPxs681Zg7LBvxQdkIDT6mzl85kr0r0LPcC73L2Phk3O12BZZNubrRa5Zb8kLrsO/wAOQXRhi5KuT5Wp2Wr10KTlOQX6DHbW2v/iLUn4jW5mXv3r26hdqksLBQN4y0NnyRMbAEvwvdmBnheMaMGTj77LNxxRVX6NZyvuAff/xxvPzyy/ol+s033+gX7apVq7Bjxw5tNab1uLS0VLshMQAF+8EtX74cCxYs0NFH33rrLTz55JP497//rV/OHGLjlFNOwcSJE7ULIvtOMZgFKwkMVMFohxx6aO3atfpzuK+//voLf/75p+5vx3m6dLL1mOts2LBBW4K4HV/KHH6IlRa6YycnJ+t+OvxuFNi0WFOw05LqLOUB5fQM0rBCxqFTfL19sWvHMZRUVA9sUVrkWMDzLhvdKwwBvpb7LSLYB2Vq1z+uPYaBXYJ1ma+PF6YqYUeBZ8uWg/n4Qa3bp4OlYkXRSoFK0UqGdw/Fj2uOIT2nFAmR/ohWItff+CyKTTJYfU73WMu1yM+gOOTnp+c4jv7J7xamhKe3EZhqmPE5WflliIuw7Ld/x2Aktq+q8JmEBPqgS7sARIdaXD9ZsVmwIVML9zGJlj5xmfml+nfsTyvS832N3zegczBSs0v0NlMGhGvxS0b2DMUP6vP/3pFjOaj1xK/UD8GFwY1OPhXeiPMtQXhohjrOhfDzLUaoSuVMfgUI8M+vlgID8oyUiyAldnUKyKlMwYHZVikLIUFmytSJFcqqlIGwEDOl6xQeypRWmSLCUhERaqYU49dboSqYIcFZiAo/qtIRREeY6bBOMZGH1fVYqK95EzbcBAXmK6F+ALE67a9McdFM+4y0F/ExZkrSqX07pj2VKSF2d2Xi77R3MlNTXzbmhNaA47Waz0o+4xkMiYnPfMLrgQ2KJrSyMs9rxtnAaELzw8BPfKd37dpV5/m+J4wFkZGbgejIIoSo5xkb4PgsCvTPQ4RvPvLVlM8p89lleZYVwF893/z9+Mwr0snXp1ilEvh4q+RTqt4VZTpRALct0coGO3Yr81aJw0b5qne8L0rL/LSrbkkpU4BKgSguYQpCUbGq+6hUWBSiUigKisJ0yi8M12Izr4ApErn5UTrRcpqTF6Mb+rJz2yErJxZZuXHIzGGKx7Hs9jplZCWo1AHpmR3UebHnysy+ztUDgrV1xOLqwixZsqTew7AIDYcvDYoyU6xSjHF4HLbYCjXho4MtwvYsu87kbct47O3BypUz1uCKjhUoG1wG/3R/VZHz1uL3aPpRHHdVN0xt1x2je1uGyll66AAev2Ezpl/0p/EJ9l2FTxwSiV/WZ6JdmC+6KhG5ek9uZdkgJRJ91L6oEdck1RTBQf7eOK5fuF539shoFBSXY8uBfBw+Vly5DwrbwpJynShgdycXYkjXECzZlo0ZQ6PAQGw/r1NiSIlKWmL/UuV1MaFvuP6etLKan9O/UzCyC0pxML0YM4dFoaTcYgG1B8U4xanJKCU+D2UU6+999bR47DxaqL8HLbr8jrTuTlefw/31iA/UlmYK9aXbc2rsqz6uwqbFNaKiZutzfUmPSMfIrnswMCQPUWFH1bVSgnx13orV9TupzBvq6xqY1oeqeQum5YLYrGOsVr3SV8v6TvBUmHoWWVtc09Iw422g31ydtcus09V1uK59ZcRTNijNnpmOt17T2SaDla4jqb2MXBXBwSNUZftZIye0FNYW17N69MDK1FR1rXlVBnTkiARsOCQjo6IqLa69e/fWLqmEjZxsVLSFQpgWxvrCZ/W7r1yIl99chi3bkvHl/EtxxvlvISs7H088cjp++2MnFv6+C5+8fSFuvfsr7E5Kw923T8fR5BzM/3QtXn76LLzy5lIsXb4Hzz4+B7/8tgOLFu/CZ+9ejOvv+AJ7klLw77tOxr79x/DJl+vx+nNn47lX/sLfK3djzunDMGZkV/z74Z9x2w2TkZySg9ff+QuTJiTikvNH4YY7vsRFc0cgOioYjz+9EL17xeHxh07F3Mvex4xpfTB+TFfc+e9v9e/46Yt5uObWz5XQ88aTj5yK0857Qx+T+W9cgqde/BNJezPwxQeXYOac19T7y+IZ4yx87pni1Bp2fWAjM6eff/65nrKPa07fHPSc0BPJXptx/uA8tA8/itCQY2zTQop6tnRSAmxAuUWMqaeNLrdMLQ8ii1eH1XyNdexso+ar5R2tZ5brXH3Wt+Rtlznajt/fej1761Qrt7u+Jd+ymN0y2N2CjUdsMLLOc8q8jxLRueoa43ve8j35v69fe/Tq9bnOCxZEuLow7N9w4oknGjmhOeFtQGsiryfT1YgNBxzb9eqrr9Z5ofmgyGTfYrpocQgE9r+ikGWiZZYpIGEofCN7oLQoF6WFudi/5wskJkYgsMwXBXlKjBSWIqdXEQpDS1GcoQRssA/6TY3FsE4dEJ0ZVDlUzku/rsLfX8ZgzLTXjU+vv3CdMTRSi0qKNuZtoaj7fUuWFpCDuwZjy8ECnDIiCl+tyKghXPelFuEktb/cwnJs2JeH/KJynKBEX0pWCZIzi5GjyptCuB7LLdVWUFqP1yTl6s+xxVpsUpSfMiIa36zK0Pnh3UOw5VABpvSP0IJ1khLmq5VopxszhSt/w8INWThhYIS21jZGuJaHlSNoFK2lVVYiMmv2bN2/dfeu3TrP5yMH7K+NfK987PReifDcPxBWkq37uOZ7l6FvUQgSWqWPq4UqsWuZmuL2+4Er0C8otJpwHfK/Hug82xzOo+qVbe7jiit3YufOEO1iSChEpp7ghcce66JyNde3YAhsmyqA/e9FLMFDCorCa1QAO3d+BKGhk42c0FJYC9eZCQnYWVKi7ylGnSWlpaXas4Zl0ceO4Tv1PKVwpWjls5VeRXSXffPNN/X61lCkrVu3zsjVj9++uxGREUFITcvFwP4J6DfyYWTnFOKD1y/G0MGdsGtPKkYO64Kps5/Hth3J+N/Dp+O0WYOwfuNhjBvdDRde9S4W/bkTH799GQb0a4+kfRkYPqQTJkx/Cnv3Z+Dpx87CzJP6Y8OmQ2r97phz0RtYtmKvEqWj8Mj9s5XoTcLYUd3w5PO/4ZmX/sC0KX3wjhLTLB+mPv/zb9Yrgfq12ncCfvnqOqxcs1+L2FVr9+Piq9/Tv2Hnuvtw5Gg2fJRwjQgPxMAxlgbsP3+6GUGBfsjMKkD/vu3RY/CD6ljWMVSNDVFRUZWNC9aMHDkSKSkp+pnGRge6TNNziX1cB08ejJ1HdiJxVDbGRuXpBrc89RyjnX1IQRjCyqs/KxuOKaSqBFWVwLIWWrZ5x4KsrvLq6zDR86dqvap5TpvmM6vKbae269nfrvZtrMurPytrIzX1VeTmvIjO8VtRWu6nLba5BVPQvfs7xhoCEeHqwtB907afhdA80PWVY73RNYduOWy1pnCVxoOWgcK1vuO4rtx8Awb0ScI/zqnySij1KkeKbx7SlFjZm5SFsiMVCMn3Vw86y/LY2BA8/e1SxAbfgm4dz7cUKuorXK+eHo9tSoz27RSEVxckG1tYoLvu6F6h1UQbMYWcPeFKIUx+UmK4b8cgDFMikcLVz8cLi7flNIlw7RwTgNhwP61TUnNKLC68NliLTe6L/VbTsqu7J5v7ZZ9b9v09mF6k+8VecUK8qlgVaJfll34+qsV3Q4WrIxoaVThT/e3EdqSX7tMRprujEzpUqMq9vi74H0W8GZHdkizRKKvyXMfytqwqt6xvmzfL1JzNPqrn7e/vrbjT0TcwqJpwPe7Vm9FzznEO9gecffZj2LYtrZpwnTlzIJ58ktezuT4/r2rbqu1t88RSXv33MHhaFnJzl6jnI5dZRC1FbM+eH8Hfv/q4l0LzYy1cE/Py0Hv6dN01xNp7he8zitO9CxdijRFVmO83y7nlOayat8aecGX/WTOoU21MGt8NoaFVjUILFu1CSUkZRo/ohHYxIUYpsHjpXuTkFmHwgPbo1LHKu2LlmoNK9ObVWP/3xXuQX1BSY/2/V+5HxrECdOkUoYRyVR/XHbvSlEhOR5x67o8cVjWO+/4Dmdi0NRnhYQGYOK6qO1BKaq4Sr4f0/Ikn9IKvLwUI40yUYuHvlsYy29/208IdKC+vefxM2A3GNmK+I+HKc8FI0CbsLsNtKVz94vwwstdIrEtZB+/4XAQHlcK3xA89yjsj1r8dlietREhSGDqHdMG//nWf2pc9EWWbtxVbFFnOCy2haUlJeRl5uS+je8f1Op96rIsSrico4fqWzgsWRLi6KurZ8fLHL2Py2ZP1+K1h6i9e/bHPa0PgaeYDkC8jM9nmm7rMnfbPvpXse2m+xDmIOgMZMUIj3aqE5qUhwjU5eBFW/3wz/nPpJIwY0sEoraJCVSbWbUlBWnqVG1dmdgE+3HAU40a9jeDcqopMbcKVbr8MOsQARxR2FJB06V2xOxfDlKDcocQa+6uazB4RjZ/XWwIkEQrRXUcLMWt4FL5emaFF6uKt2RiTGKbdjDPzSjFKCd0OUf6Vy//Ykq3lAq2bCzdk4mS17c/rjqGbEtD8PEdYC1fu50/1OQwWtUp91/F9wrHICJxEN2Z77sKmcGUf3pPU7/9+zTFjiaUvK92ZTYsrufesTnj860O6j91xSsTydyW2D0Rmfhl6JwTqfr0UzFsP5aO8pPWEq0mp+vNhZc2FK2dPKXHQN6i6cJ3xwQfod35VQ4st05VgoWXNfFZR0LAP/CuvvKLzTUVh4U4kJV2Knp3X6v5z7O+VdGiIEq4fK+FadT8JLYMpXDmO6xB1neQGByOxVy8duKhMveN4X2ZmZWHf3r0ILinBsvbttXC98847deTh77//HgMGDNCN5HFxcbrbhQlFExtuTRj4izEU3LzK2KKwPsHjfL66d2lJNeGxHjNmjJGzwD7JDCBF92DGtdi9e7eukzA4ZEa/DBTEFyC0NFTHm/DyVfUUnwoEqD8GrOK6ZX5liN4SLeO4ujEpKS8ZwtXiup+S0RV5hRSuNT0i2jIiXF2VXqoC/OpsHN56GIe2HEKZVxm8jnkhdFMovHItgRjM5Iwwa+3TzAe4mazz1vO1LbOeb45ltLiaQwhYwz6c1gGbhOahIcI1q/1mHDz4LbIWfYp7b5uEfok1w8Vbi9dydQ+88PZa9Ln8NsQXn4Cg7ARjLfvCtWO0v+7fSdh/s1tsAP7anoOQAG/dZ5WJgZMYjIjBiUzoOkuxm5pdql1/QwN9ME6VsY8r90crKgXmYTVvilAGX4oM8cHRzJJqn9spxl/3TWXU3t4JQerzs+26+JowuBM/t0z9bvNzuC9aQs19EevPsMYsD1PfeawSvDxmG/fna+tvLyVI+T0oTk1RzoBODNakg0KpW4qBoDiNj/DXx2SiEsjJWcXYerDAocWVlWM9gL4TMODWHXfc0WDh6g7YCtc/1LGZOX8++p53ns7bg2O2WjeyUdCce+65eOmll3S+qSgs3K6E6+VKuK7RQV9M4dqr16fw86vZeCQ0L6ZwjSoqQofcXJQb7zVC0cr718RbzSep+ydfidOrrrpKu6DS8jdw4EDdwHHTTTfpvImf12GUFa7F4SNZuPqmj/DMM89oa2B9h4dr6/Tq1UsHLqSYvOW6KZh2fB9s3JKBAcMuMtawwHHkGQCR54B1NvY9NimKLEJxWLGqsFedX8Zr4PvNpMKrAiFHQ9AtoZsIVzclJeUF5Oe9im4dqoRrftE0pXOqujUJ6toX4eqizFSVus6RyFufpx9kDD5THlsO3yO+8N/ub1d8Wc83xzLr+fouc3UYCZdi3xZGwzWHFhCaj4YI18yEjSgMS0bayhU4uPxDnDGrL2aekKjdv6zZlZSBJX/vx09/HUbv6TcjIDESUQeH1SlchabFnnBlRZhjStYHuvCb1gsRrhZopWGkbo7XSejiSSsP++g3JQUFW7F375Xo1WUN/HwpXEOVcB2sg4f4+VUfhkRofkzhWl9GjRqlGzrmzp2rA+R99NFHNYRrXm4akrZ/iSnH9cL4aU/hnXfeQVZWFtLT0401BGdgHZVDAT300EO6b26njpF45e0NuPHm6ueNwpXnglZX3r+MuN8QOByRCFf3JDn5ORTkvYZuHTfqfEpGN0O4NnGUPTeHzu2Cq8HhJsNVxXxjJnr27KkHpWZLXIfQDmjXvx26dO+iH04sZ+JYo+zDwsT12FeTAYaYGKSBbilMsbGxun8Kh1ZhYud/vqiYaPmgNSM8PFwn9ovhGHBMdJtl4CImuiDRAskKJxNdWtjvhcl6DE8mdxGtxNG4o2aQC8H18C0JgW9xCNoPOR59T78bP68vwxV3fo1/PrYAT7yxFA+/+CdufehH3P2/RVh+NA6DznkAYR27wz8vGj6l1cWt0DqwLx7dFGtL3377rR5eifMUrXzG8TkjVMFGN9vnbfMcI7Od2zKtavaWqkRrElFcjC45ObWmzrm58DFOGCMNUyS9+uqrWrTao7jEB+s2yFA5Tc3upFQcOlIzvgCh5xctrbai1enza6fxXXAnqtsRLbervOtskbeNK8Iwcbxg1fVKS5RJhXcFvMq9qrmL1Bca2K3diBl1kC6yTOzTYkZyZbRBusny85nY35NjwjGZw5gwsQWW/UOPHTumE/tpsEWWie5/7H/BRAsJgxTwwcxEdyOO38l06NAhPZYcE8cX5UObiZZ0jq1qRpVlqyX7cjDRurBzJyNp7tTBKNh6zP4gTFu3btX9vZg4bihD+jNxiAgGLWErNRNbNWlRZbJXyaPYZyOA4JqEpnVHzP7ROnUtPBfHDfwUx4/6BWEF/0TGpjko3HMx4nwexvSJSzCq64tISDvRsv6BUfDPjzb2Irg6jzzyiG5041Avd999t+5r98ADDxhLBWLrLcLnvKPGuMZhUzG28q4RWo9B6l07Vr1Th6n372mhobioQwedzlPvsCnqHT9EvYOHqXdwO/VOd5aOcbl46rEzjZzQVFx47ij840b73kU0Bph1Ed5TNBSQgVbn94ywMFzSsSMu79JFn2Pz/A5X5zdW1dsEd8Z2PF338VpsScRV2AXRltAzolCSWIIDXxxAoH+gFrEVcUq4blEX8R7Lejx15ukz523ztvOtAW88PoyZWJky55ujrDH7Wrp0qR67lZVAugcvWrRIW5yF5qchrsJNibgKNz/2XIWdgWKVYymzHyevE/ZvpYsw+9x5oqvwk76+6BccXC9X4fHjx+uGP3roEDbG8bg8+eSTOt9UFBRswN691yKx6yr4+hTrAfj3HhqExMRv4OtrDtcjtBSmq/CYo0fRTr3jB0ydqutDbEw2odcQ32nZa9Zgefv2SFbXFvtdsvGXmPOTJ0/WXlUm+fl5eOGF59S2FWBEYHEVrgkb/9mgzvpD9+7d7YoMa1dhX1/WO7zRqVNnnHfeBcYaFjj0DQMvMWgTzx8929ioz3FcR6vzG6vOYW91jtiYbxo0+LmMJM5zkqnqLivUufbv109chd2Uo0efRFHBW+jawTJ+cnJ6dxSWnIyuXZu2y4e70+zClZY83tzNBYcvodXNXWCLGt176epruvtazzNRLKWov+8rvsfilYuxf+d+eKu/sOww9D3WF6FeoZVii6kxYs22rCn3ZZZJi5FQFyJcPR97wpXPB1bWbOFrid4S5J577tEC7Dwl3BYvXqwr5jfeeCOeeOKJtiNcP/wQfefO1Xl7cAxkeq+YwnWNEikMwPO///1P55uK/Px16vhfXylc8wvDse/wQCVcv1WVcvFiaGmsheukvn2xp6BAey3RW4pQ/LAhnOK1bMcOLFTXFYXrY489pgUQ7zPWoa6//nrdtcg2qvCPP/5o5CDC1QYeHz6DeBwJozPfcMMN+plmjbVwNaE3l+37jseVXbkYDZyu3MOGDcOCBQu0BxmF63h1b+/IydHngIn1KnbV4jZDhgzBYfVsXKjOtwhX9+Xo0ScM4Wp59x1N64GiUgpXOZ/WNLtwpRWLbprNBW/qp59+2si1LnyQ8OFvT5Ca83R5c1bIVag/9YhCofoLUn/h6s/LhYdxEISG0hDhuv2XZ5CT3PBGq0Fn/AcBoZbKtq1w5ditg7qGYNEmy/AxHA4n2N8bGw/k40CaZYzEEwZahsipDUbiTUwIQlZ+KZZuz9HDzHCYHR/1DODQNIzKu+togY7S21Otm5ZdikFdghGoPouWDn4+5/lZfGxweB4zoq89GP04KsRXD4nD6L4nDokyxoLN1sPuEGe+N4e06dk+SI//yu/NKMM8BmXqdfHLukwM7hqsh/IhHGN2/d48TFO/i10csgvKsHxnDtqF++nxbEvLKvTQO+V2hCsrXrQo2MIGz7POOkvPsw/+FVdcofu30tpKocuuBOy2IMLVAgO6sCuGOTYkheu8efPw+OOP63xTkZ+/VgnXG5RwXamu5ZJK4dq79w/w8akaV1NoGUzhOi4lBScpobNMiSjGm+D1QChcf/31Vz0/MCgI72dna+E6ceJEjBgxQgtXNvxToNaMKnxIqbMNOHw0C1dcP1+Eqw30yLLtH8zGopEjRxo5C9bC9fYbT8C0KX2wfnM6+g+tPgQYgzOx2xOfibSi0gpuNkCMVed3XPfu2JKZqYUxP4NTxiVhVHbGJeleXo53MzJEuLoxR4/+PxQXvoMuCVXCtbhsltIOz+q8YEH6uDYR55xzTmW/TVauPv3000qLwJlnnqkfNGxlq4/1kSKV47a2V38R6k9EqyBUkbF3DY5u+a3BqazEfn8v3mUje4bC39dyv0UE+6BEia8f1h7DwM4WVzqKQY55yuFwaoPDyPyotuPwONxmWPcQPbbpj+uO6fFV03JKKvfJ4W6ylcANDvDWY7dyaJzOSthyWJoFKr9gg6WV3RHcjkKYw+qQvh2Dse1QPr5bk4GxiRaX94RIfz1mbF0kq+/NsVo51A8F8Ng+Yfp3UBAPUUKV0plD75B4NWWeQpvfMzTQWx+7ET1C8OOaY1i2I8dyUBsI+87TcmgOgcO+6xStQhW2Xk0UJLaWn6agosLSx7XqMjRnGnGChUbDYIqMTUEYt8KMJcE4FCYURCZsBHr22Wfx3HPPVbOqWpOZE4iVa/ahXx8JUGgP62NrQmFfG507RiE7pxALf08ySqrDfvwUvzRykEGDBukpA2QWWPVfNeOHmJ/H5yGvAcG9sTxfrRum+VwVmWaLHJFGwuA9X375JT7++GOJQCsILUhc38noMvKsBidf/6r+XNbwtfHTukz1ErHkKTgLiy0Vdo6PSvp1CsKny9IrRacjaH3kqyc4wEdv6+9rGQOWVkhW/ils4yIsApBYv7LyisoQoAQghSOtrEUl5To5guO7/r65quJE8ZivPou/w/jaGNAlWFtxKTZrg9+b+Knvy20L1L6jQn0Rr74rrcebD+RjgPrt/G7mcTIpLKFo8tK/kYty1L5s1xGaFtuowhSu7KrR9BjXn3FCq86rVCVaEwZPtO6fag8KWhO6o9JKN336dJ3sUVzijc1bjxo5wZbhw4dXaxxiwwBdduti34EMHD5qP6owPfYWLlyoR4qgWKXlldAjKSjQ8XjyXJfXgODu8DluzCosz1d5ttoiR6QR0H2Nrf+nn366USIIQkvRc9LlGHzWQw1O/iFVbnH1pWN0gHaPbRde1SfMEXQBpqutKR7tweUUeM2NvxLh69T37t+p9kouoQV41xGLVToppRCzR0ZjXO9wHMks0UKaIrxXe7XO0YZHsqTYSkk+XCOlpUqFuT7YRhUmzWFxVVUpY2piqWXVx5NIaHooSmlxpasvPbvMoexMKyy7K6Wlpup5wn6vFEkcBs/ROOWMKvzko2cYOcEWHtNbbrlFu1xzXNzbb79d9zetiwvOGYl/3mS/Wwwtp3QPpgjlOMz04iP0qKAwNt2DzSELTeiOnJKcbOQE94XPV+tnrEQVtkdzvNk8HkaPY6vY66+/rh/8giC0LbrGBuC4fuHoHue4FdyEwu7IsWKHbsXpOaU4fmAENuxr3hZzX28v9EoIxNjEMHSKqXIbdAStylsPWYTrwC7BeOu3ZHyyNA0DVDmhBZn7o6htKKyI7dyxqUZKStpurNEGaYB52p7FtXldhW2/o1QlWhvGEjEDnZlDvnH4t65du2rRY903lV2ajj/+eB3s7M8//9RlHB5u+fLllenbn3ag64D7cdxJz+jlQk1oEb366qtx5ZVXavFYF7ff86U+pvc/+mu1Y83ELhEc1YDBtd5//33tyv3XX38ZWwLbtm/XrsO0vvJcMa1YsUK7F1Ps0n1YcG/M56uJWFztI0ekHrAicNttt+nxQKdOnWqUCoLgCpQVF+Do5oXY8v3jWPPh7Vj/2T3YuegVZB3e2iAxYJJbVK5dZBkkieIvItgXm/bn4++dOViblKcDOTmib8cg7bIbzn6ypeVIyy5BdyV62dc0t9BiYWXAJ/YbNd1zCSVIDyWK03NLkZ1fhs4xAVok0zLrLBTEFNjRob7aQtq7QxC+W31Mf2/2n/Whn68DBncNwUb1G03yCssRq44B+9xmqO9EdhwuQKdo/2qHltqJx6PECCDF/sEUvdJo3HB4JOtqdW85i6ttxcryvby8pCrRmvir8x+ckYF1X32FjsXFOKFHDxzfvTuO69wZXnv3Yr8Sp75W18i3336Ll19+WVv0KJoIgwGZ458zMV+qnlllZTWvLaFh8FjymBYUFFY71ky0ttLVmIG1Zs6cqfu6mq7HPL8hStjuWrgQ/YODMaFjR0zq0gXjO3RA4bZt2PfHH/Cz8wwQ3A12IbKuq/D5Ki9PW+Rt4yRsyWSEZAZcYn8CQRBcA7ZS7l36AX7971Qk/3YvZvTajBtmFePSSRnoXPgt1rwxF0tfvRjZR7YZWzgHxSlh/9Yth/IxLjEMCzdmKsEHHaSIYpBut7WpMkYgntw/Amv25GlX4e1K7Pn4eKGLEpTLtlv6OXH/7/6RoufJ3pQiTB0ciX1qW4rEVbtzkRDlpwVojiF2a2PLQYuV9EB6ke732q9TMP7YkqX7piYlF+rvvVrt0ww+ZQ/2pWVE5Gnqe3Ctv7Zlo2c8rcsVla7B+1KLdF9gEwplRixmRGFaY3/fnI0hSgDrvq7W7+J6wsB3d9xxBx588EEdQZXpoosuMpYKpKUsrjz/1acmUpVoTXZERmJdbCy2BgXhqwMH8PaGDXh340Z8sHUr/szLw+6ICGyJicExI1K1PebMmYPLLrusMt1wzSn48fNr8cYL5xtrCI2FUYV5TG+7YUq1Y81E12O6enNIIo6t+/XXXyMxMVFvt9Pq/H6tzu+H27fjAyV25yvR+qcSvPr8RkfjWC39YAXXx9biSqRRsCbNPhxOTk5OZUjv5mDGjBl6sPXmgqHl//Wvf+lB8DkGqyAITY85HA4r38cdd1yl+xrvP3o3/PTTT3bHcS0vLcbaj/8Jv2PLcf/tU3Di5J6qwl5dkBUWleK/LyzBWx9vxuCzH0PCwBONJVXIOK7Nj71xXINUReymG64wclV4KdH12H+rhgCYNGmS7tP1/fff6zyfx48++qhnDofj44N+ISGVw+H8npaGUz76CH3OPVfn7dG7d2/dD86MRkoXQr63OAZuU5KTsxgHD96Fvt3/VvdqOXLyonEwuS/69v1D5evu7y00LeZwOE2B7XA4ebnp2Ln5U0w7vg/GT3tKhsNpINbD4Tz92FlIaB+O197dhJtuqX7eOBwOh7Tis46WcLp5d+jQoXKcWGfhM0CGw3FPDh26HxVlH6NTvKWrzKGU3qjwOgudOj2i84KFZpfyrGwwWEBzpYyMDOOTmh52uF+9ejUeeOABEa2C0ALQRcra7ZHjeY4fP95+qP+KCmz86kFEFK7B12+fhxnH96ohWklggC/uv20K3nv2FGz47J96GB3B/bC2KNblOtvWsHUVbj6Lq/k51du7xSrQuoSo52TXnJw6E11OnYVRhbfvtHiC8H6jpxkDA7GxiVZBBiKKiYnRy836EceNJeY6JgwmRBjpmuVMnGffW4pl64jIvG5ZzkZLfobp4caAUtZ5axhrhMvM9wS3NaNqs8wU5Pwd/K7md+C+uB33bQ9+L/M3Wr+DzO/GKeHv47GxxvyNthw4dAxHU+wP58WGAbpxs69rcXFxpWiNKCqyez6tUxeVfMRd2M2pHlWYyLO1JnJE7MCHLl2Cly1bVjmOliAIzQ8rA/v37zdyFg4ePGi34Sh1519I3/Id5r94FuLa1e2+f9yYrrj7+nFY//k9qCirGhpCaD0osOLiOtRI7dq1N9awwIAlbNQ477zzcOutt+pAJp4Kj0l9ZbmtqzBpjuFwqoIz6YnCnKnvNxaakm7Z2Rh75AiGpKVhlhKPl3TqhMu7dsXFHTqA0TiGpKZiZHIy4vMt3R/Y6G9iPW8Nowo//lCVhwsFJetGHAKQVkRrcUqXVi6niyun/fr1w4ABA/QyWg0ZxIjPdnMZP5Nikp4CDC7EqQlFIIcW5JAw3IbRjwk/i5/ZsWNHnbfGFMQMnEliY2MrhSSXMc/9cB32Gx04cKAWrfw+LOvRo4del5/N30D4zmEXMTPokllOuB1FK38L4Wfwd/L7mpi/0Zbz5ozAHTeMNXLVoVA2xTDvZ1MsD0pP1+d3WEYGTg8N1ef26p49cZH6zCmlpfr8Dlcp1mqsV8EdYYOgdaMgn6vybLVFhKsNjLTH4EsMwtQcL35BEBzDIBUnnXQSBg8erBMrGZzaG6Nu56KXce0loxAfG2qU1IQdITKzi7Az6Rj+WnUI7ePCMbwncHjjT8YaQmtCwZXYZ2CN1L2HZfxCk6SkJNx5553aBfazzz7DSy+9ZCzxfHS1xbYZ3oaWs7ialSrLlPeXVK5an3J1feT5+yNxxgxkK5G2XAnYpUqorlBCx0eJwoTjjkMJ6zOWE6bdgufNm6cTXcqJvajCHfvcp92EKaIoqjjETqESR/SEoUije7qJKbhYfujQIb0Oy2ixpOcahSPLmKzHvGd3Mg7nw8/g876nEmSE1kZ+JhutSEpKSqUYpSikS+3EiRP1dizn5/K7UYhy/+x+QjIzM7Fz5069DT+blkxuQ+sm98/tzDFuOXyQ6QpNgU4XX3M/vJ9omaVVmevRnZfb8TeyIW3btm16G2IOR2TLLXd9ro/pfQ8vrHasmbgPBmbisDo8L+wGwXchKVafnadEbO+TT8ZRtV+e2z/VMd5UUID26hhEjRpl8YUwzq/gnkhUYeeQI2LAlrbXXnsNv/76a+WDUxCElmXlypVanDBQBRNb3dlfx7affFFuBjL2rcWFcwYbJRbK1ZM+41gBtu1Kx+IVB/CVqnz9/PserNl4FAcPZ6OwqAwzp/XW0YcF94HWj2uvvVb3a2UFlhVOoQp7FtfmEa62rogiWl0FWg3pnXL06FEt4Jh4TdCDhQKLVkcTPmd5zVDEUTSR3bt3a/FlJuZNTBdgRhrmUDq8H9nIaA7BQsvgyJEj9Xx2drYWq9yGn0uRx36XFKhcj27AFJAmpjssy/mcNz+Xwm/r1q2VVk2yY8cOPeUzgHEQlixZoir3Ffp5wOGAuJyfze9IUW3eA6zfmQKU0XvNz+cx4XYU7YTrmdZXdkOzPmY0ZPA3mZZXHlseB1P0UtTyNxL+FiZH8LhbH2smfi9+f+6Px4TfnX2YTWi15vFITU3Vx5ifRVHO7873ZIQMzegBqOd4DYuryDRb5IgoTj31VP0Q5lhcti9/QRBaDragMzgTXb6YpkyZghtvvLFGJSA3dTdiIgPRLioYqen52LIjDb8v248vf9iBBYv3Yv2WFBw+movikppReMNDA5CTssvIOYZjnU4dFIH2kRZLAukRH4hJ/cIxsW+4jvJrEhPmq8uZusY61x+eTxoOOzNlQASC/Ksexfw8c19M5hA4PdtXjxjJ7c2yLu0C9Lr8XnERVd+X+Pp4YVL/cPTraBl/tS6iQnx1dOBEq89LiPJHcIDzrwt+t1G9QjGqZ6iebyx02WOlbft2S9CKSy6pHuSprdNyFld+TnWrjvTBcg3CIyK0kOGzcsSIEToxPgChoLV2CWbE2g8++ABffPGFDgpEzjrrLH1fmemaq2bjzRfPx2MPnqpFMK8pPpPZn5RBhOgebI4bSyslBSDFHtfl96CXBLfhlN+JApqeMxRthCKVApSCjVMKXF7HFGEsY12MItEUg6ZLMS2ltnB9uv/Sqsv9UnBS6NEaygZQ6yBHtAbzeBCKfG5nGisoCmkdJhSHpvgn/FyKU65DUc3tuE/+RroT03LL30gxy88jtg2uV1w8Th/TKy8ZV+1YM/F7UnA/9dRTWryzwZaWYsJ7mZ/DY0d36QkTJuh35cknn6yXs0HBtPYK7ov9qMJN8Qb1LNr0G4cPt48//hhfcewzO/0mBEFoWdiCzhf2iy++qCsKdJ+iK5tZ2TEpyc/E4H7t8fkP2/HbX/uwcVsqklPzUFrHmIN8BQQF+unta6NfpyDMHB6FA2nFOGtsjB5HlUwbHIG0nFI9tMz5E2MrRergLiF6nFeOuzo2MQzHKzFaF2ePb6dFZmp2CW48OaFyeJoxanvCz2EqKbMIBYpoilCTTkqs9u9ksTwer4RmVkEZMtX3OnNMDPp0sIhUvvPmTY+vHNOVIrk2KMavnBqPQxnFGNY9FBOUECZDu4UgNry6IK6NCyfHqkqoRTSfqY6fI2gVYcXZNn3yySfGGhZYabPuukF3QKEKHkfbCk5zCFeeB+uPsYzjWv1zhZbHW52UCqPxguLPtLhaPzet75kTTjhBWyD5jHU0Jn1ega/aRykmTeip90lxSRFKUcrtKFTZ4E9oKWQZhRfh1OyHTusml/Pa4X5oXeS2FLHcJzGnFGBcxm0pHNlti+66xNyOotkWCkguoxDldpxnohimqzEbvUzLKMUkfwOhxZjrWVuXrdm3b1/lb2Sjmfn5FMr8buZv5OdzOX8fP9P8fNsuLoP6d0BCfAQ2b60a/swaCnPTYszzNXz4cF3O/rimxZifwf3yO5hl/M3WwaMEd4Xv+qqGQcvzVRoGbWmzR4TjAPJhxjECpUVDEFwHtn4/9thjujLxyCOP6AqRLf4h0TicnK1e4tWtP7bw3o6JCkK/XjGYNLYLzpjZB35KIHL72jiuXzje/C0FO44U4MWfj+LwMUsFUNW9sOVgPjbuz8frvyVjqhKMJhwjdfOBfHy8NA19lfCti9hwXyzckKm34dinfa0sojuPFurPYSossVRItx0qqLbO8O4hWJtUFZ1yq1qXY8++/muytrASCtjVe/L0Z3DM1SXbsnW5I0b0CMVXKzP0eLOfLEvD8h0Wa0d9CA30QVFxhR7rdpna/usVjiO/OxKubFC0hkND0BJDl8P7778fv/zyi7HEA+FFVk9YmbWGIqFFLK761SkVq9aGXSQ4hBShldF0VbUWq6awJYzlYfZxHTvWfqCgwiJffP39RiMnNBXLViRh6w77QwrRUsuATqyf0v3ZdFumQDXdte3Bde3FgRDcDYkq7Axt7ojQHeOHH37Au+++q1u2BEFwHRiM4r333tOuZ2xtvuGGG3SydRUOi0/Ern1ZCAqsbnnjcDixMcHo37sdpozvgrNm9sa047phcP84JMSFKNHqjVUbDiM8oa+xhX0OpRdXikTqiDI7ArlICUpHjV7OaA9r43BRaQX8fGp/HK9LysOwblXRk+nKzO9pS6lhoSVhQT4oLK76IOtl9tifVoQBnavEcWkdDQP2oEtxidV2DdmHLRRmtMTTpY4W+OYcBs3V4NGrq3GVx8d6HVsLdVNR05XNSypWLkKBEje0utE6R6sikxmhnS60aVbjr9JVlg2Cr7zyCh5++GGjtDoJsXl444XzjJzQVMy7fAJuu36MkasOLcZ0/2Wwqblz51YGpmIDn9kIwXNMEUuXZFpaCeu1KXYs0YJ7wee25Ylvwmd67c/+tojbv3HYmZ43uTPpuuuu0+4bZr8AQRBci59//ln3y/rvf/+rhYqZbF2F/YLCEd19NPYfykR8uxAM6huLEyZ0VUK1j54yz3IfGzFYXFyGr37cioSB040S+9A6Obl/eI1+pdbQ7XbVHvvj8TWWy46Pw7Untdduyj7G2LTZBWUID7ZUXuhWXKLEbuMlYXVoaaXboWmxdVXmzJljzAnE1uJKmsfiSlfhqqvO0kAjwtUV2Llrl+4TysovXVeZ2J+TEXbZN/OI4cZL6Iq/dOnSatfImjVr9BCAZvp54XaMmvI/nH7e68YaQmN54NEfMHLy/8OzLy+tdqyZ6HbMPq3PPPMMHn/8cbzwwguV/W0Jl7FPMS2rdF82U9euXfX70QyUJbgz1Z/j8ny1j9sfEbqQsb+CM4kPAgpdQRDcn8Sp1+G5N/5G+ziLhZWWVlpca+PFd1biWFl7xPe336/LhBbWV35JxqxhUehmFWzJV+3/mhPb4//mdtHz6/fW7p7FoEvsM3rVNEu6XAnSOoxn2HKwAC//chQv/XwUu44WYnDXqgi62fmliFDilX1buV5DYZ9V8zsxje9T1T/qi+XpSIj0r1ZmD/aZtd7HrOE1xywUWgZ7FtfmcxW2hhZXsQi0Nt7qfIfm52PbDz+gU0kJJnbooNP4hASEK0Gza8ECBBh9PMlVV12FadOm4d5778X111+vy9h/lX1RzbR9x24cOZqNlNT6dxdoTXg98tqvKzkL16VFk8OyjRs3TrtWMzATgzHVl8ysAn1M09Jzqh1rJvZZZcAlBr0aM2aMdhk+7TTLOLr+6v4OUcJ23++/Y0BQEEbHxmJcfLxOXnv34sCff8LPTuOV4G7wOV7d4ioeLTWRIyIIglsS3XU44kdciEtu+hJHkuuuXH3wxQY8+9Y6DD3nMadeBnRxfUkJSAY7igi2uF2yjKKS/VtDg+p2xSwoLtd9Tl9baElvLkoxWlEds/NIATJyLZVM9pvtnVDlurtWCeWh3YIxRAnPukRzbaxT25rfiWnp9urH75OlaUhUn2sGebLHvtSiavv4fo0lUInQ8rSUxZWuwtUrVkSqEa3NodBQrFViZmtYGL5LTsb7Sgh9sHMn5qu0ICsLOyIisEEJrTQleggDJrE7Bq8ReqORmlGFT8G7r16Exx+yiCd3gBF3ORYqu5nUljh0jzPCk31OGeWe+6V79ebNm/UQNQzQxD73FJr2xmt1xFWXjtfH9OrL7EcVpujmfhkwi5GKTXYqEbsmLg6bg4Px9ZEj+CQpCR/t2YMPd+/G73l5+vxuionBsVr6wQquj4zj6hxyRARBcFv6nnQrfLvOwvFz3sE7n6xTFfiaqnDfwSzc/chC3PvEcgy/8HmEt+9jLKkbRvT9cd0xDO9RvXKyN6VIW2IbY2uy3tbRfmjMsha6DNDUr1OwDoCUU1hzqB+Tyv3VIZIdwc0+XJKqg1Q1hMYcF1voFswxXK0To242Rx9OV6G+x6+1LK4SVdg1yAwIwNboaGxXAsdM2yIjq+dVKjD6SX777be6PyWD4DEAnj3yCvyQlVWAieMsAYLcAfblpYv0qlWrak1msLfaYCA4uuH+9ddf2iLKfvUcYoh9hzkkDsdPZaRjCmFnPfkG9E1ATFQwNmyyH1WYrsF8ri1cuFAL699//12XJyvhzPNX7XzanF+mIg9+JrYNqnfFsDxb5flqiwhXQRDcFi9vHww87T70PvUx/N8rO9B/8gu4+KYv8cATv+OWf/+EOVd9gomnvYEF29pj4g2fIaaH/aAYtrB/K4e3IbR4Hs6oGQSJbrz2+sByHFR7wZxsCfDz1on07hCEQxlFep5WTo6bSvp2DMaWQ5YhDwiDKwWr75WZV+X2ZwvHX03NsSxnn1XTakq3ZXOoHUfQhdgct1b/biOacn3g8D4cVoevW3puc3zZxvDZZ5/hpZdeqpY4DiUjwrcZ6nDHbanhcHSTho3LgJeXVJZbm9CSEnTNyakzBajrhHDYmeXLl+shcxzBqMI//GIZCsYWBgZiIoxiTMsk+9LyGuTUtGZyyEGKSV6L7GfLsUYpzGjl5Ta2QfccwWBEXJ+Bp8zPoyutOc/PIPx8S4AbC/yO5niunJrY81Cwhp9DiyePkTmMjj3Yr3Tt2rXagutsQ9rKNfuxbaf9qMIcs3bBggVYsWKFjpxOqzgpCS5BQWxB7aldASp86n7vCK5MzetSXIVrIkdEEAS3J2HQSTj+jh8x+KK3cTj0TCxMGoC1uROQ33UeTrhzEUac/xSCo2pvYbdmx+FCXHFCPK6f0V5bXSkACcdVNfljc5YWnITjp548PApXT4vHnHEx+OivugNl0B33qqmWzziQVoSjmSW6fLcSxByz9foZCUoE++ihbKyhm++KXdWDQqVmleDS4+Nw9fR4jO0dhm9XWaLuMqBTUkqh/oyLJ8fV2JctHP5n9shoHRiKVuaf11nGO6Tr8hmjY3T/XiZafB3BeiOPDffB37DziOPKsdA02FbEWXlvrqjC1vpYLK6uQY+sLIw9cgRDlJA6JSgIl3bujMuV8Lq4UydMV9fB4NRUjEpORntj3E9T6BHreWsSYnPx+vP2owpTkJqik1FuaZmk+zEFZmRkpL7+KCK5b7rSUghSYFLAcjQHjpvPgEIUstbwmuV+ba9dWkdp6WRkXX42G2q4D4pK9g115PbLMVUpWmkR5dRZ+L1pTeX34NBBZuJvsc5zOcUmg2DRQusMdBe+/Qb7Dag8TuZxtXbjzumSg4x+GcjtlYuOszpi6KVDMfqa0RhwwQAEjAlAdo9sZPXKQnFY/RsaBdfB0uhS1fgg47jax0sdKGmiEQShVeE4dQx8URuRQ85DeP/m6W+VvOA++MckImr4xUaJ0NRUlBbhwKeXGLnGc9555yEuLg6XX365UeIZPKEq/AOVGGhnWLR+V2Jk9qefonctkZRZ2WVQFx4P8ueff+phpc4//3ydbyoyMj5Getr/kNh1lSWflYD0rNHqs7/SeaFlYX/L++67DwPS09FdCbi+J52EI0rAWkeYpeijaDukrokNSvTtU9fW//3f/1UOtdKvXz/ccsstmDBhgu7LaVJYmIcP57+jxGEZMo7l45133tFD6NAKyH1SoFI0cj/du3fXfUApXhnZmKKL4+T37t1br8NE4cq+ofwu3JZD9VAg0rXXhOtQhKakpGhXZhNaV9kHlL+N23MYGH4HfibH/WakXVqROe4pP4vbE4rnIUOGaGsvyziqBOH9wgi9dPetDf4OCmRHULCy0YiCnW7EdCu2hZbbPXv24KGHHkJYaIA6xv7qN8Zj9qlnGWtY4LkcMGCADv7ECMNmv1p6nGQmZsI7xhsnjToJGw5vwBEko8jLFyFlwRjVfjQyDx/DqoMrEbk7HD3DuuOpp56Ej/rtDFaofoKOFC+4Pnv3XoXggIWIi7bcE3sPDUJQyFWIj79R5wULIlwFQWh1RLh6PiJcnaMhwpWWKLpCmsL1jz/+wPz58/VYkE1JRsZHSrg+YSVcOyAje7QSK1/qvNCyWAvXafHxOKIEGcUlBSShoKJ1kiLPKykJC9Q8hespp5yiy2j1pAikOKIwNMcKJVz2zTffGDlUE64UcxSTFIAcRofijIKSAo3ikS66FIkMlMTPp/WS1yctpBRjFKgUfNwfxV9d0PJIqy6FL6HVld/V/Dzuh1GRbYUrLaQU0uyTyu9bX+FKi6p1kCRb+PlmFXrKlCmVfVKtsRauJnSnZtAna/idab2+6KKLdBAoHi8e/927d2vhOvT4oUg6nIS9/n5ISR6CipJAVPgXAmV+8N/VG15FtQdm4rBqWsgqDct5Jgr7qvmqclPwVonfqvXUv8o8BbFez5iv3NbYl2W+alt6vXKflcuMbVnmZayjl9XyGWZ5reuxzFjXuqzad7H9vVZ56+PCcuvP+GNjGn5bn4yxfaNx9ck99f6bir17rzSE6z5LXgnX4NB56rluifwtWBDhKghCq+OMcA3pMQUhXWpfp6EcW/suvAMiEdx5tFEiOAMrdhRLfI2wQssXvjnmLt3eaAkxqSgvReba94yc89BqaOvmt2/fPqxcuRJXXnmlCFcFLUOsiLNCTyhcP/rooybvB5yePh/HMp5Ery6W8SUtwnWsEgef67zQslgL1zOUQFupxA/vSVo6CS2bHCOUjFTC7f0jR7RwJRS1FH8UeuSmm27S4s7EB0eQmfIXklNzcNvdX1YTroTXHO97Jt73hPOOyjnPZAYSM+edxXq/juYpiCmaTWsyoWsyhSrfMfz+hK7DtPZyHNS64HOMzzgKYAZ2ojXUFh5zCtdff/3VKKnCWrjOu3wCJo3vie27cjBy/GXGGhY+/PBDHQSKv4cinb/B7F+b3Scb/af0x+qMXUjaNxXhwe0QEh6sfjNQHJaGwPROCEzrwQOt11dHQ88bWQ2Pj6XA0g/YmLPMc5HOW9Zj8qpQS73UvBmvwVjPRO9Pb2/JE13G9bgnPdWllnmb9So/g/NqdSVGjHJjJYXOc29cj396mf39sbyyjKsY63Hner4ZCAnwwcZXToK/b9Oo16SkyxES+FulcE06NBghodeo6+9anRcsiHAVBKHVcUa4Cq4HK1nz5s3TFg1aB26++Wa89dZb2lWR0X8ZSKmx0GXOrOjOmDFDD0HBAfrpNsjP8yjhql7HT6hjOkBVrGNVZZvUJVz5Cud5oJuhKVxp+flUbcOIzE1Jevr7Srg+XSlc0zM74ljOOFWp/1TnhZbFFK6DMzMxu3t3rFLClfcJLY+ELrJs4CFj1bXxthJDFK4cw5WRa8mJJ56oAwHZCteC/DQc3fc9Ro3ogvHTnqohXF0R/nYKTFoua4NBqWjJZB9YW7gP3ke0ilL0cl1aepmnOzJ/Py25bBRg4jGjcGUZozXbYi1cn37sLPTq2Q6vvrMRV159l7GGBQpXfjaFMfvz0lLNxiiK5YqRFQgfEI4NOQVI2TMZnRI7q3ve0ihQGpANn5IghB8ZqvOCfficVG8RLWK1ntV5Y1796WUqoyWRoYr0xLIySopLcGjP4cplJqeO6YAXbxxu5BpHUtJlCA36DbFR+y35Q0MM4XqNzgsWmtDILQiCILQlaDFhXzW6/9HSSnc3uqg+99xzTg8RUResxNHqceedd2oXyNtuu02L1rYEK7SOMK1WtutQzDY9rLVVr7lJ1MvWhyLHxzjfPO+0pjLR0mhSZmXdnDx5sm5wYmLfTHsUFvng51+3Gjn3gKJj586d2n25tkRLqz3RSnj8xowZg8zMTCxZsgR///23dkPms2fUqFE6KBP7BbNBjf1wadGmy7EzLs9k1Zr92O4gqjCDVVEI08skODi40k2ZVvEw/zAE+RSgwrcYORlZKC0pRbk67/+/vfsAkKMq/Af+vbu9XnN36cmlF9JDCwnSQw2ErgiiUlSaggUU/YFiAZWf+FOwoPiniCgICgICUqTXhIQE0ntyqdd72dv7v+/bmdtyey23d9nNfT/HY2dmZ2c3u7dz85335j0vGpBQl2GnuS9gccMXA5n42f0j/zO3tulvUiISk5KQ5EmyLQ/sbbIHySnJSE71lxSWtBSkpKfa/Brp7Xxvnb8jxOhQr8LdoXdERER6jZ0DMayeeuqp+OpXv+o/eIoCXo/3f//3f/j3v/9tDzjZGUtHPaEOROHNLd33vS+Cq3oVjl1sls/vH2sb2dMtCwMXsQltaVCHTTzZxNrTe++9F3fccYezNBR7Ff7j3ZF7FT6Y8STAypUr7fvoDRoKh4GYTfBfeeUVO1wNm/WypQnXYc1ocCdTnemsV2GOT3366afbE3W8Pp2XRBBfU1pSGgrqzOcyfiUqa/ai2Ny3beca7Nq4BzvfrcOGjzZiw/INtqxfth7rlq3D+g/N7YfOLeeXr29bZ8NHG7BxhSkrN2LTyk3+8vFmbP4kULas2oKtq7Ziy2pzu8Y835pt/rJ2O7av3YYd68ytKTvW7UDx+mLs2GBuNxZj56ad2LnRlE27sGvzTuzaYm5N2b1lN3Zv3YM92/xl7/a9bWXfDlOK96GkuMRfdpaidFeglO0uQ/nucpTtMbd7y1GxrwLlplTsq0RlSQWqSs2tKVWlVSbYV6Oq3NyWV6OmosZfKmtRW1mD2ipza0pdVR3qqutRXxMoDbUNaKxrNMXc1jeiqaHJXxqb7bWukYweHOjQrLf8++7A3031KhyZmgqLyAEXK02Fb7vtNixYsMCZ6z9spsdeOPsKe/1kk8BgPPjiGIS9tWjRIvsHlwdZ7ODl+eeft8tvuukm26S3t0488UTbFC8YDxhZyzFQmgovfvxxTDo/tBdSF2uOWLs2c+ZM27SRQZa9CrPp9llnneWsFR0lJfejsuJuTBjt/70pKR+FytpjMGHCI3Ze+lfwNa4TzD50mgk9DFDB12EytLJJ68b//AcfFRa2XeNKPAHE68d5PWVPehXuLtZuubW/xGa3/H0NP9kSa3jSh2OzsomwGx47whNpDLkddfQU3FS4q16FebKBTY55EoLvFT8btmRh50yewR4cN/s4fLDjA5SlmffRlwZPYzImp8yCpz4dy7YvR+b2bIzIGImrrr7GjiXuYzH7FE6ztJq3vcWZt/dx3lmH8+565r+2ef997dcz//lvneX+6cAyPo+9L2hZyGtxHm/vs+u2fw7/fAevpYNlwc/B5ZzvS3+47nCccVR0TqRu2nQJcjLeQOEg/zXam3bMQXbOdRg8+Ao7L34KriJywMVKcGXNHpuCRXLj936I0ooqZy6gprIce3dsdOZ6jtdk8WBuxYoVzpLo40Epw3Fw5yG8DpLN4FxsotZZk9SOMLiyB8z77rsP1157bdu/g0Hqpz/9qZ3uDQZXvn639oMHwXwuHmwruPqbUrNZYXhwfeaZZ+xnE0379v0J1VW/wfhRbnAdjaq6YzB+/F/svPSvtmtcze/IDBMo60zw5PWt/C6zB1Q2D95rwhdrWNObm/Hu8OEhwfXmm2+2vzvcBjsECu4EjcHpqaeecuZCexXuCmt+ebKMnRoxeLkdtrnNl3niia8peNieWOOGV/5tYu2q+29wsROoGTNm2H0mmx93FMY76lWYnTkF4+UPbIrMZsh8/7iP4zpPPPGEHcO1fqj5nnsz7LXsmdmZaE1qhcfnwZatW7B1y1b4PD7kr8rHpJxJuOeee5ytCrnh1oZdJ9jaEO8GXHu/Ox0alO2tWbeusQWLf/AmMnIz0dLsRWpaKqrKqvDgt47ESXP8vbn31saNFyM3k8F1h53ftGMucnK/isLC0I68BjoFVxE54PoruPKAgAcNvKaFB2A8gAreBXYWXK+87kakZeU5cwEb136C55/8qzPXcxxnkKHDDXw8EGJNCDtW4cEjr6MK7p13fzD4XXbZZXZ4io6wdo4HlTyg7Oj6r0hYG8qDNr6P7rAVVFZWZq997a2f/OQn+N73vufMwR5cf+c737EHggdbcG017+Nd5v3sSXDl7wZraWbNmmV/Z9is8I033rBNq9nsMJr27bvPCa7+2qV9JrhW1x1vwtJDdl76lxtc88z3dajZhwYfzHE/Erxv4ymp7Sa01pl9Hzs44z7XbS3BcV3DO2fKSN6BCaP2Ysu2Upyw6O5uBVd+Nxms+PvIsMYaRG6f12gy6PFyAm6Dr40n7PgaWFPJ/Vx3hP+buoP/Ju7v+bzh4bMrfD4O/cPXyhNEHDqI+O9j7TSbYnMf19lrCg6ud/74bFxw9ly88sYWDB51nrOGHztnYu04A+zJJ59sTypyX8rg2pTThObs5uBWpBHfi/S96Rg7YqyCax9oaGrBxMufw8gJI5Fpwit7W2bT6we+eQQWzh3qrNU7GzdeZILrW23BdeP2ucjNu94E1+gNI3cwUONpEYl5/CPNAwWesed0T/ExDIhnn322HeD90EMPtT3U8ox2cC3DgcZ/I68R5YHLnDlzbLPlc845p214i+7an5q2z33uc3Z4GYafcG4tZ6TC6+T++Mc/2ulf/OIX9gCY5Qc/+EG7dVk6C8+RhB/UspMUhrMBpZPf+Y5qevriGlfzbM6ty9/bsxxYFSYUrjUBbV1QWZuXFzpvCkMrMXzyhBOb9UfqCZd27svEbT99zgTOwNiunWHNLfdXPGHFTo0Y7rh/5YlA9tLL8MdaWO7X+DvDFh9s0szxTIMDc2fY5PmMM87Asccea/eJwZ1PdYSXL3Cfz0sluO/pqsfhYAyGDKa8tpVjwPL1svCyDrZqYKuPngTpZPP+/+vfK/Hr37/vLAnF5+A2+bnwJCCvp6WUqhRkFmcic2egZBRnhMyzJHp1SN9X2ILBz/m8ndkenkfpQqv5bgRvkPtXfabh9I6ISMziWXoedLCjigsvvNCOS8nCJlU9CZw8YGJwZacbHN+SPd/yYIS9OHJbsYAHc6wJYa3wiy++aF/jY489Zs/W8z3oqEOiL3/5y7Y25Pbbb28rDOjBGP5Yu9wZ9qLJEikU8rWx2R9rGHhQtT+FtYDcBj/TnuCB8DXXXGP/nSzsXfjtt9927hU3uLoB0j2Q7rvOmcKP1HQYcaBlNjdjTFVVlyXF+W4zeHGYHBbW2kbiSfJh1Mj2LUw6wtpMBi+22CB+112sWS0sLHTm/Ndlszdjhk/WZHIfzODbleCWHbw84aSTTkJRUZFzb2Ts6ZxhkM/J1jbsUdltFdJdfE62bGDrFxZ37Nv9UZCfibxc/zW/4dh0mu8Vh93hZR3utcqsUY/0eYaU6mp4OjiJJb3n5tZAUPUviOY1tNy/tucGZnHpL46IxCQ2m1q8eLHt/IIHLDxTzrP4PIjgQQt7m3XHrewKm6/x4OWTTz6x1xDNnTvXXg/IMMeaAJ6JZy0se3VkwIpUetrMrLt4QMR/K2srGKR5oMVbvka+NnaixBoS9lwZCWsxf/azn+G73/1uW/nlL3/p3OtvHs1Qw1rRznAIG/YwyufvCDv8YSDigSZf0wMPPNBpYa0K12VhM+yu8HXyM+UB7dSpU21tCV83m8vxejuWP/zhD3a74ueeaHCDq6tvalxDD9LUq3BsGGuCy3wTqGab7+TizExcMXYsvjJpEr5oQt0pSUl2+eHme83mxMT9jYtNYSPJz23AKSdOxZat3Rvug7+HrBF1Q2Fwh2q8L7jjJza5dU/EsbaVHUpx/9sVNvd97rnnbE0kAzKbAPOEJJsgd4RBk82ROW4tAyG/J2xWH/we9Jc9+6pQNHoQzj5jirMkFP/GubXI/P66NdG8fpmf79yyMpxrQvuXzN/Ea83fsS+Y/eOJ5u8hP9+55vMtrK+360v0te1f2/az/n1h9GIrhZ4Y9GdixbRwekdEJObwDzibmTGkMrwyjLG2jeMO8npHDqDPAyN23OP2WNkR/sHhARWvHWIIZlM1dqrBwoBIDEmc50EOg2Kk0lfBlWfYWTvB10asQXBfH2slRo0aZV9XR83puP75559vO1ph+f73v29rbl2sZWBtNd+raODzMfzzoJG1wZ0V1pZyXZau8N/HJs68LpM1zDyZwGaG/LcxfDNQs5fP4B5TJVDj6nJrXMN7Yo4OPlfooZqash14PrOPq01NxVTz/ak1+7S3zXfltR078IH5/iWb796o445Dc9DvAztRc8dxvfHGG+0y1r4Gn6hjk9ZjT/sVLr7iQXt/VxhYeXLNDZHB18kzjIXPux0z8XvNoWa4P3H3x13hyT7WFHO/zN9/7r+Da3Qj4feCNc3sSIkYXvmc/emOX7xo39O7fhN6UpSF+0ru77/5zW/az4WXW7BGmZpMiK0xfxOnmb+FpeZv2Vvm78HLJuyvNn+TRpm/k4Xz5tnfAekHzv617Xxd6O6wl8JrXHUpRiT6iyMiMYU7atY+8iz9VVddZQ9KwrE28pJLLrEH51116sQDFoZDhmEGQAYfd5xDNlMjHghxns1YGXIjlb6pwfIHDIZi97Xwtbqvjwd3rBVmTTOXR3LZZZfZ5sGsLeU1ptxe8HvG7XJIBwb3WMWaZdags1aGB6+8/vizn/2s/XewN2F+xjyRcdD/EXcOinryrwxvKuzqu6bCzoyhcQZjx7jx4+31mKyJ5KUBDIq8Hnzjxo32dyS4dQqvQXV/PxiaiPtGPt4tnO8Jd/vch/J3kftUF09K8aSTi53RcSguXkLw3nvv2fXXrl3b4ya83OaaNWvsdEctUsIVFxfbfxsvNeElJAcC92nB7zUL99MM1vxbwNfHUO2GbOK+kE2xeR/X5efLv2UM7zy5mWv+RknfadvvObcJdt/XtsuOCv9Jx8AGtX+NTO+IiMQUNuFlLSEPYjprCsxhH1gTx+akvO0MgxubnzLUsTOSf/7zn7bXVR7g8Uz3P/7xD7uMTYqvuOKKiKU712DtD3aGtGrVKvv8DKdsRsehTNzXyIM+1nJ2NJ4gD2Dc5qJs/vbrX//aXqvq4kERt9PVtaWsxWaNZ1fvZbTxhMK8efPsZ3HDDTfg4osvtp8D/y18Pf/zP/9jmxXyc+5Oze3BpO0QJiyUBuuoxrXPmgq3O1LTYUQs4HWfbL7PQMZWJSzsTZx4bTr3qS42t/3Tn/6Ehx56yDbDJ/YqzpNFbrnmSydh26rb8Prz19v7u8JmvMTfO57oCw6qbs+6bkdrvJ8noljDyM6ZOM0TddzX9bSzPG6X+0z++7kv6Q53zOyO+g3oK3fdca59T+/4/ukh7zULm2zzPbvrrruwdOlSe7kH/23kfpe5r3dPTDKou2OOc7ieA9H0eSBp2wW7uz9nvjUoaPZeeI0raf8aTu+IiMQUt8kXD2q6wjP3xLDbGZ7d59lp9kjJJrPslfLcc8+1YfStt95qO9g/kHgWnjUh/PezJ2E292VPmGwuxloC92ArHA9qvvWtb+Hqq6+2zWzZM7B7gOjiQRH/7Z1hrSbfl8zMTGdJ/2CzYNYMsQMm1ixHwtp1vj+sae/v1xfr+rPGVU3ZYhN7POVQSsR9GWvtWPidcQU3i2UzVO4v3NYNkezcl4Xv/fAZ87ju/R4FN+HndtlaxO3EiCfDeCKS+2F+14kBlScmGWL5neY+iuG1qxOEDLc8ieUW1ja6YTdSj+iR8HVxH9mXLWkiSUxIxONPLcddvw2Mnx2MgZSXjbitf9yOA/n+uO8lv2/ud869ZXDvaN8p0WHedWcqVHQPHdSrcHfoHRGRmOIehHTVWyTxwIW6OkvPGkk2S2PTK/6x54EAO+pgZ0OxdM0km4GxRpgdSfFgjwd5HM/vv//9b4fhmmMwsoMmjgPI8rvf/Q533nmnc2/38Sw/m+25TZb7g9s0mLUlXR10MsyztqE7vxcDSX/WuKpX4dhkezZ1QkxHgkMsv+PsuZzfvY6a57JX4bFFnZ8QdPEkG/ej7nWs/I4yKLMzPBevfeU+jb2587KF4N9b/s7yu83Hd9VnAQOuW6PsFrfjp570WO6+H90ZUieahg7ORsGgyOGcNcAM0+xFnwHe/WzYEqezfxvvC26aLdEX+HoF7f/MsmgGV/Uq3D36iyMiMcUNTh0N0xCM1/xQR9d/BuOBEg+kOMwAm8otWbKkX0Nad/FsO8Mqm/cysLIZWFc1wu5QNixuk71wPLhhc0C3sDkuDyTdwudjk+ngZsbh2OSPwwmxAxFek8bxZjsrPBDjuizsbCocAyux2XdX2JM0g7z7GPFzm4mH13z2R42rehWOHbU1NTbssMUGv+ss7kk51mzykggX9yk8ScbQ59aAhmOvwiccOwkbN/k7UeoMm+jyu84TbsQTify+suMl7ieIv5/c57AlDXsR/s9//mN7B3/hhRdsk1g+huHV/X3uCGtyedIxuLg6+reE43fDDcjdfUw07NpTieHDcnHmaZF7QWbLGo7jzSD+mc98xjbxJr4nSc73mTWr/Jy5jvv3y21mLH2Lu1j/Ps+P17lGu6mwehXuWoI5IIrmuy4i0mMMnm4nS6wNPe+88+xBzNe//nW7rCMcBoYHRH//+9+j0usvh2xhT7aR7DMHTPX1oU1wKSkpEam9OGvPfyeb7q1YscJZEn1scvbVr37VmfPjGLG8lrY7eJD06KOPOnO9w9pgt0MYHuyyOTSvXe2qKTP99Kc/tQdzDPZ0/fXX4/LLL7fTBwOf14tfmgP4GTk5KDS/U/zj/Jr5vVv8j39g0rnn+lcKw/eDwZ+BgAGCTSD5/rCX2MMPP9xZKzp2774TjfUPYswIf03a7pLxaGo5E0VFv7Lz0r94cu+WW27BISaUTjLBdbL5LvH3IXicUV5GwTC79eWX8aG53W5+R3iiis1LyZ3mdebBtZ3cJ//+97935mDHiuZJMV5HG47XqBLHV+a0WzvIYWgYZtljOr/jwSdXeOjJ31Uu4/My4LLZLzsb6uk4qbzWk/9OXmrRnRY0XJeP4b+bNcB9yb2+90c/+pGzBPbfyfHIg/EkLE8uMMCH/y07cvdu8GrcoqOOautsy8XQylrjna+/jveHDkWKeZ/vuece516JpqJLn8XQscOQPch/LfX6ZetwzzWH4uz50bm+eN26UzEk/yPkZftPQqzbeiSGDPke8vIW23nxU3AVkQMuOLgSD8LZ+QSvfwwe2iUYa03ZqRGbuAY3SesNHmTwQK47eIDBIRWIB2i89spt2sVaSx5gdBfXjeWmXqyh6GysxJ5gM0H3oJmBmEP18ED3uuuus8s6wgNbBm0GMvd634M9uNKrJrie/c9/YuI559j5cPzdYa/MDKmsjWEtDJt8s1k8rwmOpl27fobmxj+jaLj/+7Zr3wQ0+xhcux6jV6LPDa7TTZicbX5P6kwAZE+5bidFPLxj0GQHbWnmd+sd1oqa+77xjW/YlifEE0bskZyPC77kgs122QLD1VlwZU0qT57wd5H7Prd/AgYsnpBjeOX+keG1o/4I+L3mmKxswhze/L0z7JSIz8e/IRzftatDWgZl/k1hk1yGRbdWs69ECq48YRd+gpS1rfybx9fHptasJed3mN/lT+3ciaLqajRkZNjPiftL29bB7JdZq217SW5pwVvDhyu49qExn38WQ8YEgus6G1zn4pz5kcdC7qm1a0/B0AIGV/9Y6mu3zMPQof9jflfPtPPip+AqIgdceHBlLSR7lOUBGA90vvjFL9plxKZdf/jDH+xjeBDFa1cPxG6MYY6vi824nnrqKVsb+NBDD9mDLjb3uu2225w1pTOsceVBLYc+6uw6V7d2/cknn2wL+QqusGNgssfs8ODKkykMAtG0a9cdJrg+bILrKv+8Da6LzYH2XXZe+pcbXHObmjDU7A+D94L8rgTvFxl0tpnfjwaPxw6fxWFz+DvC/RVrOdnqg99DV0bydkweU4It28rs2KOdBVee7DvuuOPsNLfJVjPBJ7rYIzqHrWFNIn9H2QER12EA4/OzppG1hjyR1Z1LRFx8XtacMnAz5DH8dYb7bIZshkk+5zvvvNOjkLw/goMrexW+4Ow5ePm1LSgYGdqCgv0TMISz9pkBln9LWHv9+OOPo9B8p/MbGzv9fGmr+Xs5zARbBde+MfYLz2LwaBNc890a1/W4++o5OGdBtILrQgwrXIncrODgeosJrovsvPip8bSIxBy3MyUe8PAMPscn/eEPf2j/+HOYADYx43VaPDt/oM698YCHNQk7d+60B2A8+GNTOTbTjEaz5YGC7xc7cvntb39rr++N5C9/+Ytdh72SqhOSUO6BNw9kyf0+9M01ruz10pm01KtwLKg0oW9dXh7WB5V1ubmh86YwtNL9999vry/ld4/7rUjYq/B3b3u6W70KswWFe30rT5Yw4AZfe8qWKOzNnTWuPAHJILdy5UrbzwADJ/ehrLHl8u7g7zbX51A6DK187s5CK9dnKGdNK4MkT37yefs6tIbrqldhfhbcv7FlCf/usekzlZhA39Xny9LknNyVvtMa3Dmd2fVF9/CDGwvdoHoVbk/viIjEJIY//uF+6aWXbHMu/kHntU9sjsZmwvwjH9xTpsQnHvSyhpA1Db/61a9szQObfrOzEZ68+MlPfmKbwvHgtKMhgQayjg6++yK4+nu9DBxY+Q/adBhxoGWY/eDo6urOi9l3Jju/K6ylZw1oZzxJLZg4vuNxtMOx2S1PPPFEBmv/ecvaV7fzIwZMNmnnkFtskcIaWo4ty/V4yQW/4x2duHKxtpbhk0P4sOaUv+P829BZ/wBsjcDm0HwcO3Zj5068xv5Adcw3fGguBhdE7lWYrYj42nhSln/b+J7QoMZGjDX7yc7KGFM8/RzEBxr+roZ0qm6mQ2Nm77S2toRsUJ3fRaa/OCIS03g2njWZDDEsrCXYt2+fc++BF3xdmOwf1s6wloEHk/y8+Tk//PDDNsCyhoZN+lhDdKBq1/uN8+/ryaFKeK/CfVvjGn5grHEGY8G4ykocZULOXBPKFqWk4AsjR+LKsWNx6fDhOMn8Pswxy48w9w8zwYgYLNkMlcVt4htuUE4jjj5qPNZt6N6+lkGL+2kGQ2KHTKxpZR8EDJfBvfeyWTCb+bq3bDbcnX4KuK91mzNzP/H666/bwNxZzSlPiPG7wU6bGKS5LzlQrTaKd1WgsCATpy2c6CwJxd6C3b8nfM1ufwu8htl+vubfcF5eHr5k3ttrDjkEXywqAq+UnWXe87nmbyKbFEvf8e9ig/bOZkF0/yaFj+NK2r+G0zsiItILp59+uq0pYO+OnGZtQHDvnNI9PLB89tlnbW262ysuhwPiNV6sITroQ2sEbf9iJ5RGEt5U2NU3Na5hB1b2KXUYcaD5zGdfbwLP+JNPRoPZD31ggs7bJugsM4E2bdo0DJ0/H142I3W+Q+zQhyeEWPPJDvCI3zl+39zy5DPLcfLZv8EXr3rY3t8dbCXjXl/NcMiQye2zrwJ+n90Qy+tkOc1WFGxWzADanWFp2DrDHc6Mj+dju8JWGtyvsPWO25z5QLnzVy/b9/TXv38r5L1m4Xty5JFH2qHDvvKVr9jr93n9PzWZ73KNeQ8POess7DG3b+zahZe3bMFKE1RHHHMMBpvPl78D0rfC32HOR/OvUvtxXHViMBK9IyIi+4kHe9/61rdsE6+77rrLNu1iE1d2ZCI9x2DE2nQ2leMBJw80u3NAO5CF1za5Ad/tzCy6wp+Lh246YI4FvHaTgZStF3hJBQuDJIMiT2IUBvXmy1542Wstv2vuCQ/WlPLxbnFrTnuKv4/83rKHXw41w+vSuT1iLSlrSFkzy2lXd09KsXUB97U9OYnF/UdnNbJdYYdR7Ml35syZdixqTvf2xCRrp4Pfaxb24sye0/l62XEWPxeeAHBNnTrVvne8j58NO5fi3xpeJ8xOnXLz8pw1pa/wMwkdt9XMRTO52m0HNujfvyqmhVOvwiJywPHAwu2IQqS7eBA5evRoZy7++cxB6y9TUjAzJwcF5pZ/nDmO69lPPomJZ5/tXykMO5lhEGHNFg+oGVh4MMtrwdmBTTQVF9+C1pa/Y9TQtf75vZPNcdWFGDnyx3Ze+lfwOK7nT5iAD0wAYidmvP6T2NTUHTP5MBNs/rx7tx0Oh53JMSixWSpPcLCzu/BehVOTdiAvfSO2F5fjgkv/X6e9Ch+M3PeR+5fw1gw8bN6yZYs9ueY21e9IcK/Ct377NCw6dTreW7obY6d8xlnDj9f284QdPw82sQ4+aXeU+VyPnjgRH5v3nvfzmmCejODnxT4geDvGhOEHzf0aDqfvTL7iOeQMG4ycAn8T7g0fbcD/XjETnz42Gn+DWs3v06fsvjU70/8dW71pgd235uREHlt+oFJwFRERiQH7E1wZUo844oi24Mpm626TTB40R9OOHd8zBw1PYOQQN7hOcYJrYIxK6T9t47iWl+Mc81kvMb8rDFnuCQsOL8UmujSvsBD379hhg+sFF1xge/VlYGXPvLyePDy4VlWW4sP3HsIF58zBgoW/HFDBldfecpgddzzcjrDGmp0EdlajGxxc/++n55ttpuK+P3+Cm78b+p1hcCX2JsxaZW6Ttaw8MXVSbS0mmX3CZvN5MbBym/ycWWvOVj9ctmDoUPxm61YF1z405crnkT20wATXXDu/0QTXn10+ExcdF43g6jPB9RgTXNeY4FpmlzC4jhp1u/mdiXwd+kClOmgREZE45R40h9cK9cU1ru2bsvH/GoLjQPOZDyLB+bz5e8BaOZbg3wlfUM3gf/7zH1x99dW48cYb7XQkZosm2A6cXtsLTbBnUGToZzBkKGXgDC4ccif40gUGR/aSfPTRR9thgNjJVFeam1vg9UYOumzyy5MHl1xyie2oyT0BwSDLMN0RNmfWMGF9j9+m4Jo+uzeMUt1fpOtbQ2/FpeAqIiISA9yDoJ4cCoXX9rjb6Jvg2v7gKjwwy4HBHrkZnNg8mJ8Ji9v7OgNWaZm/FocYtm6//XZbW8vpSIYW1OKaL30K5eX+nogPZnx/hg8fbq8PZo0nO4NjL8dsCrxr1y7bhJdN7xluGVzdYXvY3JpD9DBkFhUV2drrzq5/ra1rxKfmj8cVl851loTicy1atMh+hgyvvJ6V2ByZTZeJIZXPx1sGWmLHgHys9C3/ri54fxfNfZ9/v+12fufm4YQEnRgMp+AqIiISwzoLh+HD4bj6IriyVoDdk4TSYUQsYNjimKX8fWAnPyxsLs6wxWC2s7jYWRO2KTmXM6yxF2AK71X4iadWYMa8O7Downvt/cEYzjikDpuo8/pq/q5xnFQumzJlirNWKHZuRKzNdId5OfTQQ9uWEx/LnnW5PQY1XstJrM0kbv+kk06y63SG48OyFBQU2NfF9VmbyVpLvl73tbt4rTyvWc3Ly7O1p+53ia+D82wyPGzYMHtt8NatW+24sez4irXV7A39xRdftD0e85rhUaNG2cdG8r0fPmPf0x/f+UrIe83CJtj8zNjJ35133mnHtGYzZNcG5/PlCQp20sTC18Hn42spDzoxIX2EvxYhNazR7JxJNa7dpb84IiIicaqjGlc2FY2+0KM09SocGxLNZ55VV4fVzz+PsSZ0LTAhzS35JlCtN8Eq1Rto9svaPIY6li984Qt2GXupZW+1buF8R3htLHu85TW2DHkMeKz94zKGL+L1tQyPDM3E0EduM2YGZ3YkRgyyvJ81xuyZnYGaPe+yRpPruc1k+VwMiO7veG5ubltIdV8Hn4/PzedgzSiDvNuzMQMeQ7v7ul2sveTzubi9M844o204GnJrPF3utb4MsuTOsza0K3yu4Peahf9W4r/9jjvusEPisOkypZjveFZlJYpffx3TzPt0uAnYR5h/I0uSCdy73nwTyWH7AYm+BP4E7e44Ha3gGmhy7L8NbFcxLZzeERERkTgVfo1r3zcVDj1S0ziDB97OrCx8ZALeOhOani0uxt9MeHxs3Tp7+5IJVBtNMPzEhJxSE9A6wqB24YUXtpUvXXYilr5+I/75yJXOGgGsgZw3bx4OOeQQ2/stfwe5jMPFuNd5us1vWdPp/m4yELoBkGGVtZVsmsvmtnw8O3/ivNspEkMna12DQ2PwiRq31piF60yaNMlu112fQXXNmjV2G24w5fdi2rRpdtrF7wwfw1s2r2bgZedVq1atctYInAhiwOZzMGzy37Zjxw57y3kKBJD2fnDz6fY9/Z8bF4a81yzcBnsw/sxn/L0Ns0kymyjTGvPZvT9sGFaY533KfJ6P7tyJv5nnZXnF/BtXmfuXm/e7rJPPV3qvfVANHx6nN9z9uL0x/BPBJ1jET39xRERE4lR4jaurL4KrbSrsXINFGmcwNpSbMPVJQQFWmwDjlk8GDQqdN/fXOYGOPdgyILL8+c9/tsvC7S1Nx5//9gGGDmnfsy7DG4MamyezZpa/a6w9ZdBym66z5tWtlWWY4wH4xIkT24av4jiubKLL6zNZG8rtMOxyHYZBPgc7KuI2gn/H2cuui9ed8n4WBj2GS4Zft6Mi1shyGZvXusPasJkzX3cwBlWGXzb1ZRjmY/hYBmo2t+a22VSYuC3WLnMdBmViJ0p8LLFGuCN5uRlYtmIH/vL3lc6SUPx3//a3v7VNhdmLs/vvLjGveYN5PZ2VjaY09cnJKnFFypCdnKfokUDnTOEb1GcaTu+IiIhILHCOgnpyjt09uO2fGtdIR2k6jDjQMkywKjLhq6vCJqfE3nFZo8jiNnVtx/w6ddT7LQMvcbxRNjdmbSaXcd4NeOHYBJghlqGRTY1Z+Nyc5+P5e8zOkLgeQzCbzu7Zs8fW0jLYEjsr4u+322lROIZMvh6GXm6DAZbNhvkY1u4yXPI1sgR3ZsTAzWtvWevJTpn4GD6Wha9z7ty5bdflcmxX1jaz1pbLzjrrLBuw58yZY5+DNdCdaWlptSUSvk7WEjPEuycAaJB5DeNNIO6sjDVFzYX7FpsKh+wDzayzu40Cdz9ub8x2nYke/TUYGPQXR0REJAa1HRNFOtXv6M8aVx5chb4U9SocC8aZ0HKUCWJzSkqwyIS2iwoL8dnBg/EZE+IWms9n9r59OIIh0OmFNtiQIUOcqVBD8utw5Rfmo7Ss/WMYNFmj6gZNYu0n59nJUSQMdAyTDKustSQG0+BxYVlbyppYFwMqt8lASlw/+DYct+u+LtZ88nUylHKez81QyGmW4IDJgPrqq6/aWmSGXr4nbPbMwubQrH3tCP+9fA5eO/v22293+H2kqup6zDt8DL54sb+zqe6aboLskeZ9nm2C8dnmtXzWBOzPjR5tbznC5wzzuueaz7jAeV+lb3CXGgiUZu9npqPXVNjdjnPrPI16FW5PwVVERCROuTUz/VHj6m/OFjhQ8z+VDiMONJ/57OtSUjDmxBOxKyMDH5mQtry6GitYazh0KIYdfTSaeY2m87vBmkU2b2X57ne/a5cxdL388stt5e//XIY5R/8MZ326fa/CByOGWgZlXhPL3nzdWt6OMKC6tdYMywzcnYVWuvUn/7bv6U/+95WQ95rFvUbWxZpjd2gdNgGuzc7G6BNOwHrzGS4xAfY9sz5v06ZPR+FRR6FFJ5D6XHiNK0OrLzDbKxrHtfv0F0dERCROuQfL4TWffVXjGorPqQOrWDBm7Fhbi8jAxVpMFtYksgkvb3ntpotjjvJaUhYX12MTVbe4zYEHIp78YXhl50xsKhyOIfOtt97qsHa5KzzZFPxeszA4M6iyk6yvfvWrOPnkk+0JBtekyZNts2p+LqzlZuHjNm3aZGuE8wYNctaUvtLu3ADnoxRc3X1r+Diuimnt6R0RERGJU+G1PG6Nq9sLajRx28GdM5GassWG3Jwc21SW12eeeuqptjAEEUPs0KAmwRyzlWOQcvzRv/3tb3ZZ+16FT8Dyt76Npx/7ir1/oOHvOps/szb0jTfewJIlS+z79tJLL+Gdd97Zr2D/w++dYd/TW799csh7zcKQyt6UeTKBnUUxNLvNqHkSit9zFobUxYsX45xzzrHDGhFritm5lPS94L0fa2Dd/W3vhW/Hn5J1KUZ7Cq4iIiIxYH8Ogg5kjavGcY0Nieazdz9vXtfJToJY2Puty+P0eksnnniiDUm8njMvL89ZGmpvWQb+9NA7KMjvelzSgxm/Xwyp7MyJQ+W41+fuj5zsdLy/dCseeOQjZ0kobv/Xv/41nnjiibZejYlDDLk1v3w9rPHluvyMiZ+zu670He5iw/d2UYutblPhdn8DFNPC6R0RERGJRc5BTGdn3d3g6nLDb98FVx1YxRqf+cyDxzqNJPikyIoVK3DLLbfg9ttvx8cff+wslQONQwN96UtfwkUXXYSpU6e2dZzFYJqR0fEJBIZWNgeXvmX3w2HBMmy2F9wTkPbGbNfd52v/Gk7viIiISJzq3xpXNhV2JsnMqClbbGDzUo6Dyk59GHJY2JMuTZgwIaTznxNOOAGPP/44HnjgASxcuNBZGoq9Cl/x+ci9Csv+Ya/CRx7Wca/C7ODphRdesEGVQZTDFhGvieWJCQ7nw5DK2nLesnadOJ5s8PA+0jfsni54f2emo99UOHR7CQmKaeH0joiIiMSp4PEeyT2Q6otAqV6FY9f6DRswbtw4G1h5fSR7u+U1mqy5S09Px66gYWYYWjl8C8csffDBB+2yN998017z6pZHn1g6oHoV7g/BvQoHv9csbPrLsWB/8IMf2JMPDKfBHWqtWb0aM2fOtNMcD5eFNeezZ8+2JyXKy8rsfdJ3uEsNzqncw4bGzP2nXoW7T39xRERE4hRrXMNDKuf7piY0vKkwn0eHEQdaojmazqqrw8qnnkJOaSmOHzMGp0+ZggXDhqFl/Xqse+EFpDq1c/Stb30Ll19+uS233XabXcbaWY6j6ha3tlaijyebgt9rFi5btmyZ/Ux4neu9995rT0BQivmOZ5l11jz7LMaa9Y4bNQoLx43DEfn5KPvgA+x68014wi4ZkOjjteSh+7/WkCDbO27LGf8GA9vV/jWc3hEREZFY4Byt9CRyRrrGtS96FCZuu30e1mHEgbYzKwvLBg/GmuxsPLtnD/7fihW4d+lSPGiCz0sm8KzPzcXKggKUpKfb9dkU9Z///Kctbs+1p512Gi644IK2csUXjsXH792MZ/8+MHsV7gs/ufVM+57+4OZTQt5rlmHDhjlrtbfaBNT3zP0rzOf4j3378Kd16/B71pZv2oT/er1YZT7b5ebzL3M+X+kb7XKr2VPz+vLoiFzjqksx2tNfHBERkVjWycFLeI0rw2XfXN9K4SGZz6sDqwOtPDXVhps1gwa1ldVB03be3F/vdODEmr3jjz/elo46Z9pTmonf/+ktDBo0sHsVjqbMjFS89e5m/OnPy5wl3VOaloaNJrR2VjaZ0tRn33sh7mdbg5Or2fVFK7cGrpUN36A+03B6R0REROJUeI0r9W1wDT2wUlPhAy+zuRljqqq6LKnO9dBvv/22vc6VheOURsJDdI9Hn220JSUl9Ph9HVJfj/Hm8+usjK6uRkLUav8kkoin6KL2lvv34+45SLdXYe1f29M7IiIiEqf6s8aVHYgw0ATweSMezkk/GmuCy1G7d2NOaSnOTE/HpSNG4POjRuHiYcNwiseD2SUlOHLvXgyr8/cQPH78eHtLwdPBhhQ04NKLjsCevdXOEumtiso6zJ01Cpdc6O9kqbumm89vnvl8DzXh9NNDhuCLY8fiMvO5XWI+46ObmzFr3z7MMp99tpmWPmR3dcH7u7Aa2F5xT0CGb08xLZzeERERkTjVvzWuoQdV/gqevrmeVrrPl5CA2pQUjD/lFOzNycEH5eV43wSZDysr0TByJEYceywagn4nrrzySnzlK1+x5YYbbrDL3njjDTsUi1v++vf3cdixd+Lci++z90vv/eCO5+x7evsvXgl5r1nYq7CLJ6I4hit7g7bzptQNHYqJp56KNV4v3tqzB2/u2oWlFRUomDcPadOnq7a1H/D8oNN3kiN6nTMFmgr7BcZxDQ7KQgquIiIiMSD84KU72Btpf17jGvRUhsZxjRWsOd22bZvteImfP0tmZib27t1rlw0N6vyHw6+kpqbasUEZmqi+vt6u55aGhga7XKKP39Hg95qF32MG1bPPPhvXXnstjj322ECHTeY7Nn3GDDv8DT8nrssTVuyEbfXq1Rg1ejTS1DFTnzN7O7QGJVfu+aKUW43QpsIuNRVuT++IiIhIDOssHIY3Faa+61U49BpXf87WYUQs4LifHMKGoYbjubJMmzbN3rdnzx5bg+f673//i7vvvhu///3v8eyzz9plp5xyCs4999y28vmLj8WLT12LB37/OXu/9N6N159k39OvX3tsyHvNwpDKEw0jRoywQZZj8JaXl9vHcWze2tpa+9nyhMQhhxxiyxFHHGHv37Z1a8iYr9I37G42OKmaBftzsjGSwDiu7vbcfXrH+/6BSn9xRERE4lR4U+G+rXHlQVXIkZtT5EDqzued7PQoTBzH9etf/7qtpWUNXyTlVewBdxMmTxzsLJHeGjk8DyWltXj+pY3OklAlJSX43e9+h0cffdTWvrpNhXlSgsHV5fV6bWGQpVoTdLNM6JW+Zfd0Ybu7KOVWw92Q/zawXV2KEU7BVUREJE5FqnHtq+BqO2cKO3BTU7YDz202SikpKTbosKSlpdllFDzeZGVlJZ5//nlbC9vR+KHN3iSs3xi47lKio3hXBfaWBEJosFGjRtnrjj/3uc9h5syZGD58uF1eXV1ta2OJ33V+rixs7k2ZrJE14VX6VmJiAlp9oUk1dK43wpoKOxO6FKM9/cURERGJU/1b4xreVJgHVTqMiAVsJjxo0CD72fNaV5aPPvrI3ldUVGSvdXWtXLkSxcXFNhwF1+QFGzmkBj//UaA2dv369bYZKwOUSvdKVlYWBg8ejO3bt9t5+uwFh+Fb1x1lp8Pt2LED9957r51+7LHHMGnSJDvNpsOsUeXJCYZVBlmefGBzYioaMyakcyfpGzZCBgdJM+0LC7L7L7ypsEv713AJ5o9c9E4YiIiIyH5pNgeovzYHqLNycpCfkmJryV4vLcV5zz6LcWec4awV6te//jVuuukmzJ8/384zkDDE7Ny5085H0/r1i1GQuwT5ubv881sPR0Hht5Gff4Gdl/7FYHrLLbfgkLIyTDYBdMaZZ9rws3v3bmcN2GtdeY3khhdewEeFhdianY3p06fbAPTxxx8jNzfXhp65c+e21eARw9L999/vzAGHH344Lr/8ckyZMsVZIt2xdOlSO17uli1b2k4e8AQAr2sNtnbt2rZrWtnrM2tUOd7uhx9+iBNN8M02+4RDjj4aa9assR00EU9STJ48GXvNd7161Sq8PnIk8iZOxD333GPvl+g68duvodSXgoLhBXZ+y6otuO6MsfjGeZPtfG/U1X2ErVuvwaQxH8CT1Iy6hhxs3TkDkyY9DY8n31lLSMFVREQkBjSb8PHrrKweBddf/vKXuPnmm9uCK4MLD2x5G23r15+JwrylGJTjD0brtx6BwsHfxqBB59t56V9ucJ1ufkc4VmutCTsTJkywtXyJCQn2Gshdu3aZA+KtSG9uxrvDh9vgeuONN2LTpk325MasWbPaavmC8bHLly935mA7enKvuZSeY62rG1xZM97R+LmRnGAeO7yuDs1m3zDRBNP0jAxb+9dkPtMtmzejuqICzSbEvqHg2qdO/I4Jri1BwXX1Flx72lh88/xoBNdl5nt6HSaPfR9Jid624Dp58rNISspz1hJSHbSIiEgMajur3Ml1Tv19jWsw/2lvHUYcaDtMoFkyZAhW5ebiaRNg/9/q1fjTqlW4f+1aPF9VhdUmKC0z9+9zgmeFCTpsLjx79mwMHTrULpPY9UlBAd4dNgxLzef86O7deGDTJtxvyl9MoH3L48GKwkKsNKU6Odl5hPSF8L2wHR4nSnV/bfvWwE4/7FZcqnEVERGJAeE1ri3mz/MbrHH9978x7vTTnbVC3Xnnnbj11ltx1FH+6+ZYs8Pass2bN9v5aFq37jQMHrQcg3L2+Oe3HInBQ27GoEHn2HnpX26Na0+5Q+ewGTGbBAc3LXaF17h2d4ilObMn47STJuGxf67Aps3bnaXtsfb2lJNmorAgA48/ucxes3kw4wkm93C7pzWuPcHrmVXj2jcW3vwa9nkDNa5bV2/FVacW4cYLet98vrb2A2zbdgOmjH0PiYktqK3PxbZd0zF58gvmu5flrCWkU6UiIiJxKrzGlQfHfVfj2hpa+WumExI0XMOBlt3cjLFVVV2WVGf4FHbuw8+SzYUjhdZIGGS7U846fQauufIIHLNgUsT73eLxeHDtl47CTdd/CllZmRHX6W5h78hsQsvvQqT7Y6H0po5oUGMjxptg31kZZz7f5LCO2iS67H42+HMMm+2d8A35d7TqVbg9BVcREZE4Fd6rMPVtr8IB/l6FdWB1oBWZ0HKUCaCzy8pwVlYWLhkxApeOGoWLhw/HqcnJmFVaisP37sWQOv+QKQx5ruDpaHjhla24+YdvYsnyrgPxz3/9AW76/uvmd7h3R/95eXlYsGABzujgOvB4N7m8HEft2YPZJqCeW1CAS8eMweXmc/vCuHE4yXy+M8znPsd8vgVOp03SN+yeLuzMXW9OSAQLvwwjQDEtnN4RERGRWLAfB0H9WePK4JqQEPoaNY7rgeczn39taiomnHIKdmVkYIkJOu+bsLq0ogI1w4Zh5LHHoimoqe8VV1yBq666yo4Zes011zhLo6OpqQWfrCnpVhgtKa3H1u1Vztz+W716NR544AF7zW48Gzt2rB3D1S0crojY8VJ1VhbGnnQS1pvv+7v79uGNnTvtbYZZZ6gJ7S199p0XV/g4rtzrRie2kn9L7v7Vf1KQgoOykH7TRUREYlhnzcX6s8bVX7sQfKjG16UDq1gwbvx4O+RKU1OT/fxZOHZoSUmJbRrM5rSuZ555xg59w8LpgwE7meK/M56NHj3aDlHE63//+9//2p6cXRMnTLBD4bDZcUpKii0c5ojLOKTRoHwNmdLX7J4uaHfXan7Y83t0uPvx0O3pxGB7ekdERETiFA9k+7PGNZj/mE2HEbEgJzsbtbW1Nriy0yUWN/hwnFYOkeN666237Pi/d999N1555RVnafw66aSTcMkll+Dhhx92lhx4DJNTp061paDA35lPV/jZVVVV4b777rO37DiL3O83T1Kx8CTEsGHD2sbU5QkLzkvfsh9DUK5kr8JhOXO/te+x3d2na/8aTu+IiIhInApvKkzd7QG258xzhRypmUM31QgccByztSvJQUOlfPe738W3vvUtTJo0CRdccIGzNH69/PLL+MUvfoHy8nJnyYHHzqdY480S/N535r333rMdZvHkE2uPn376abucNasNjY12mljbym262+UJi6ws9TzbH1qDL5Vgbo1ScHVPCupSjK7pHREREYlT4U2F+7LG1d9UOEA1rrGBzRUTnZMVDEzsrIiFgcfFmnkXa2Cff/55W3PX3dpA6XujRo2y1x1/9atftdfsnnrqqXY5a17TUlPttNsEnJ8tmxQT5zm8kfQtniAMyZVmOnSP2BvhW3JPRnV9Umqg0V8cERGRGNAWDLtRg+aKVOPat02Fgw+w+Lw6sIoF1VVVyM/Pt5/9hg0bbFm6dKm9b8yYMTasut5//33bvJQ9ChcXFztL5UBj+GRhDeodd9yBl156yS539wtsScHCz5KFnVIRx4Tt7rBGsv/8u9mg/Z1ZEH4yb3+1byrsTGj/2o6Cq4iISCzrJMj2X42r/0gq/KWoKVts2Lhxow2oDK+VlZW2sKaOoYY1c3uCgg2b1LIpKmv1VqxY4SyVA23QoEG2xpy140cddVTIUEXrN2yw18vyu82QysLwesghh9jPs7yszFlT+kr4Xpj7wijlViO8x3Y+m/atkehdERERiVP9VeMaqBEIP1ILP5yT/pZojp6z6uux5tlnMai0FMeNHImTTIg9euhQwASeLS+9hFSv11kbtgkqr2/l8DFuc1Q58DZv3owHH3ywraxdu9YuTzbf8ZzaWmz6z38wzoTaBUOG4NgRI3Bkfj5qli/H3rfeQlLYCSyJPu5n2ZNwG/O9i1puDev4jsL36+Kn4CoiIhKngq9dpL6rcQ2v2XUPqvqqIyjprh3Z2Xh/2DB8nJeHpysq8P/Wr8cfOLbpxo14saEBn5iA86EJO/ucayJZK7to0SKccsopdhgZiW3rBg3Cu+ZzWmFunzKf74NbtuBPGzbgoa1b8Yr5/q8sKMBy8/mWOp+v9A2bI0MqRaPZVJjbCWzLv39VRItE74qIiEicCq9x7fumwu7Blf85VStw4FWmpGBDbm6XpcHjsev/8pe/xL333muHw7nzzjvtsljGjojYDHp/Cnvg7Qw7Nor0uO4UDnnTH8pTU7HJPFdnZXNODpr75HsvLn/v3aFBNUq51eB+3JkkO63PMxK9KyIiIrHAOQrqSRQMv8aV+mI4nPDOQwJ0GBFvOF5ofX09Ghoa0Bg0zEqsYvgsLCzcr9LVdyEtLS3i47pT3F59ZWBgsAwPquzROzq4neBtcaixnvwlGDj0F0dERCSWdXIA0981ru5toKmwDq5E5OBn93TB+2KbZJ3pXorcq7AiWiR6V0REROJUpBrXvgmu/mtpwzO0ehWW/sSa4vXr13daIn0nuoND0UTaXnBhD74yQHHfF1zDaqajlFsN9SrcXXpXRERE4lR/1bgGOiHx3wZqXHUYIf2nqqqqW2V/cIigSNsKLzIwcT8bfN7OVrhGKbnaGtewbemkYGR6V0REROIUexUOvxaqL3sVVo1r/LEH3OEfnMSVvvlOS0/wGxSSLVvDhsfpFW4nsC3/iUF9ZyPRN0FERCROhTeL7K9rXAMJVgdXsYidEp1zzjn4v//7Pzz++OP45z//iT/84Q+48sorkZ2d7awlsYzj7N56663461//iieffBIPP/wwbr75ZjsGr/S/dud+zHy0alz9TYWdSYdOCkamd0VERCQGBJrjdl94U2Hqj16FAy9VhxGxZvTo0XaYm8svvxzjx49HcnKyPZkxbNgwLF68GPfccw8OO+wwZ22JNezp+JprrsGPfvQjHH744XbIHsrJycH8+fPtZ3vJJZf0yfdcOuZvKBy0j45icPXv+4M3xufSvjUSvSsiIiIxrLNmnv1X4+o2FQ49UlMT1NjC2tQf//jHmDhxorOkvUGDBuGWW27pdB05cBhaTzvtNGeuPX6/P/OZz+Ciiy5ylkh/8O/qAvu7hKg2FfZ3fufyB2LtWyNRcBUREYlTkWpc+yK4th/H1X1O1frEki996Us2mHaFvyNf//rX7RipEjvmzZuH448/3pnr3IUXXojJkyc7c9LXEs1+NqRVjNkFRqvGlbWt4ScFFdEi07siIiISp/r9GlfnSE3juMaeoUOHdjv0EJsUL1iwwJmTWMCa1O7i95zhVfpHeOMS1rZGK7hGOjGoa1wj07siIiISp/qrxjXQVNjetNHBVeyYOXOmM9V9s2bNcqbkQMvIyOhx8+39+cxlP5l9X2iFa1gNbK9wO4FtqVfhjukvjoiISCzYj4MgDocTrM9rXNtu3YMqHVzFitzcXGeq+9jhj8SG/fksGHY9Ho8zJ33JRsng3Z2ZjlpuVa/C3aZ3RUREJAa1HROFH9EECa9xZXDtm16FI3UeQjqMiBU1NTXOVPfV1tY6U3Kg7c9n0dTU1O7klfQNu58NTqpmMlq51V9zG7w17tO1b41E74qIiEicCr/GlfqyxjXQgYg/LKtWIHasWbPGmeq+/XlMd6Smptpmrx2VCRMmOGv6r82NtI5bgtftKY55Gmmbbhk7dqyzZs+NHDky4jZZ9me7PPFQXFzszHXP6tWrndAjfc1/fjBwkpALovfetzjb9/NvNmiBtNFfHBERkTgVqca1L4Jr+85DXDqMiBXbtm3DRx995Mx1raysDK+//rozF31sutxRCRdpHbf0BsewjbRNt/RWpG2y7A9+d5966ilnrnt6ur7sP+5lg2NqeAVs73BDIVs329e+NRK9KyIiInGqv2tc3Vv1Khx7GHzuvvtu1NfXO0s6d88996ipcIx54YUXun3y4aWXXsKSJUucOelr/hOEQeHSfN+Co2ZvhJ8Y9G9XES2SBLOji9b7LiIiIvupobwcv8nPx+zcXAxKTobX/Hl+s7QUF7z4IsYsXOisFeqss86yB69Tp0618ytXrsSiRYvw4IMP2vloaWzciE2bPo8Jo5chJbkejU0Z2LRjDiZM+CtSUoqctaQ/MeDccsstzlzAnDlzcMMNNyDf/C5Fwusi77//fjz77LPOkvZ43eTy5cudue5LT093pvqG1+tFc3OzMxcZx6bdn+u8u7NtbrenY9+Gb5fj7I4fP96Za4+f2ze+8Y1Oe3x+44038Jvf/AZ1dXXOEr+ioiJ7QkKi7/K7PsC7W+oxbOwwO79z006cMj0Xv756rp3vjX37/oia6t9g3Ej/SYt95UWorjve/J5Edz9+MFCcFxERiWHhw90EY8AIv79vmwqHn+tWjeuB0lEvtAyc1113HZ577rmQYMPflQ8++ADXX399p6HVlZaW1uPCupC+LAyOkZ43uPD3P9Jjuyrd2TabHkd6bGclfLvcRmfYhJsnJH77299i165dzlK/rVu34mc/+xnuvPPOdqGV9reZsnSN+1nziTpzfr6oVf21bznT2X5/IFONq4iISAzoqMb1wpdeQtFJJzlrhTrttNOwYsUKTJkyxc5z+pxzzsGf/vQnOx8tDQ1rsXnz5ZhY9CGSPQ1oaMzE5uLZmDjx7+ZAfISzlvQn1uRdeOGFnfYqy9BUUFBgw1JJSQkaGxudeyQeMLwwjGZnZ6OiogLV1dXOPZEtXrwYV155pTMn0XTlL5fgrc21GD52uJ1njevCQ3Jxz7W9r3Hdu/d3qK35PcaNXOGfLytCbcNJGDfu/9l5CVCNq4iISJwK75yJGFaizz3H7d66z6lagQOF43eefvrpzlxkDLV79+61vdUqtMYf1i0xsG7fvr3L0MrfB57Ikj5id3XB+7v2NbD7L3wcV85o3xqJgquIiEicCu+ciQe6/dGrcKCtlg4jDqRLL73UDr8iAxtPXl1xxRUYNWqUs0SijcGybTQwi03Bncleso1fQzamXoU7ondFREQkFjgHLj05zx6pxrUvexVuG8e17TlVK3AgsTOkn//85/jc5z5nO+jKyMgIuZ5S5eAuhYWFmD9/Pn7605/aTtmk75goidag5MpdYLSCa/g1rv7tKqJFomtcRUREYkBDWRl+U1CAObm5yEtORrP58/wWr3F9+WUUnXiis1ao448/Hhs2bMCkSZPsPDvmueSSS6Les2h9/Qps2XI1Jo1ZAk9SE+obs7GleKZ53qfg8RQ6a4mIHJy+8uuleH19DYaP81/jumvzLhw3OQu//+phdr439uz5FRrq7sOYER/750vHob7pVIwd+zs7LwGK8yIiInGq/3oVds9x+28D47jqMEJEDn5hu1mrr2pcKXy/Ln76iyMiIhKn+usaV/fAKvxYStdhichAwKbC7ok7y8xGK7j6+xAIbMy/Xe1bI9G7IiIiEqfCr3FlcO3TXoXbjtTc5wxLsiIiByGeDwy0NDF7PjPdl70K66RgZHpXREREYsD+dDkRXuNK6lVYRCS6wmtc2VFT2G5xv/n3/cH7fz6X9q2R6F0RERGJQe4J+M6udYpU49q3TYVDw7WuwxKRASHCri50b9gbkU4Mat8aiYKriIhInDpQNa6Bg6q+aJYsIhJb7Dm6oKRqh8fZj1YykbVGOCmoiBaJ3hUREZE41X81ru5Blf82cK2XagVE5OBn93Rhu7uoxdbWFmfKxSfSvjUSBVcREZE41V/D4QSaCtubNqoVEJGBwO5ng2tYw2Z7J7TG1X9iUPvWSPSuiIiIxKnwpsKsce2LXoUDTeLcWzfBhiVZEZGDkN3ThZy5i2ZT4faXfOikYGR6V0RERGKBcxDUkygY3lSY+qbG1d+UzX2qwPGaDiNE5OAXocI1ik2FuaXA1lrt1rVvjUTvioiISAxqO4wJC6bBItW49sc1rm68Vq2AiAwEiXY/HAiXnA4Osr0TPo4rdbzfH8j0F0dERCRO9VeNa8fjuOrgSkQOfuG5lbWivqglV24ndFs6KRiZ3hUREZE41b81rsEHVjyK0yGEiAwMPEHYGrQPbFcB2wvqVbj79FdHREQkTvVnr8JhT9PueUVEBpLoNRWO1KuwxsiORMFVREQkFjhHQT05FuqvGld/U+HwV6ZDCBEZGHieLiGkFjS0BrZ3zP41bFM6MRiZ/uqIiIjEIifIdnYAE36NK4NrXwyHE17jql4vRWQgsfu/oHDJ+WjVuLbrVdhOav8aid4VERGROBVe40r9dY2ragREZKBgbWtrUHNe7g+jFVzDTwzy2fxFwim4ioiIxKlINa7916uwDiFEZGAIr3FlsIxWU+FIl2KoV+HI9K6IiIjEqf6scQ3uPMRfG6BDCBEZGNoHVwZOZ6LXwk8M8skCJyQlQH91REREYoD/Oqee6b8a1/DhGnggpwMrERkYEs3+LmQ4HFOillsjnBhMSFCvwpEouIqIiMSyTgJi/w2HYw6qgoK1v0ZAhxAiMjDYvWzwSUIGWV90omv4pRh+He/3BzL91REREYlT4U2F+6tXYdI1WCIyYHD/F9wqxkxHJ7YStxR8YpD/1/41Er0rIiIicSq8qTD1TVPh0AMr/1GcDiFEZGDgfjZ4T8vdbnCO7Z32vQrrUozI9FdHREQkTkWqce2bpsLhz8P/68BKRAYG7u1Cc2qCc0Kv9yL1KqyIFpneFRERkVjgHAT1JA72V42rv0ZAB1YiMjBFqgCNTmyl8BODfDLtXyPRuyIiIhKD2g6KOmky1l81ru07D2FTNh1CiMjAYE8QBtewhs32Tnivwnw+7V8j0bsiIiISp/q1V2FTKqqHoKxyBJq9KeagzYvGxg2mbDRlkymbTdliS1PTVlO2mbLdKTtMKUZz805Tdjlltyl7TNlri9e7z5QSU0qdUmZKufk3VphS6ZQqU6pNqTGhnaXWlDpT6k1psKW1tdGUJlOaneI1hcP5MHxHapInItI5u5cN2tfyiv4lE7oAAEGuSURBVNfoNhUOYp8ndL8ufgnmTdceXERE5ACr27MHvxs2DHNzc5GbnIwmnw9vl5XhM6+/jlHHHOOsFYo9CE+dOhVDhgyx86+99hoeeeQRXHTRRXY+WvbsuQvl5Y+bAyz3YIqHDgfDgVXgANF/AiAw704HTgwE38/l4cvIXT90mVt6+pj9f24Kvj9az23+H7K+fxlve/fcFLi/p8/N0tPHdP7cwcX8P2QZBeaj97yh8/5CXb1WCiyzcyHPTf7p6D536Ly/mP/38LntXA8fs3/PTcH39cyPHlmFB1/bhaIpo+18SXEJirJ8eOa2T9n53ti8+XJkpr2M7Ixys09vRvHeycjMutrs169y1hCXgquIiEgM2J/gygOy6dOnY/DgwXb+1VdfxWOPPYYLL7zQzkfL2rWnweerduYCxo74CImJ7Q8jAgHX5Z9vO+JoO5AM6PIxVmAd//L2j2l/VBO+nfDHOM8dsrjzx/T0uV09fVxg8f5sp5fP3bY86DFmsv3nRJ08xujecwfu73g74dswnN+ljh5DHb3m3j9/B48JWm3/njvSYyS6+B773+fuBN4/vHQMnlpxtAmuRXZJSfE+DE5ai99d+bidD6zffjv++0Ln/fyPYesTf6sQv4QEHwYN+hyGDr3WWSIuBVcREZEY0NPgyj/fbBYcHlwff/xxnH/++XY+WlavPtb8P3Bg5Ro7YiXS09oHWhHpCz0PvCHB2U7653u2nf15jF9HYb9tW23hMKDLx1iBdTp6zaHrU/h2wh/jPHfIYv/MXf+6AH9551wUTXWDawmGpyzD377xIzMXvp2On5vCX29Z5XB4W1KcOb/k5GGYOPEJZ05cCq4iIiIxoHb3bvx++PBuB1de3+rxeDBjxgwUFhaag6FW21T4H//4B84991xnrehYv36xve403PhRK8z/3euz2MGIM2kFDi8Cy8MPObr5mKCHte/dmLraTqTHiIh0z+1PfAF/evUSjJk6xs6X7CzByNQP8NytN9j5/eVtScb6rUc4cwEJCbwM5HVnTlwKriIiIjEgPLg2m+D6lgmuF73xBkZ+qv11VM3NzUhJSWkXXJ988kmcffbZzlrR0dCwCZs3f95MHWyHDD0PvCHB2U765zvaDnUUtqlXz2+FbSfCYV2Xj7EC60R+7vD3isK3E/4Y57lDFnf+mJ4+N3X/MeQ8v/0/7c/z789jyHnutuVBjzGT3fs9CV2ne88duL/j7YRvw3B+l3r0mHbPTYH1OtpW+8d18Jigh3Xv+cO3E+kxXbvDCa5FbnAtLsGItCV4/tbr7fz+8vkSsXbLPDMV8qKRmJiCKVP+68yJS8FVREQkBvQ0uDY0NCA9PR0zZ85EQUGBOQDy4fXXX8e//vUvnHXWWc5a0eP1VmDv3ntsD8B5eaeY555tlvIQotWGZj//fGB5+DJy1w/MB5euHxNYFlhOofeHru9fxtvePTcF7u/pc7P09DG9e24KzEfvuUPn/YWi93p7/9z+HqQ7Wr/3z0vufe2X+ZeHzvuL+X+nz03B90n/6Dzw3vfK8fjnspMCTYV3liIfn+APX/6jnfev7n9MR9uh9mG7FS0tyfC1JjnzfuyYqaDgUmdOXAquIiIiMaCnwbWurg6ZmZmYNWsW8vPz24LrM888g0WLFjlriUh842G6/1C9+4HXXR6+jIKDdmBZYDm1vz/6z03B93fnMYFlgeUUen/o+v5lvO3Nc//qX8BDb6ZhjBNcS3eVojCxBI9/x2vvdx/T0XOzdPR6W1q8qK5+3nbSlJDgQWHhZSa0fs7eJ6EUXEVERGJAT4NrTU0NsrOz24Irr3l9w6z73HPP4bTTTnPWEhGR3vr539fi3he3tV3jWrqzBENSvHjxdnZcJ/2lL0YpFxERkZ5yziOHXunUMdawUmDIBj/2NCwiItFjd7PBVX1mger++p/+uomIiMSgtkOisGDqcoOryz2IUnAVEYmuRAbVkOTadq5R+pH+uomIiMQh1biKiPSPdjWuhoJr/9NfNxERkTikGlcRkX4UfJKQNbBKrv1Of91ERETiEDtjItW4ioj0Le5mQ0ayMaFVsbX/6a+biIhIDHDP3reGBdGOdFTjmpQUOh6giIj0Dk8QBkdV7qZV4dr/NByOiIhIDKjZuRP3jhyJuXl5yPV40GSC6dtlZfjsW29hxIIFzloBxcXFGDVqFAoKCtDY2Ii0tDSUlJTgc5/7HEaa7Yh0Zf369Xb4JP7+DB48GK+++iqmTp3q3Nt7T75bjBvv+wiNTT5kpnlw1rzhyMtKce4ViR9L1pfj/XXlSEQCfK0+eDzJGDUoBW/edYKzhvQHBVcREZEY0NPgunz5csydO9eZC2CATU5OduZEImONfW1trTPnx9r6iooKZGVlOUv239urS/Hpn7zjzAWkZqQ6UyLxw9fSiubGJmfOLzEpAdseXOTMSX9QcBUREYkBPQ2uX/ziF/Hggw86cwH5+fmYNWuWMycS2bJly1BZWenMBdx+++24+eabnbn9d8K3X8P64mpnLmDIyELkDc135kTiw85Nu1BT0f73+b1fnYiRBRnOnPQ1XeMqIiISh6qr2x9EUfi1ryKReL1eZyrUzp07naneqa5rdqZCNXv1+ynxp7WD/ere8kZnSvqDalxFRERiQE1xMe4dNQqH5uUhpxs1ru+99x6OOuooZy6A1yqmp6c7cyKRlZeXRzz58cknn2DatGnO3P676Y8r8Mhr25y5gLyCPCR6VG8i8aWhrhF11WFN6xMTsPmBRVBH7v1HwVVERCQGhAfXRhNc32FwffttjJg/31kr1He+8x38/Oc/b+tRmKG1qKjITot0hsF18+bN9rpW1r6mpKSgqanJ1tiHD7G0P15atgdf/MUHSExKhK/FB0+yB95mL2aOzTXbd1YSiRPsUXj9zho0NPk4g2Tze/2Xm+ZhwfQCZw3pDwquIiIiMWB/gisxaKxZs8b2BqsxXKW7HnroIVx22WU45phj0NzcbIPspk2b0NDQ4KzRO25wnTB7IlpbfWisa0TxhmJsvP8MpCbr91TiU12DF/sqmzBmqK5rPRC05xAREYljDKts2qnQKj3BIXD4O8PaVda28gRIamr0e/zl9j0ejzMnEt8y0jwKrQeQ/sqJiIiIDDBucHX1VXAVEYkWBVcREZEYoCt3pD+FB1f+/nEMYBGRWKXgKiIiEsOi0VGOSDhey6oaVxGJJwquIiIiIgOMmgqLSLxRr8IiIiIxoHrHDvxh9Gjkp6SgoaUF6UlJKG1qwiEXX4zM4cOdtUQ6VrlhAza/8AJazO9NWn4+LnzxRQyeM8e5N9S3v/1t/O53v8Nhhx1m59mjcGFhIZYuXWrne8vtVXjinEkmICegtqpWvQqLSK8ouIqIiMSAfR99hIcihAwGWI+aC0sXfKbUer3+GUdCYiKuKS1FWl6esyTghhtuwAMPPIC5c+fa+Q0m9I4ePRpvv/22ne8tBVcRiTYFVxERkRjwny9/GSv/+EdnLiAvORlzcnOdOZHIPqysRFVzszMXMP/WW7HgttucuYCrrroKjz32GGbPnm3n169fj8mTJ+OVV16x872l4Coi0aY9h4iISAxoqq52pkLp7LJ0R4uPda7t1e3b50yF0jWuIhJvVOMqIiISA/YsW4aHDz3UmQsoTEmxzYVFOlPe3IyasKbCdPmqVRh0yCHOXMDFF1+Ml156CdOnT7fzq1evxlFHHYUnn3zSzveWalxFJNoUXEVERGLEW7feivd+/OO2MV0zhgxB7rhxdlqkM3V796J6yxbwFEez+f1JTkxEa0oKrq+v968Q5vzzz8ebb76JadOm2flPPvkEJ5xwAh599FE731sKriISbQquIiIiscTnQ/nGjRg0YQLMEb+zUKRzS/73f/Het7+Nefn58JpDu90NDdhXUIAvbd3qrBHqzDPPtD0IT5061c6vXLkSixYtwoMPPmjne0vBVUSiTXsOERGRWGLC6qBJkxRapUcaq6qQZH5n2P90ckKCDa8pOTn+OyNoMME2+BpX1mPoGlcRiWX6qygiIiIS55oqK0OGTWphEO2kN2p1ziQi8UbBVURERCTO2RrXoODaVY2rgquIxBsFVxEREZE4167GlUG0ixrXhKD1FVxFJNYpuIqIiIjEuZ7WuIZf48rgmpaW5syJiMQeBVcRERGRONcYVuPK4NqTa1zVOZOIxDoFVxEREZE411RVZXsTdvU0uKqpsIjEOgVXERERkTjHGlcOh+Nir8LqnElEDiYKriIiIiJxjjWuPWkqzGtcwztn0jWuIhLLFFxFRERE4pivuRne+vq2zplauUw1riJykFFwFREREYlj7FGY3BpX1rZSRzWuXq/XBlV1ziQi8UTBVURERCSOcQxXcmtcOYYrdVTjytpWcoMrQywpuIpILFNwFREREYljPa1x7Si46hpXEYllCq4iIiIiccytcQ0Prh3VuLJjJnI7Z1KNq4jEAwVXERERkTjm1ri6TYX3t8a10+Bqtunbvh77Xroau/99ESo3vubcISLSPxRcRUREROJYXWUpEk1oZSGO4ZqY7EFSB0E0PLiyYybqNLju3ImEP52MwhcexNCXn0L1b06Gt7HEuVNEpO8puIqIiIjEMVvjmpaAskIfygb7UJfWiuScdOfe9mxwNUeAvjwfmgqa0JzRbJd3Gly9XiTUlSBhZD0SchuQm5ZhEm+Lc2cHEn1oTq9AY9ZetKRVOwtFRPaPgquIiIhIHNvbtAtbjwY+PsyLjw815Sgv6sZ3HEKrmkzQnQvUzq5F1ZQqVM0084cAKWkpzhrd4K/c7VBjYgOaxm5E1fDlqBnyCaqLlqN55Db4zI+IyP5QcBURERGJU/XmZ03WZnNAl4DBuxNtSWxoxZ5Dk1BtfiLZkLgBGG6CalkKUktSkVhuDgcnAaUZpc4a3ZDYSe2ssSN1I3y5FUipLTRlCDx1g9AydDeKE3Y4a4iI9IyCq4iIiEicqjA/Nc0VyKoOVIEm17SiNTsZ5eYnXIP52Z2w26RUcxCY4BwGek2pMYvSuh9cEzqpcuVzlCXvQWJNtpnzr5fgS0JCYyp2mh8Rkf2h4CoiIiISp9j0NsHjsR0yuWpbWpCclYYW8xOO63tSPJyA18vECtTX19sa2+S0ZJjIa5f1Bp83LdlssTUBPq//NbQ0t9iDztbELq6LFRHpgIKriIiISJzKMT/jTjoFVSk+rKmuxqa6OlSZcDji+JnINT/h0s3P0YccjVFzC7F27Vps3boVO3ftxBEnFWJU8qhOa1K7K8P8HDmqCIVFFdi7fS/KdpeiYl8ZZk9djxGJw5y1RER6RsFVREREJE5lm58jx5+GvJ+PQNWJLSg9ugmpt6Vj7pQjkW9+wjGYTk+ajm/84ALMOq8ZOVNK8Kkv+XDZ4gkYa36igc8xI3Earji7CpPmPou8wW9g7jGP49OHbInac4jIwKPgKiIiIhLHxpifuWMLTQAFjr0KmDkxDRO8Hddssib26Kxp+NoFwJ1fA75wkgmazXlIMT/RwudYkDIGl894Dt87+iFcOOFtTGvIQrL5ERHZHwquIiIiInEuuzXNNvJNMiWvxWOXdSbRBMiUViDZlCwf4PF145CQnTkVm9vdpiR2vX5SoonCZvse5zmSfL1vhiwiA5eCq4iIiEgcSzU/szwnYl4tcGgdMMs7HpkmyHZmiucoLDDrz64H5jXkYXBz58PbYORI4MSZwJFm+gSg+Yiur1WdmjQfR5vnmGufY5B5js5fk4hIZxRcRUREROLcUF8WippgyzBvir3OtDPZyGxbv6gpEcmtXRwSejzA+ExTzLQpvsKumxXzOUab7dvSnNT1c4iIdEJ7EBEREREREYlpCq4iIiIiIiIS0xRcRUREREREJKYltBrOtIiIiIjEgQ07SnD/0+87c8DxIx7FyaMestNrS2fgtR2LsLXxWDsfSUFaMb4x68t2urY5B69vmIE3q79n5zty2ZT/wcTcZXZ6+Y4peHr3rWjw5dn5SAan78ANM79ip2ua8/D6xpl4q+o7dj6SeTPGYPEx0505EZFQCq4iIiIiceaVJetxzo33O3PAt056G7ee/pqdfmXNaNzz6mF4acMhdj6SCYPLsOzb99rp0pp0/PXdInz3+fPsfEee+vLfcMLkzXb6+RUjcNXfL0BZfaadj2TykFIsuekPdnpvdaZ9jlteOMfOR3Ll2fNw1w1nO3MiIqHUVFhERERERERimoKriIiIyEEkGc3IRBXysQ+DUNrFwDgw97ciBU12fZYU8/jIAo30PGadPLNtrp+NSmdpxxLhM9ttbHuOZPN8IiI9oeAqIiIiEueCw2MaGjAEuzEOGzAe6zDW3IaH1wzUOlNAElpM0K2x67NMxsc2ZAZj8MxAnTPH52hEETY766/CYOx17gkIf46soOeYYh7DsCwi0l0KriIiIiJxbCiKO631ZA1nETY6cwyUdSbMBubDpZrgOxmfwAOvswQmAK814bOjmljY7ReY53ExtI7p9Dnq2z2HiEhnFFxFRERE4lgOqpypjuUEBdsM1Nga1M6kohEpJsC6utMcOHgd1uB2/RwN7Wp2RUQ6ouAqIiIichAZM9yLixeW46jDxztLOpeeloAZ4xpw6dkFzpKujR7SiG9cXIcxo4c4SzqXkQ7MnlCHz/XgOUREgim4ioiIiBxEElvrkZa4C76W7jbD9cGTUI1EX4kz37XEhEYktxaj+6Mq+pCEGsBb7syLiPSMgquIiIjIQcSNki0tnTfVdbnZs6mpe+u7vN4W89huPsZ9juYW/4SISA8ltHb/VJmIiIiIxIBXlqzHOTfeb6cnYTUGJZbDk+RDcnISMtJMaDV5sqo6Ec1OeG1CKlbiUDtdiL0Ym7ARKZ4WJCYmICPdg8SEFtQ1eFBbHwiWqzETdciy03PxLlK5fkIr0tK4vg/NXg/q6n3wOYeSpRiMLZhopwdjD8YkbGp7jrRUj1nPh4amJDQ2Bj/HLPMcmXb6yrPn4a4bzrbTIiLhVOMqIiIiEsdKTRT1+hLQ2JyEmjpgb5lZVoG20EolJkq6qpCDxtYUu359Y6JZ14d95QkhobXWBNYGpDtzQBmGmKCaaB9TWd2K8qoE81wtbaHVhwSzTqGdpirkoinoOcqrfOZxCAmttcgOeQ4Rkc4ouIqIiIjEsTITSrdiQlsT4XC7MMqU0c4ca1/TsA7TzG2ysyQUQ+t6cz+vSnVtxXgTfiN3xMTQuglTTFjNc5aYgOo8R3OHz5Ft7j/EPFaHoiLSPWoqLCIiIhJngpsKu9JRZ6Jm6DWkDJVuc99wybYBcfvhaOqQERJaXQmmZKLaPxPEa7bUYIJqJCkmugYPq+OK9BxqKiwindFpLhEREZGDQL0doTU7pHQUWomRMnx9lkihlVjTEWn9jkIrsVY30mM6eg4RkY4ouIqIiIjEsUHZ6Zg0uhAJCQlISkzEtHFDkZme4tyLkGnXyMG5+MzJc5CblYZj5463jx0/sgDpqck47/iZmDe9yFkz1JBBWZg5Ybid5mNOXzAVR3awLnGdEw6biERzW5iXaZ9v3Ih8+zpFRHpCew0RERGROJZjwuAR04rw6YWzTSBMQNGwQbj5CyfZ0Mig+NSdl9vpYF85b74NuDV1TfjyufNx/KETcMGJs3D6/Km2w6VTjprirBnqqvMX4LwTZiIjLQWnzZ+Co2aMQXJSx7WnJx0xCTMnDse5JgwzrP7y6+fglstPbuvUSUSkuxRcRUREROLY1l3leOSFDzF2eD6avC14/p01+Gj9Tluzed7xs+x9R04LdM6UlZGKvWU1qKxpQIvPh2Vri3H07HH2vvc+2YadJVWoa2i288EYfpuavHhlyQbMnTwSM8YPx6sfbkRdY5OzRnuHTR2Fux97ExNHF2JPWTXWb9+Htdv2QV2siEhPKbiKiIiIxDE2w2UTXq8z/I0nyd9ceMeeCgwelIkHn12CY+aMt/dRTV0jCnIzMHJILtJSPDZEbtxRYpZlotrcl22CrbcltJMn4npJZttnLDgES1Zvx7sfb8U5x82wj+vIG8s34farz7BB2rViQ2BaRKS71KuwiIiISJwJ7lV49qQRWDBrLB5+bimavS340jlHmcC4GcvXFdvrUVdu3NV262IT4kOnjML7q7bZoFpeVY+xI/JRWllrr3X9YNX2iLWiXDcvOx3bTSimQ6eOQl19E9Zs3WvnI2GIXr1lr90eQy6Dc2Oz17k3QL0Ki0hnFFxFRERE4kyk4XDinYKriHRGwVVEREQkzkQKrouPmY4pY4bYmtNWXyu27SnH2q378NTrHztr9D/2KMwaYb4mn8+H0so6bNxRir+9uMxZI0DBVUQ6o2tcRUREROLcjZ87wfb0u2xdMX75yGu466+vYemaHUhL9eCWK0521oJtMnzKvClI9vT9OKrsSXjCqAKs3bYX9/7jHfzvw6/hzeWbbTPhh394ibOWiEj3KLiKiIiIxDHWVDIMshbzpffXYcOOEmwqLsXLH6zHoy8utz0IX3vh0XbdMz81DZU19fj+lafgwpNmtxsmJ1oYjnnd7X1PvYfn3l6D1Vv2YGdJJV5bthH/fHUl/t+/3sfPrjvTWVtEpGsKriIiIiJxjM2DH/r3EmeuvQee+QCTiwbbaY8nEUtW78DPHnrF1n5GumKMy3zN9fA1VMBXVwpffTlaG6sBX/sOlTpy6JSRuP/pD5y59tjUmZk5PyfDWSIi0jkFVxEREZE4NqIwxw6Bc/ikwfjzTSfjke+eastj/3MGTjlslB3CpmjoILvu7fe/bMdu5bA3u0qr7LJgrc11aK3di1aG1SYz7W00y0yINcG1pWavDbFo9Q+70xn2PJyakoTh+Rl44FsL8cjN5jU55drFs+w6RcMGRQzOIiKRKLiKiIiIHAQy0zw4dMZEzD90hi2HzpyMjFSPc6/fl889Ct+4+DhbfvftC2zgdbU2VJlgWmGD6WcXLcAjd34Vbz78A7zwx5vxg2vPx7DBef4QW1tiVmk/zmsk6SkezJpShPmHmdfklLysFOdeEZHuU3AVERERGSCy0lPx4LNLbNm2u7wtuPqaamwZN2oI/nPfzbjvh1/G2ScehrmHjMWnDp2CGy8/C8sevwOfP/sYE1q9JuCWmUeptlRE+o+Cq4iIiMhBIrvlJWTV/9mW7KbHnaUBz7+zBuccN8OWjcWlaGjymtTaAjRWI9njwd/vuh4L5kx21g6Vk5WO395yORbOnwm0NKO1sca5p3NZWNr2mljSPE3OPSIi3afgKiIiInKQSPOtQmrT27akeZc6SwNWbtxlO2sqrazFYy8tt8t8vK61tRXf/OIZOGTCSLusI+yF+J7/+SJSkj3mcbXO0s6lJ2xpe00snqSur5EVEQmn4CoiIiISx/71xieob2x25tpravbaIWhcyZ5EOyxOG2+Dvbn4TP+QOV0ZPawAxx5+iEm8PrS2RH7e1z7caIfh6cy/Xv8EDY3d76lYRAY2BVcRERGROLbo6Gn22tWOsJb00wvnOHNAi68VqzbvcebYF1OLCbNJGD9qiLOka4eMH+GfaI3cSdP8WWMxakiuMxfZ4mOnIy2s8ygRkY4ouIqIiIgcJBoSp6ExZYEtDZ7DnKUBOZlpaPa24K5HXrPTVoLJn63+0l0tLd1v7lvfOrbtNbF4W3T4KSI9pz2HiIiIyEGiOmkhatIvtaU65QJnacCCWWNtDS3HWb3p0hNsbWxCgseEyRas3lTsrNW1Feu22Vs+tis1OKztNbE0eDUcjoj0nIKriIiIyACxc18lLj3jMPz5tovxyabddlmCx1/z+v/+8aq97cqqjTvwzvL1JrQmAUlq6isi/UPBVUREROQgkJCQiM1bt2PDps22bNuxE57E0EO9HXsr8d3f/hvX/+JJvLNyq+1NOCElwzw4Efc+9jLe+Wi9s2ZkrJn9yg/+hBafDwlpWc7SjvnM9ot37Wl7TSwpnmTnXhGR7lNwFREREYljVTUNJlD68OqKYpx5yzM4+aZ/2HLiNx/D429ugs/Xir3lNUgyIfakIyZhU3GpLYdNHWU7ZWJoTUzLtSH2whv+D39/4T07HW7brlKc97Vf4sNVmwFPChKSTeDtAHs5bmpuwZY91Tjr1mfbXhPL9x96x65TUl5rX5OISHdobyEiIiISx9Zt34fj5k5w5to7YtpobN9TbmtJC/MycfSscSjIzcQxc8fbUEsJyelIMOG1vKoOX/zu73D6V36Gu//yAp56ZSkeeeYtfO32B3H4hd/Dy+9+jAQTWpPS8/ko+9hIVm/eg4XzJjtz7Y0ZPgjpackoqezeWLAiIgmtkU6piYiIiEjMemXJepxz4/12OsWThLtvPA/3P/2+bQq8Y2+FXT68IAfDCrPx/StPxcW3PIy6hiawM6YTD5+ICSML8OhLy1FZ4x/DtU1LI1rqqwBf+/FZ2RQZyRlITM3pLLNafJ5vf/4EfLhmBzbsKMWWnWW22TCD87D8bNx65Sm45udPoKQiEFyvPHse7rrhbGdORCSUgquIiIhInAkOrq6vfvpTmDN5JEYMzkFdfROqTVm5fifu+uvrEZv+dsis2uprArxN5nEcpzUBCUnJ/k6cTCDticvOPALzZoyxNawMrxyCh7Wxf3jyXdt8OZiCq4h0RsFVREREJM5ECq6uRBMuPZ4kNDV7nSWxITsjFdV1jc5cewquItIZXeMqIiIichBhk9xYC63UWWgVEemKgquIiIhIHEtPTUZednqHhT0Hs0S6zy3cRk+w9jTSdtzCWt/uvC4Rke5SU2ERERGROOM2Fc5IS8GvvnEO0lI9zj3t3ffke/b2ynPm2dtIGhq9uP6uJ20HTl2ZMKoAP77qdDsET0du+vUzOOuYabbn4kg8SYnYsL0Et9z7vLNETYVFpHMKriIiIiJxxg2uHNbmFzcsxhdv+6tzz/65/9aL8K1fPY3SbgxPc8yc8Zg/cwx+/uf/Okt6bsigLPz02kW4/MePOksUXEWkc2oqLCIiIhLnctNa8bXj6nD53DJ85ch6XDixGPNS30Xy3iVtJatsCeanvYtLDtmHq49qwA3HN+O6Y+ucLfTclKFeXDW/El8+ogZXHlaLM0dswIyE0OccWvsBPpX5AS6fU43rjm7GDSc04vzZutZVRHpOwVVEREQkznkSWzE0sx5Hzz8ep568CEcevgCb1m9FXsPGtpJesxEb1m3FwpNOw8knnYFpk6ZiTD6Hu9k/WSmtyPHU4rRTFuOM087CqJFjsWdr6HP6SjehrKQaZy46GycefyomjRqBoTn7/5wiMnApuIqIiIgcDFrNgZ0zzmpubq69DZdg7s/OznbmoiDogrO8vDxnKlR+fr4zFbK6iEiPKLiKiIiIHGQYUPvbgXhOERk4FFxFREREDgKJiYlw+9ysqKiwt+F4f01NjZ2ORtBMSgocSpaXlztToYKXJyrbish+UnAVERERiXMtrQkorU/Bpi0f44MPXse6dR/h8COmozpvbltpKpyLI4+chvfffx0ffvgWthVvwq6q/R9Ltb45Ac1J2fjoozfx9juvmEC8DxNnzAh5zvTRszF+/BC8/vp/8PHH72H7nj0oq9Xhp4j0nIbDEREREYkzGg5HRAYaBVcRERGROOMG14y0FPzqG+fA4+m4FvP+p9+3t5eddaS9jcTr9eGGXz6J2vomZ0nHJo0uxG1fPg2NzV5nSXs3/+ZZLDp6Gj41Z5yzJFRyUhI27yrDLb9/zlmi4CoinVNwFREREYkzbnClzPQUpKUk2+lIaur846ZmZaTa20gampq7FVpdednpSErsOCyXV9UhPS25y9cVHH4VXEWkM7rIQERERCROsa+j+romlFfUdliam7y2RLrPLdxGYqs5MOygJJgSrKK6HpXVdfA119vCJsYs9fX++fTkBBuEuaylucEuq6z2r8Nb/zphGxUR6YRqXEVERETijFvjmu8ZgVRkOEv7TrO3GqWte9Aa1CvwyDwPrvyUf7zYHz5bZnssPn1GJo4cm4YVOxrxz+X+3otvOjXfBtlH3q/G+r1NmDQkGRcfmYP65lb8/IUyuw6pxlVEOqMaVxEREZE4lZKSj6yscX1ePMlZ7WpdRUT6k4KriIiISBxraap2psx0c2BaRORgouAqIiIiEsdavDVoqttrS2twW14RkYOIgquIiIhIHEtMyjAlFSkZQ+BJyXKWiogcXBRcRUREROKYJzXXlmCVu99Ga2uLMyciEv8UXEVEREQOIs0NZWhpqsXe9X8z4dU/Tmprqw91lRtRs2+5CbXvoHrfMjO/Aa2+5rb7q/a+b6e7K6GxErt377YlpanEltryvXa+2ty6y/bu8a/jq91n53nLeS5P8tU5WxMR6ZyGwxERERGJM+5wOMMyZiA7ZbizNKC+eisaKtajqaEEeSOPsYHV48lFK1qQ6EmHr6XBrudtrkZW/gxU7nobntRByB02v13tLVXXbsLexo3wBVV5TG14HeUle+Dz+ZwlPdPc3IyapAJ4x55u5zUcjoh0RjWuIiIiIgeZ9OwxSMsZi5S0AtSWfILUzFGYOikfo/N3I8v7XwzN3IzZhxQiPWs06irX2NCaVTgzYmjtiCcpCTk5OT0uGRkZ9ralpcUEaH+NsIhIVxRcRUREROJYc2MZWlsawUZ0/mbCVfA2VCApJcfc60Fa1lCcc3wKFh+XjNzUXUjylSAzqRinLUjGhQtTkZ45HEmeZNtc2NtUiaa63f4N9wGG1erqatTX1ztLRES6R8FVREREJJ61ttgmvz6v/3rRfZufNuWfqNj5BpLT83HeiamYMNpj7ws3elgiLj49FclphajZtwwlW55Fydbn0NJc66wRXUlJSUhPT0dKSoqzRESkexRcRUREROJYUnKOHQ4HrV54UrJRMPYMpGSNQEr6YOTnJmLM8CRnzciGDEq0JTk1H0kpmSgYvdBsM9O5N/rS0tJsgBUR6QkFVxEREZE41upjh0uZJnTmwudrNgF0ENLTh8DX0oisxM149dVX20p5ebl9TF1dXcjyzMT18Jngm5aWi9Ss0XYdEZFYouAqIiIiEsd83nq0NNfYoW3YXLhy97uoKV9ta1/37d6CdevWtRUGVmpsbAxZvqd4IzzJ2WioLkbJ1mfRYrYpIhJLFFxFRERE4lliog2s7JgpISEJDRyftRVm2oOhIydj1qxZbSUrK8s+JDU1NWT58NHTzNIWeFsa0VS7q224HBGRWKHgKiIiIhLHkthMODnblCx7WzjhPOQMW2CCbCkSUotw1FFHtZXcXP9wNxySJnh5Ws54NNXtQ0HR6Rg25fO2ubGISCxRcBURERGJY97GClMqzVQrWlubTZDNsOO4NjeWY3NxM1ZtavGv2IGNO1rw8YZGtDTX296FE5PU46+IxB4FVxEREZG45mO7YFvjmpiUbpdU7HwdnuQME15L8MoHXmzZ6bXLw23f48N/3vWiuW6v2UYrSre9YDt1EhGJNQquIiIiInEsOX0wUtKHOHN+WUPmIjljONKyxqK+rhZPvNyEv/2nCZUNI9CcNA61LaPxj/8247H/1KOmuhrpeZORPXgusgsP9Q+tIyISYxRcRUREROKYt6EUTXW7OS4OWpqq7DJPcg5yhhyB9NwJqK/ZgobqbdiwYT22luahIXk+dleNwKrVa1FXsQF1VRuRkjncrDsRqVkj7OO7o8nrRUVFBSorK/ereDweJHnULFlEuieh1XCmRURERCQOvLJkPc658X4My5iBtJYUJCQlmxCYDm9zFZJTC5y1YJv9lm17ARl5E5CcPswE1fWor1xvg2rO4MPh9daies/7KBizqNNrW6trN2Fv40b4gqo8Rmb78Ll52Xb6zv+UgYeUCw/JxKFFafhkZyOeXVlj7/vqiflIT07AEx9WY+O+JkwYnIzzD81BfXMr7nm1Gr6EJLvelWfPw103nG2nRUTCqcZVREREJI4lJWfa0NrcUG5u/cPduNjst3DcYmQMmobktAKkZY02AbMFKRnD4EnNQ1rmSAwef+7+dchkHpOWlmZLa5K/eFL888nm1l3mrpPg8c/z1l3mhlYRka4ouIqIiIjEsUQTBBMSk00YHdLJ9akJzi17Ifb3QCwiEk8UXEVEREQGiNTMkSgYcway8qY7S0RE4oOCq4iIiMhAkQBk5E0yR4A6BBSR+KK9loiIiEgcC270qwbAInKwUnAVERERiVP13grU1G5CdcN2VDftRG3tZlQ374p6afTVozVwmayISL/TcDgiIiIiccYdDocyfRm2CbAXLUhCIuoS6u3yvsYcm+zxp9kmr/9w0pOYYFsh+3zm9fj8y5KTEpDA19dilpvDzkQz40kCeATa3BI4DNVwOCLSGdW4ioiIiMSxhsRGNKEZrfChwfz0F0ZOBlY3tBLDKufd0EoMp1zG0Eq85XxwaBUR6YqCq4iIiEgcazE/zQnNaDLFl6AwKCIHJzUVFhEREYkzwU2FLzxpNqaNG4qxI/LR4mvFrn1VWLt1Lx5+fqm93zVvxhgcN3c8xg7Ph7fFh+aWFmzeUYa/vLAU5dXdb15ckJuJX379bOTnZDhLItu6qwyJSYkYPSTPWRLZ1t1l+PpdT+Hziw5XU2ER6ZCCq4iIiEicYXA996YH8L3LFuKTTbuxp6waW3aWodnrw7iR+SjMy8RZx0zHtT97wjbNXTBrLD41ezyWrtmOLSZQFu+txMRRhRgxJBdXLJ6Ha3/+BEoqap2td276+GG48uyj8O27n3aWRPbcr76EfRU1+Pz3/+osieyRH30Ol//4UXx64WwFVxHpkJoKi4iIiMShy848AuXVdXj1/Y9wRP4qXD1vJ7529G6cOnoV9mxfgRffXYubLj0Bh4wdiq+cOx+/efRlDE9YgS/O3orvnVyB86ZsQO2ej/GFHzyCv/zwEmer3cN6jyZvC769sBLfOyW0nDW9zt7HqhEWTn95QTVuPrkypHz2sBr/es42RUQ6o+AqIiIiEoemjBmCR19cjoVTWjBy8GikZIy1JTt7HI4ZVYt/vLoSRcMG4agZY/DX/3yIYye2YFbRyLb1MrPGYsHoJrS0ePHCO2tx+CGjnS13X3pqBtIzxyEtc6wtyamjkNDcvuY2NyPVPl+GU9IzxqC1oca5V0SkawquIiIiInFoSH4WUjxJKMzJwMTJszFp8ixbJk6eiVHDx9hhZ9hsODXFg4zUFBRkJ2PilDlt67EUjZ4ET2IrCvIyna32jCc53z6fu72p0w5FcmKSc29AcnK2WS/wvJOnzkZKcrpzr4hI1xRcRUREROJYaoIP8LU4c9SKbGd81WAJXKfF68z5ZZn1gkau6bGS0kr4OGiro6mpCQ0N7YfkKS+vClnP6/WitqbOmRMR6ZqCq4iIiEgce3+DCYrL/gEsfwpY8Qyw9AmsX/mhc2/Aki0mOC7/p7+sNOt9+Dg2LXsDjd72Ibe7lnzwJq699lrcdNNN+PrXv46vfvWr2FdS4twbsGbNSlxzzTV2vW9+85v2Mdu2b3XuFRHpmoKriIiISBzbUeEczrU0Ac0c1qYVu6vbH+LtqXLX8wJNZr3WVuyrad+stydW7PTYmtTKykrU1flrUJcXJ9vbYEu3J9sOnbheTY3/2taPzWNFRLpLwVVERETkYNOHXfXuK6/Bi++vtdO1je1ra+ua/bd//c8y/PO/K+10TYT1apv8y5747wo0NoU2YRYRCafgKiIiIhKHnn5jFarrGp259jh+619fWIYP1+7A+u3tm+8Ge/XDDXYs2O7gc67bts+Z6xjHjF25cbcz17EV63fC2xK4/lVEJBIFVxEREZE4dNYx05CdkerMtZfsScKnF87BjPHDMG38UGdpZAtmjsXooXnOXOfGjyzAtRd8ypnr2P9+bTFuvfJkZ65jt335NGSmpzhzIiKRKbiKiIiIxLGc1Pa1lTnp7dsKp6e0X5ad2rs2xYcVtW/ie8To9svmj3XaDweZO7r9MhGRjii4ioiIiMSxT03xABOPBqadAsw4HZhyPKZOmeDcG/CpCSakTlgATD3Jv+7k4zF+6hQk96J/pmlTD8E3vvEN/PCHP8Stt96Kr33taygclO3cGzB+bBGuu+46fO9737OFvQ+PGt55LbCISDAFVxEREZE4lpxigmvuCCA9F0jNArIGIyHDTIdJTUsG8kYCmfn+dbMHozU9D57E/a91HT16NKZMmYKhQ4di5MiRmD59OjKzMp17A4YOHYaZM2eiqKjIlhkzZmDQoO41TRYRIQVXERERkThWUd+MutpK1NfV2FJXV43qhirn3oAqs15NdVm79Xy9aC2cbTIqt+Nus6a6Aqnp6c69AZmZSWhoqG0rXDe9k+tzRUTCKbiKiIiIxKGyyjo0e314Z2Mrire8it1bXrZlz5ZXsHx7LXwmke7cV4kWc1vX0IQlWxOxYf2bIeutKi5DozcB5dX1HNa1xxpqd9vtuNvct/01+NqPfIPq6hLs2vRSW+G6rQktzr0iIl1LaOVo0CIiIiISN15Zsh7Pv7MW9SaQPvjvJbaTpdwMfydNXhNE99QkYuGRk3HktCI8+drHuOGzx+JLP3kMKUnAkBx/YGwxCXN3ZaId8vXl31yNk6/7vR1CpyvTxw/DFYvn4Rv/9xRG5bXvGIrjuJbVJuKle67CvooafPZ/HsbwHB+SwqpLGr3APvM6/37HF3DFjx/FpxfOxl03nO3cKyISSsFVREREJM4wuF7wnQfxs+vOwrNvrcKukips3V2OlhYfxgwfhKH52bjq3Pm47Ed/Q5O3BafPn2qHsXn3463YtrvCBspRQ3IxcnAuLjvrSPzvw69iw47Ox3p1cfs/ueoM7C2vcZZExu03Nbd0ud6Q/Cwbqi857VAFVxHpkIKriIiISJxhcD3nxvvt9JVnz8OMCcMxZtggeE1w3V1ahU827cHv//G2vd918pGTccLhE1Fk1quorkdGajI27yzDoy8tx7pt+5y1uofhNTu982tUGVg9SYnIz8lwlkRWWlmHXeY189+h4CoiHVFwFREREYkzwcF1fyQlJqLF176Z74Gk4CoinVHnTCIiIiIDTKyFVhGRrii4ioiIiIiISExTcBUREREREZGYpuAqIiIiIiIiMU2dM4mIiIjEmd52zuQ6Zd4UOxxNZ5qbW5CcnOTMRfbYi8vtsDu9oc6ZRKQzqnEVERERGYDmTB6Jy886EglmOlBaQ+YXHjkJN156Qsiy8HXmmu1cff7RZkpEpO8ouIqIiIgMUFt3l+PPzy3Fv957BzuyH0X51D9h3+iH8N7OF/Hn55di6epi7Kuoseu8sOwN7C78Kyqm34e9w/6MV9f91y5/7cON8Pp6V9sqItIVBVcRERGRASw7rwnHXL4C3sxy1KxPRl2ZF6NOWYXZR+1x1gCGjqjD4V9YifqEalSvSUF9fSOmnv8xJkwrd9YQEelbCq4iIiIiA9ihx+5ERUULsnbnY9zgcRjcOgStawZh9DFb4EtstOvMWbgNNcXJGFReiLGFY1HQOARNG7Mw7eStQIK6SxGRvqfgKiIiIjKAZYysQVJpBvLz85GVlYURI0bA0+BBjc+LBE8ZfOYnZUgtkspTUVhYiOzsbAwbNgye2mQ0pdQDyQ3OlkRE+o6Cq4iIiMgA1lSWjpYEL5KSAj0H+5JMWG1KRqsvxxwsJqLZhNYWTws8Ho+zBvzzjalmIsVZIiLSdxRcRURERAawT94abv6fgMb0RvgSfWj2NKM+ux7Nawcj0Ztp19ny3gh4PV40pph1Enxo8jShKa0J+5aax7Z0PlSOiEg0KLiKiIiIDGC7d2Rg8JbBSDIBtC61zgbXQXsGYdP7DLR+O9bmYvC2wXa6Nq0W3kQvCooLsGGZf5mISF9TcBUREREZgLzeFowakotrL1iAtJo0jC0ei0m7JmFS8STk7M7BKUdMw7zpRcjPycClpx+KjMoMTNg5wa4zsXgiskqzcOGJc3HyvMlmWz5nqyIifUPBVURERGQA+njTbvzuibexY0+Fnee1rCneFHha/dexllbW4+8vf4Tb7vsPdpVU2WWJrYlI9aaa1GtnsbesFi+9vx73P/2+f4GISB9RcBUREREZoN78aDOeefMTO52QkGBvW1v9w9u8+/FWPPX6x/j3W6vx6pL1dpm7juulD9bbdZq8Lc4SEZG+kWB2Thp8S0RERCSOLFm9Hd++5xlnrncSWn2Y0LICkyZNQk5Ojg2uH374IXYljUdtQo5dJ7W1HqNb1mLGjBlITU1FXV0dVq9eja1Jh6A5IdWu01uLj5mB6y86xpkTEQml4CoiIiIygDU0NOD666/HxIkTkZubC5/Ph2XLluFrX/sapk+fbtfZsmUL7rjjjnbB9fbbb0dBQYFdR0SkL6mpsIiIiMgAxqBK4U2FExMDh4nh67jzwWO/ioj0JQVXERERkQGso8Z3wdeztrT4r2F1w6x7X3C4FRHpS9rbiIiIiAxg3alxdZe5t+5jFFxFpL9obyMiIiIygLlhNDy4Rqpx7Szcioj0Je1tRERERAaw8BpXV3Ao7aiGVcFVRPqL9jYiIiIiBxGGzE2bNmHVqlV2mrWjzc3NtifgiooK7Nu3Dzt37rQ9Ba9fvx5r1qyxjysrK7OP27Nnj52PFFzdmlZXTzpn4vMvXboUpaWlzhIRke7TcDgiIiIiB4ny8nLceuutaGpqcpb4a1L353Dv61//OqZOnWqnP/roI/z2t7+1Q99w28nJyTboLly40DYj9nq9NhyzBE+783xdtbW1dls0cuRI+zpFRLpLwVVERETkIPGd73zHhsRgDK7jx4+3NaisIeU8p91b1r6WlJQ4awfMmTMHV199tZ3+97//jaeeespOB8vIyLDbCN6eW4i3DLaRtr9o0SIsXrzYmRMR6ZyaCouIiIgcJNgUOBzrKLKyspCTk4PMzEwbNtPS0pCammprToNrZ4MFB+DXX3/dmQo1bNgwTJkyBZMmTcLEiRNtQB47diyKiopsGTVqVFuIDff22287UyIiXVNwFRERETlIsNYzEi7ndapsusugWl9fb685ZfNdhtlIjj32WGcKaGxsdKZCdbQ8GMNxJAzQIiLdpabCIiIiIgeJn/zkJ9i2bZszt//GjRtnmx27/vznP+PNN9905gKGDBlib3k46XYExdvwaQblcF/+8pdx2GGHOXMiIp1TcBURERE5SPzlL3+xPfeyKTCvLWVhM+Fzzz0XKSkptvbTLcHznGZnS5988ontkGn48OHOFv0YPm+77Tbs3r3bWQLb9JidNXk8nrbtuNPBtwytDL1Dhw61NbS8zpY9C//gBz9o9zwiIh1RcBURERE5SDz88MO2B2Bec0qsfS0sLMQNN9xg53uL171u377dhluG3e7gEDs/+9nPMHPmTPsYNlFevXo17rjjDuTn5ztriYh0Tte4ioiIiBwkWB8RfJ1rtOsnBg0ahFmzZnU7tJJ7Haw75itrgYmdQ4mIdJeCq4iIiMhBgkE1OKwyxHbUYVN/YXDla3B7F2azY1JwFZGeUHAVEREROYgEB1WGxFgIruS+Dr4mhli3BlZEpDsUXEVEREQOEuFNgxkWYyG4Bo/lyqbCrG090K9LROKLgquIiIjIQcK9xrWVPwmhzYYPFAZX9i7svibWuKqZsIj0lIKriIiIyEHCm+BFWWEZ1o9Yj3XD16FscBl8Hv81pQdKbVMtKodUtr2mPYP2wJPhce4VEekeDYcjIiIichDwmZ8f/uuH+Lj8Y4zNH2uXbS3finHp43DHhXcgyfxE8v7772PNmjXOXM+NGzcOxxxzjDMXiq/prpfvwhtb3sCkIf4heoqrizGocRDuvuzuDl+TiEg4BVcRERGRg0CJ+fnRiz9C+ZpyjB452i7btWsXUsel4gdn/ABDzU+4t956C+eccw4yMzORnp5um/CG37I0NTWhoaEhYqmqqsLf/vY3nHzyyc5WA/iafvbaz7Br+S6MGT3GLtu9ezdah7fi9nNvxzDzIyLSHWoqLCIiInIQqDM/vIY0oTXQ6RE7QuI1r7wv3OrVq3HmmWfi9NNPx/9cdRWuPuYYXDJuHBabEHuy14v5e/dizvr1mPrhh5izdi0WmPmFJsAuzsjAxUVFuOroo/HdK6/EBRdcgPPOOw/Lli1zthxQb368ZluJQYecvMY12ZNs7xMR6S4FVxEREZGDQJr5GTJ4CGpra1FTU2NrQzldWFho7wv3la98BRUVFUhLS0PxX/+Khp070WqCqbe6GqPPPRdHfOMbWHjXXVh0//049e67cfwtt2D2ZZdh+HHHIW3kSDSXl2P7gw/ax/P5rrjiinadQaWan8FDBqO+vt6u494OGTbE3ici0l0KriIiIiIHgQLzc9LMk9A6phVbd2/Fxh0b4R3lxcK5C1FofoI98sgjeOONN+w0g2dTaSmGn38+hixahORNm+D7+9+x47bbsPKLX8SHn/40ln3+81j7ne+gzATVjI8/xuTTT8fw885DS1VVWw/BrHH93e9+Z6ddfE0nTDsBvjE++5o2FW9C84hm+5oGmx8Rke5ScBURERE5CLCjo7mJczFpzCQkzEhA4oxEjCsah8M9hyPZ/AT79a9/7Uz5gyvYpDg5GaMmT8ZR//u/mPDNb2LWvffiyGeewWH/+Adm//GPmPKjH2HsddfBW1MDrFmD4cOHAx4P0pzgSuHB1b6mpLmYUjTFvh6+rnFjxuEIzxHtXpOISGcUXEVEREQOEmwSPKpmFIoqijCqYhRGVo9EhvkJtn37dnzwwQfOHJCakmJDa05ODgYNGoTsGTOQMX48qlaswAdnn43lX/gC1v3wh9hoAu2a734XlcuWIXPSJOTm5iIvLw+piYHDyY8//hhr16515vz4mkbUjMDoitG2RHpNIiJdUXAVEREROcgk+hKR5Is81Myzzz5rO2yaMGECxpuAyuCZlJqKwYNDm+42FBcjb948FF1+OUZdeimmmeB62GOP2VrY9NH+XovzTdhN9vnskDiTTJj1eDx4+umn7X3hOntNIiJd0XA4IiIiIgeRX/37V9hStsVOZ5qfGZ4Zdtr16KOPIiUlBSNGjLDzKUlJyH3pJZz6pz/ZeVfN2rXY9fjj8JhwWrN6NfKPPhojL7nEuddv9c03Y9ORR6K8ttbOl5SU2PKFL3zBzrtWe1ejyvzQ8JzhuGnxTXZaRKS7VOMqIiIichCprqx2poCWphYUFxeHlLq6urbQSk0tLUgJmnd5srKQnJ+PBBNsE1NT0WrWC9daWAhvUFNh9mDMIXjCn7O5odlZA6it9odcEZGeUHAVEREROYgUNBXA0+JBUksSsmuynaUBkRrbJfp8zlRA2dtvo2nfPmRNmYJhZ52FoaaES3DGiQ3GcVrD5dTltL2m/IZ8Z6mISPcpuIqIiIgcRD595qcxpXkKJtZPxPgh41FUVBRS2KHSqlWrnLWBjJQUtO7d68wFJOfmonLpUuz517+w4+GHkVhaiqFDhyI7OxCGE8rLkZUUuG51w4YNyMjIaPecY4eMxYT6CZjSNAUXnn6hs7aISPfpGlcRERGRAeShhx6y16AywPIw8JvXXw/89a84wxTicDdJJnwmJCbCW1Vla10bPvkEh19+OVKdDpy2bduG2tpafHLDDSg7+WR8/xe/QJIJsBUVFbj77rtx7bXX2vVERKJFNa4iIiIiA8jixYtt50wMmZWVlWhsaUFjYyPq6+ttUF1y7rn48KKLsPTTn8ZHV15pO2BKMOsxzLrs2K9GvQmv1eaxVeZx5eXlttnweeedZ+8TEYkmBVcRERGRAYQ1rccff7wzBzQ0NKDV68XevXtRvWoVMidOxJgvfxkTTWDlEDiz77sPWaecAq8JqM0moNbv3o0qE2RpX2kpGoMa7x155JEYPny4MyciEj0KriIiIiIDzM2sRXU6VWJwTfR4UFtRgYaRI1Fw3HGo/vhj7H7iCWy44w6s+MpXsPqWW/Ditdfig9/8Bv++5BJUmIC7b98+1Dc3o9EUF7crItIXdI2riIiIyAB00UUX2TFdr7jiCoxZtgww4TVt2DDkm/A63JTkrCzbPDgpPR2+pia01Nejpa4Ou599FqVmut6s31RejrKTTsI999yD008/Hf/+97+drYuIRJeCq4iIiMgAVFJSgvnz52PevHk4+bjj0Lh7N5rMspaaGrQ2NCDTHCKmNDcjsbERnrQ0tJrSYMJqjXlsggm07KgpdfhwvLVkiQ2s77zzDkaPHu3fuIhIlCm4ioiIiAxQ7B145syZtmMmdrjEkpqaakvwdFNTk21SzE6cwm/Zm/DSpUtxyCGHOFsVEYk+BVcRERGRAczr9aI56DrVnvJ4PEhOTnbmRET6hoKriIiIiIiIxDT1KiwiIiIiIiIxTcFVREREREREYpqCq4iIiIiIiMQ0BVcRERERERGJaQquIiIiIiIiEtMUXEVERERERCSmKbiKiIiIiIhITFNwFRERERERkZim4CoiIiIiIiIxTcFVREREREREYpqCq4iIiIiIiMQ0BVcRERERERGJaQquIiIiIiIiEsOA/w89ZKIbvD2q5gAAAABJRU5ErkJggg==;" vertex="1" parent="1">
          <mxGeometry width="1709.91" height="1100" as="geometry" />
        </mxCell>
        <mxCell id="mi3W6c-oh3Y2VzycGVdL-2" value="&lt;font style=&quot;font-size: 18px;&quot;&gt;Lampu Bohlam 10 watt&lt;/font&gt;" style="text;html=1;align=center;verticalAlign=middle;whiteSpace=wrap;rounded=0;" parent="1" vertex="1">
          <mxGeometry x="380" y="180" width="195" height="30" as="geometry" />
        </mxCell>
        <mxCell id="mi3W6c-oh3Y2VzycGVdL-3" value="&lt;span style=&quot;font-size: 18px;&quot;&gt;Modul Relay&lt;/span&gt;" style="text;html=1;align=center;verticalAlign=middle;whiteSpace=wrap;rounded=0;" parent="1" vertex="1">
          <mxGeometry x="730" y="500" width="120" height="30" as="geometry" />
        </mxCell>
        <mxCell id="mi3W6c-oh3Y2VzycGVdL-4" value="&lt;font style=&quot;font-size: 18px;&quot;&gt;ESP32&lt;/font&gt;" style="text;html=1;align=center;verticalAlign=middle;whiteSpace=wrap;rounded=0;" parent="1" vertex="1">
          <mxGeometry x="1300" y="620" width="60" height="30" as="geometry" />
        </mxCell>
        <mxCell id="mi3W6c-oh3Y2VzycGVdL-5" value="" style="rounded=0;whiteSpace=wrap;html=1;strokeColor=#FFFFFF;" parent="1" vertex="1">
          <mxGeometry x="1730" y="1215" width="200" height="60" as="geometry" />
        </mxCell>
        <mxCell id="mi3W6c-oh3Y2VzycGVdL-6" value="&lt;font style=&quot;font-size: 18px;&quot;&gt;Modul Photoresistor LM393&lt;/font&gt;" style="text;html=1;align=center;verticalAlign=middle;whiteSpace=wrap;rounded=0;" parent="1" vertex="1">
          <mxGeometry x="1250" y="920" width="240" height="30" as="geometry" />
        </mxCell>
        <mxCell id="gM-4dp6M_5Nokjrk7J6e-2" value="&lt;div&gt;&lt;font style=&quot;font-size: 18px;&quot;&gt;&lt;br&gt;&lt;/font&gt;&lt;/div&gt;&lt;font style=&quot;font-size: 18px;&quot;&gt;&lt;div&gt;&lt;font style=&quot;font-size: 18px;&quot;&gt;Steker listrik&lt;/font&gt;&lt;/div&gt;220 volt&lt;/font&gt;&lt;div&gt;&lt;font style=&quot;font-size: 18px;&quot;&gt;AC&lt;/font&gt;&lt;/div&gt;" style="text;html=1;align=center;verticalAlign=middle;whiteSpace=wrap;rounded=0;" parent="1" vertex="1">
          <mxGeometry x="130" y="320" width="120" height="30" as="geometry" />
        </mxCell>
        <mxCell id="gM-4dp6M_5Nokjrk7J6e-3" value="&lt;font style=&quot;font-size: 18px;&quot;&gt;+5 volt&lt;/font&gt;&lt;div style=&quot;font-size: 18px;&quot;&gt;&lt;font style=&quot;font-size: 18px;&quot;&gt;DC&lt;/font&gt;&lt;/div&gt;" style="text;html=1;align=center;verticalAlign=middle;whiteSpace=wrap;rounded=0;" parent="1" vertex="1">
          <mxGeometry x="730" y="530" width="120" height="30" as="geometry" />
        </mxCell>
      </root>
    </mxGraphModel>
  </diagram>
</mxfile>
